<svg id="Capa_1" enable-background="new 0 0 512 512" height="512" viewBox="0 0 512 512" width="512" xmlns="http://www.w3.org/2000/svg"><g><circle cx="256" cy="256" fill="#b16ee5" r="256"/><path d="m424.494 218.676-117.295-117.295-166.663 166.663 63.547 63.547-79.367 79.367 99.024 99.024c10.567 1.329 21.333 2.018 32.26 2.018 141.385 0 256-114.615 256-256 0-3.978-.104-7.931-.283-11.864l-72.657-72.657z" fill="#8335ba"/><g><path d="m216 61.213c-82.843 0-150 87.304-150 195s67.157 195 150 195l16.207-195z" fill="#b7c958"/><path d="m366 256.213c0-107.696-67.157-195-150-195v390c82.843 0 150-87.305 150-195z" fill="#89aa3b"/><path d="m216 61.213c-27.469 0-49.737 87.304-49.737 195s22.268 195 49.737 195c-54.938 0-99.474-87.305-99.474-195s44.536-195 99.474-195z" fill="#89aa3b"/><path d="m216 61.213c27.469 0 49.737 87.304 49.737 195s-22.268 195-49.737 195c54.938 0 99.474-87.305 99.474-195s-44.536-195-99.474-195z" fill="#5f8727"/></g><g><path d="m216 394.504c47.378 47.378 135.715 35.856 197.307-25.736l-33.624-52.162-46.443-27.905-100.083 88.645z" fill="#b7c958"/><path d="m439.042 171.462-17.157 17.157-88.645 100.083 80.066 80.066c61.592-61.591 73.114-149.928 25.736-197.306z" fill="#89aa3b"/><path d="m233.157 377.347c39.482 39.482 113.736 29.24 165.852-22.876l-30.491-47.345-40.996-24.143z" fill="#fddf55"/><path d="m421.885 188.619-94.364 94.364 71.488 71.488c52.116-52.116 62.358-126.37 22.876-165.852z" fill="#fcbe50"/><path d="m294.782 363.606c4.798 0 8.688-3.53 8.688-7.884s-8.688-17.832-8.688-17.832-8.688 13.478-8.688 17.832 3.89 7.884 8.688 7.884z" fill="#555a65"/><path d="m336.66 353.837c4.635-1.242 7.478-5.658 6.351-9.864s-13.007-14.976-13.007-14.976-4.903 15.267-3.776 19.473 5.797 6.608 10.432 5.367z" fill="#555a65"/><path d="m408.144 250.244c0 4.798-3.53 8.688-7.884 8.688s-17.832-8.688-17.832-8.688 13.478-8.688 17.832-8.688 7.884 3.89 7.884 8.688z" fill="#333940"/><path d="m398.375 292.122c-1.242 4.635-5.658 7.478-9.864 6.351s-14.976-13.007-14.976-13.007 15.267-4.903 19.473-3.776c4.206 1.126 6.609 5.797 5.367 10.432z" fill="#333940"/><path d="m364.071 331.819c3.079 3.079 8.325 2.824 11.718-.569l-6.02-12.163-12.163-6.02c-.001 0 3.386 15.673 6.465 18.752z" fill="#555a65"/><path d="m376.357 319.533c-3.079-3.079-18.752-6.466-18.752-6.466l18.184 18.184c3.392-3.394 3.647-8.64.568-11.718z" fill="#333940"/></g></g></svg>