<svg id="Capa_1" enable-background="new 0 0 512 512" height="512" viewBox="0 0 512 512" width="512" xmlns="http://www.w3.org/2000/svg"><g><circle cx="256" cy="256" fill="#fddf55" r="256"/><path d="m441.388 233.114-9.126 9.126-169.033-169.032-13.337 13.337 8 8-22.206 22.206 10.213 10.213-21.787 21.787 7.574 7.574-42.553 42.553 5.787 5.787-71.731 71.731 15.412 15.412-61.63 61.629 157.669 157.669c7.044.582 14.165.894 21.36.894 126.396 0 231.385-91.607 252.227-212.047z" fill="#fcbe50"/><path d="m248.772 73.208-.931 3.134c-8.746 29.449-21.081 57.759-36.662 84.142-18.384 31.129-41.171 59.439-67.728 84.144l-15.848 14.743h25.446l17.023-17.023c21.404-22.15 40.111-46.7 55.765-73.208 11.918-20.182 22.02-41.442 30.164-63.456l5.481-16.296-5.482-16.18z" fill="#d59b8d"/><path d="m341.929 242.349 17.023 17.023h25.446l-15.848-14.743c-26.557-24.705-49.344-53.015-67.728-84.144-15.581-26.384-27.916-54.694-36.662-84.142l-.931-3.134h-7.229v32.478c8.143 22.013 18.245 43.274 30.164 63.456 15.654 26.505 34.361 51.055 55.765 73.206z" fill="#c1877a"/><g><path d="m396.691 377.021-10.009 3.008c-46.754 14.053-96.35-10.821-113.048-56.697-12.746-35.02 6.579-73.551 42.269-84.278l27.557-8.283 53.577 64.782z" fill="#fb735d"/><path d="m396.691 377.021 9.601-4.129c44.849-19.288 66.853-70.222 50.155-116.098-12.746-35.02-52.317-52.115-86.553-37.391l-26.434 11.368z" fill="#ee4a41"/></g><g><path d="m115.309 377.021-9.601-4.129c-44.849-19.288-66.853-70.222-50.155-116.098 12.746-35.02 52.317-52.115 86.553-37.391l26.434 11.368-.598 84.065z" fill="#fb735d"/><path d="m115.309 377.021 10.009 3.008c46.754 14.053 96.35-10.821 113.048-56.697 12.746-35.02-6.579-73.551-42.269-84.278l-27.557-8.283z" fill="#ee4a41"/></g></g></svg>