<svg id="Capa_1" enable-background="new 0 0 512 512" height="512" viewBox="0 0 512 512" width="512" xmlns="http://www.w3.org/2000/svg"><g><circle cx="256" cy="256" fill="#fb735d" r="256"/><path d="m347.138 168.183-5.95 5.95-107.206-107.204-46.527 46.527 74.077 74.077-167.543 167.544 156.857 156.857c1.715.034 3.431.065 5.154.065 117.867 0 217.113-79.664 246.874-188.08z" fill="#ee4a41"/><g><path d="m192.216 66.929c-.8 9.572-2.96 22.935-8.875 37.857-.064.162-.129.324-.193.485-7.711 19.228-22.792 34.569-41.742 42.937-50.516 22.308-85.064 67.45-85.064 119.513 0 74.208 70.183 134.365 156.759 134.365l21.305-144.308-21.307-190.849z" fill="#b16ee5"/><path d="m369.858 267.721c0-52.063-34.548-97.205-85.064-119.513-18.951-8.369-34.032-23.71-41.742-42.937-.065-.161-.129-.323-.193-.485-5.916-14.922-8.076-28.285-8.875-37.857h-20.883v335.157c86.574 0 156.757-60.158 156.757-134.365z" fill="#9f4ad4"/></g><g><path d="m315.622 168.183c-.603 7.222-2.233 17.305-6.697 28.564-.048.122-.097.244-.146.366-5.818 14.508-17.197 26.083-31.496 32.398-38.116 16.832-64.184 50.893-64.184 90.177 0 55.992 52.956 101.383 118.28 101.383l14.107-101.908-14.107-150.979h-15.757z" fill="#b16ee5"/><path d="m449.66 319.688c0-39.283-26.068-73.345-64.184-90.177-14.299-6.314-25.678-17.89-31.496-32.398-.049-.122-.097-.244-.146-.366-4.464-11.259-6.093-21.342-6.697-28.564h-15.757v252.887c65.324.001 118.28-45.39 118.28-101.382z" fill="#9f4ad4"/><path d="m321.027 208.831c-.353 4.638-1.38 11.306-4.4 18.767-.029.072-.059.145-.088.217-3.657 8.938-11.021 15.865-20.11 19.129-32.639 11.721-55.569 39.359-55.569 71.59 0 42.851 40.527 77.589 90.52 77.589l11.975-76.249-11.975-111.043z" fill="#9f4ad4"/><path d="m421.9 318.533c0-32.231-22.93-59.869-55.569-71.59-9.089-3.264-16.454-10.191-20.11-19.129-.03-.072-.059-.145-.088-.217-3.02-7.461-4.046-14.129-4.4-18.767h-10.353v187.292c49.993.001 90.52-34.737 90.52-77.589z" fill="#8335ba"/><g fill="#555a65"><path d="m279.171 328.114h20.883v20.883h-20.883z"/><path d="m279.171 286.348h20.883v20.883h-20.883z"/><path d="m320.938 348.998v20.883h10.441l5.221-10.442-5.221-10.441z"/></g><path d="m331.379 348.998h10.442v20.883h-10.442z" fill="#333940"/><path d="m320.938 307.231v20.883h10.441l5.221-10.441-5.221-10.442z" fill="#555a65"/><path d="m331.379 307.231h10.442v20.883h-10.442z" fill="#333940"/><path d="m320.938 265.464v20.883h10.441l5.221-10.441-5.221-10.442z" fill="#555a65"/><path d="m331.379 265.464h10.442v20.883h-10.442z" fill="#333940"/><path d="m362.705 328.114h20.883v20.883h-20.883z" fill="#333940"/><path d="m362.705 286.348h20.883v20.883h-20.883z" fill="#333940"/></g></g></svg>