<svg id="Capa_1" enable-background="new 0 0 512 512" height="512" viewBox="0 0 512 512" width="512" xmlns="http://www.w3.org/2000/svg"><g><circle cx="256" cy="256" fill="#b7c958" r="256"/><path d="m457.626 267.328-10.786 10.786-233.454-233.454-25.959 25.959 18.724 18.724-79.958 79.958 117.92 117.919-121.288 121.288 101.547 101.547c10.365 1.277 20.918 1.945 31.628 1.945 121.119 0 222.582-84.117 249.183-197.115z" fill="#89aa3b"/><g><path d="m177.349 44.66 5.148 60.064h12.871l6.436-29.749-6.436-30.315z" fill="#d59b8d"/><path d="m213.388 44.66-5.149 60.064h-12.871v-60.064z" fill="#c1877a"/><ellipse cx="158.546" cy="264.498" fill="#fcbe50" rx="80.172" ry="160.814"/><ellipse cx="232.19" cy="264.498" fill="#fb9e48" rx="80.172" ry="160.814"/><path d="m195.368 92.891c-36.24 0-65.618 77.108-65.618 172.225s29.378 172.225 65.618 172.225l7.09-172.225z" fill="#fddf55"/><path d="m260.987 265.116c0-95.117-29.378-172.224-65.618-172.225v344.449c36.239 0 65.618-77.107 65.618-172.224z" fill="#fcbe50"/></g><g><path d="m339.664 176.473c-8.584 7.371-21.382 20.366-30.762 40.073-5.417 11.38-8.228 21.922-9.746 30.264-12.337-.228-29.975.969-49.755 7.694-11.086 3.769-20.338 8.423-27.699 12.823 4.377 9.876 11.264 22.69 22.056 35.906 9.353 11.453 18.927 19.889 26.807 25.873-3.394 9.695-6.912 22.793-8.245 38.565-1.509 17.862.31 32.955 2.469 43.793 11.652-2.165 26.688-6.156 43.087-13.849 13.064-6.129 23.643-13.036 31.788-19.2l16.428-81.433z" fill="#fddf55"/><path d="m339.664 176.473c8.584 7.371 21.382 20.366 30.762 40.073 5.417 11.38 8.228 21.922 9.746 30.264 12.337-.228 29.975.969 49.755 7.694 11.086 3.769 20.338 8.423 27.699 12.823-4.377 9.876-11.264 22.69-22.056 35.906-9.353 11.453-18.927 19.889-26.807 25.873 3.394 9.695 6.912 22.793 8.245 38.565 1.509 17.862-.31 32.955-2.469 43.793-11.652-2.165-26.688-6.156-43.087-13.849-13.064-6.129-23.643-13.036-31.788-19.2z" fill="#fcbe50"/><path d="m339.664 229.298c-4.945 4.246-12.317 11.732-17.721 23.084-3.12 6.556-4.74 12.628-5.614 17.433-7.107-.131-17.267.558-28.662 4.432-6.386 2.171-11.716 4.852-15.956 7.387 2.522 5.689 6.489 13.071 12.706 20.684 5.388 6.598 10.903 11.457 15.442 14.904-1.955 5.585-3.982 13.13-4.749 22.215-.869 10.289.179 18.984 1.422 25.227 6.712-1.247 15.374-3.546 24.82-7.978 7.526-3.531 13.62-7.509 18.312-11.06l13.304-48.646z" fill="#fef7cf"/><path d="m339.664 229.298c4.945 4.246 12.317 11.732 17.721 23.084 3.12 6.556 4.74 12.628 5.614 17.433 7.107-.131 17.267.558 28.662 4.432 6.386 2.171 11.716 4.852 15.956 7.387-2.522 5.689-6.489 13.071-12.706 20.684-5.388 6.598-10.903 11.457-15.442 14.904 1.955 5.585 3.982 13.13 4.749 22.215.869 10.289-.179 18.984-1.422 25.227-6.712-1.247-15.374-3.546-24.82-7.978-7.526-3.531-13.62-7.509-18.312-11.06z" fill="#fee6b7"/></g></g></svg>