<svg id="Capa_1" enable-background="new 0 0 512 512" height="512" viewBox="0 0 512 512" width="512" xmlns="http://www.w3.org/2000/svg"><g><circle cx="256" cy="256" fill="#fddf55" r="256"/><path d="m368.389 209.952-136.867-136.867.547 2.569-37.482-37.482-8.992 39.466 20.687 20.687-5.834 5.834-42.31-42.31-2.35 46.107 82.033 82.033-118.823 118.824-59.179-59.179-2.955 45.502 26.634 26.633-13.314 13.314 56.826 56.826-7.65 7.65 111.182 111.182c8.374.828 16.865 1.259 25.458 1.259 116.74 0 215.219-78.144 246.008-184.973l-125.347-125.347z" fill="#fcbe50"/><g><path d="m96.266 326.282c-.171-15.782-4.604-25.958-8.828-32.453-5.304-8.157-10.541-10.918-17.289-21.245-5.737-8.78-8.705-17.121-10.331-22.95-2.542 4.362-15.08 26.9-7.544 54.744 9.224 34.081 40.591 46.808 43.991 48.12v-26.216z" fill="#b7c958"/><path d="m265.877 235.673c-2.513-21.425 2.424-34.201 7.423-41.92 5.187-8.009 11.184-11.72 18.693-23.955 5.592-9.112 8.644-17.445 10.331-22.95 2.542 4.362 15.08 26.9 7.544 54.744-9.224 34.081-40.591 46.808-43.991 48.12z" fill="#89aa3b"/><path d="m100.896 225.529c-9.532 22.6-15.288 46.753-16.287 71.377-3.611 89.034 53.183 133.547 109.977 133.546l23.43-150.959-23.43-157.434c-32.162-.272-64.357 33.919-93.69 103.47z" fill="#fb735d"/><path d="m304.563 296.899c-1.002-24.664-6.791-48.861-16.444-71.449-29.214-68.356-61.357-103.118-93.532-103.391v308.393c56.797 0 113.593-44.52 109.976-133.553z" fill="#ee4a41"/><path d="m175.598 260.257c-.171-15.782-4.604-25.958-8.828-32.453-5.304-8.157-10.541-10.918-17.289-21.245-5.737-8.78-8.705-17.121-10.331-22.95-2.542 4.362-15.08 26.9-7.544 54.744 9.224 34.081 40.591 46.808 43.991 48.12v-26.216z" fill="#b7c958"/><path d="m223.986 368.32c-2.513-21.425 2.424-34.201 7.423-41.92 5.187-8.009 11.184-11.72 18.693-23.955 5.592-9.112 8.644-17.445 10.331-22.95 2.542 4.362 15.08 26.9 7.544 54.744-9.224 34.081-40.591 46.808-43.991 48.12z" fill="#89aa3b"/><path d="m194.587 38.172c-10.895 15.913-16.811 36.33-17.783 57.147-2.568-2.764-5.297-5.876-8.333-10.523-5.737-8.78-8.705-17.121-10.331-22.95-2.542 4.362-15.08 26.899-7.544 54.744 9.224 34.081 40.591 57.619 43.992 58.931l13.972-53.464z" fill="#b7c958"/><path d="m231.522 73.084c-1.687 5.505-4.739 13.839-10.331 22.95-3.206 5.224-6.134 8.889-8.844 12.003 1.26-25.045-4.648-50.715-17.76-69.865v137.777c3.401-1.312 35.254-14.039 44.479-48.12 7.536-27.845-5.002-50.382-7.544-54.745z" fill="#89aa3b"/></g><g><path d="m260.737 270.903c-8.055 19.1-12.921 39.512-13.765 60.323-3.051 75.245 44.947 112.864 92.945 112.863l19.801-127.579-19.801-133.052c-27.181-.23-54.39 28.666-79.18 87.445z" fill="#fb735d"/><path d="m432.861 331.22c-.846-20.844-5.739-41.294-13.898-60.383-24.69-57.769-51.855-87.148-79.047-87.378v260.631c48.002-.002 96.002-37.626 92.945-112.87z" fill="#ee4a41"/><path d="m280.112 282.549c-6.084 14.989-9.759 31.008-10.397 47.34-2.305 59.05 33.948 88.573 70.202 88.572l14.956-100.121-14.956-104.416c-20.53-.181-41.081 22.496-59.805 68.625z" fill="#fef7cf"/><path d="m410.118 329.884c-.639-16.358-4.335-32.406-10.497-47.387-18.648-45.336-39.166-68.391-59.704-68.572v204.537c36.255-.002 72.51-29.529 70.201-88.578z" fill="#fee6b7"/><g fill="#555a65"><path d="m309.078 268.258h15v15h-15z"/><path d="m309.078 344.213h15v15h-15z"/><path d="m286.986 306.274h15v15h-15z"/><path d="m332.417 378.189v15h7.5l3.75-7.5-3.75-7.5z"/></g><path d="m339.917 378.189h7.5v15h-7.5z" fill="#333940"/><path d="m332.449 306.274v15h7.5l3.75-7.5-3.75-7.5z" fill="#555a65"/><path d="m339.949 306.274h7.5v15h-7.5z" fill="#333940"/><path d="m332.417 234.282v15h7.5l3.75-7.5-3.75-7.5z" fill="#555a65"/><path d="m339.917 234.282h7.5v15h-7.5z" fill="#333940"/><path d="m355.756 268.258h15v15h-15z" fill="#333940"/><path d="m377.848 306.274h15v15h-15z" fill="#333940"/><path d="m355.756 344.213h15v15h-15z" fill="#333940"/></g></g></svg>