<svg id="Capa_1" enable-background="new 0 0 512 512" height="512" viewBox="0 0 512 512" width="512" xmlns="http://www.w3.org/2000/svg"><g><circle cx="256" cy="256" fill="#b7c958" r="256"/><path d="m417.555 243.131-10.383 10.383-192.333-192.333-29.786 29.786 95.063 95.063-184.967 184.968 140.168 140.168c6.823.546 13.719.834 20.683.834 116.583 0 214.951-77.935 245.88-184.544z" fill="#89aa3b"/><g><path d="m173.992 61.181 5.836 61.038h14.588l7.294-30.231-7.294-30.807z" fill="#d59b8d"/><path d="m214.84 61.181-5.836 61.038h-14.588v-61.038z" fill="#c1877a"/><path d="m194.416 106.327c-38.692-.269-78.939 18.676-114.227 87.438-11.466 22.343-19.909 54.951-21.11 79.296-4.344 88.023 67.014 138.161 135.337 138.16l27.007-152.447z" fill="#9f4ad4"/><path d="m329.753 273.053c-1.205-24.384-9.686-57.035-21.3-79.366-35.145-67.58-75.33-87.09-114.037-87.36v304.894c68.327-.001 139.687-50.145 135.337-138.168z" fill="#8335ba"/></g><g><path d="m242.057 315.791c0 56.77 46.021 102.791 102.791 102.791l12.313-102.791-12.313-102.791c-56.77 0-102.791 46.021-102.791 102.791z" fill="#9f4ad4"/><path d="m447.638 315.791c0-56.77-46.021-102.791-102.791-102.791v205.581c56.77.001 102.791-46.02 102.791-102.79z" fill="#8335ba"/><path d="m262.615 315.791c0 45.416 36.817 82.233 82.233 82.233l7.709-82.233-7.709-82.233c-45.416 0-82.233 36.817-82.233 82.233z" fill="#fef7cf"/><path d="m427.08 315.791c0-45.416-36.817-82.233-82.233-82.233v164.465c45.416.001 82.233-36.816 82.233-82.232z" fill="#fee6b7"/><g fill="#fddf55"><path d="m292.639 326.233h20.883v20.883h-20.883z"/><path d="m292.639 284.466h20.883v20.883h-20.883z"/><path d="m334.406 347.116v20.884h10.442l5.22-10.442-5.22-10.442z"/></g><path d="m344.848 347.116h10.442v20.883h-10.442z" fill="#fcbe50"/><path d="m334.406 305.349v20.884h10.442l5.22-10.442-5.22-10.442z" fill="#fddf55"/><path d="m344.848 305.349h10.442v20.883h-10.442z" fill="#fcbe50"/><path d="m334.406 263.582v20.884h10.442l5.22-10.442-5.22-10.442z" fill="#fddf55"/><path d="m344.848 263.582h10.442v20.883h-10.442z" fill="#fcbe50"/><path d="m376.173 326.233h20.883v20.883h-20.883z" fill="#fcbe50"/><path d="m376.173 284.466h20.883v20.883h-20.883z" fill="#fcbe50"/></g></g></svg>