<svg id="Capa_1" enable-background="new 0 0 512 512" height="512" viewBox="0 0 512 512" width="512" xmlns="http://www.w3.org/2000/svg"><g><circle cx="256" cy="256" fill="#b16ee5" r="256"/><path d="m420.171 186.132-33.466 33.466-65.104-65.104-.834.834-90.966-90.966-26.706 26.706 90.99 90.99-193.723 193.723 135.427 135.427c6.669.521 13.408.792 20.211.792 141.385 0 256-114.615 256-256 0-1.607-.031-3.206-.061-4.806l-90.14-90.14z" fill="#8335ba"/><g><path d="m192.251 64.362 5.365 62.581h13.41l6.705-30.996-6.705-31.585z" fill="#d59b8d"/><path d="m229.8 64.362-5.364 62.581h-13.41v-62.581z" fill="#c1877a"/><path d="m54.569 265.181c0 86.409 70.048 156.457 156.457 156.457l16.945-156.457-16.945-156.457c-86.409.001-156.457 70.049-156.457 156.457z" fill="#fcbe50"/><path d="m367.483 265.181c0-86.409-70.048-156.457-156.457-156.457v312.914c86.409 0 156.457-70.048 156.457-156.457z" fill="#fb9e48"/><path d="m128.284 303.182h20.861v20.861h-20.861z" fill="#fddf55"/><path d="m149.145 282.321h20.861v20.861h-20.861z" fill="#fddf55"/><g fill="#fcbe50"><path d="m251.411 183.205h20.861v20.861h-20.861z" transform="matrix(0 1 -1 0 455.476 -68.206)"/><path d="m272.272 204.065h20.861v20.861h-20.861z" transform="matrix(0 1 -1 0 497.198 -68.206)"/></g></g><g><path d="m210.513 372.129c58.316 58.316 152.865 58.316 211.181 0l-33.421-53.67-28.691-8.442-130.435 43.478z" fill="#fcbe50"/><path d="m421.694 160.948-18.634 18.634-43.478 130.435 62.112 62.112c58.316-58.316 58.316-152.865 0-211.181z" fill="#fb9e48"/><path d="m331.886 282.321c-38.097 38.097-77.149 59.552-102.739 71.175 48.025 48.025 125.889 48.025 173.914 0l-29.591-49.841z" fill="#fddf55"/><path d="m403.06 179.582c-11.623 25.59-33.077 64.641-71.175 102.739l71.175 71.175c48.025-48.025 48.025-125.889 0-173.914z" fill="#fcbe50"/></g></g></svg>