<svg id="Capa_1" enable-background="new 0 0 512 512" height="512" viewBox="0 0 512 512" width="512" xmlns="http://www.w3.org/2000/svg"><g><circle cx="256" cy="256" fill="#fee6b7" r="256"/><path d="m396.626 115.307-289.583 289.583 102.987 102.987c14.914 2.704 30.276 4.123 45.97 4.123 141.385 0 256-114.615 256-256 0-15.694-1.419-31.056-4.124-45.97l-102.987-102.987z" fill="#fdca86"/><path d="m359.335 107.077c-.141.141-.272.288-.41.431-57.02-30.115-140.618-11.366-201.7 49.717s-79.832 144.68-49.717 201.7c-.143.138-.29.269-.431.41-12.589 12.589-12.589 33 0 45.589l169.528-128.319 128.319-169.528c-12.59-12.589-33-12.589-45.589 0z" fill="#b7c958"/><path d="m152.665 404.923c.141-.141.272-.288.41-.431 57.02 30.115 140.618 11.366 201.7-49.717s79.832-144.68 49.717-201.7c.143-.138.29-.269.431-.41 12.589-12.589 12.589-33 0-45.589l-297.846 297.847c12.589 12.589 32.999 12.589 45.588 0z" fill="#89aa3b"/></g></svg>