<svg id="Capa_1" enable-background="new 0 0 512 512" height="512" viewBox="0 0 512 512" width="512" xmlns="http://www.w3.org/2000/svg"><g><circle cx="256" cy="256" fill="#fddf55" r="256"/><path d="m380.689 142.267-103.544-103.544-35.7 35.7 50.21 50.21-194.092 194.092 57.318 57.318-27.891 27.891 107.125 107.125c7.215.611 14.511.941 21.885.941 138.233 0 250.856-109.566 255.81-246.589l-127.133-127.133z" fill="#fcbe50"/><path d="m234.855 38.723 6.041 81.359h15.104l7.552-40.296-7.552-41.063z" fill="#d59b8d"/><path d="m277.145 38.723-6.041 81.359h-15.104v-81.359z" fill="#c1877a"/><ellipse cx="175.005" cy="186.218" fill="#fb735d" rx="62.5" ry="67.615"/><circle cx="336.995" cy="186.218" fill="#ee4a41" r="67.615"/><path d="m188.5 159.714c0-37.279 30.221-67.5 67.5-67.5l10.355 67.5-10.355 67.5c-37.279 0-67.5-30.221-67.5-67.5z" fill="#ee4a41"/><path d="m323.5 159.714c0 37.279-30.221 67.5-67.5 67.5v-135c37.279 0 67.5 30.221 67.5 67.5z" fill="#c82745"/><circle cx="175.005" cy="356.328" fill="#fb735d" r="67.615"/><circle cx="336.995" cy="356.328" fill="#ee4a41" r="67.615"/><path d="m188.5 382.832c0 37.279 30.221 67.5 67.5 67.5l10.355-67.5-10.355-67.5c-37.279 0-67.5 30.22-67.5 67.5z" fill="#ee4a41"/><path d="m323.5 382.832c0-37.279-30.221-67.5-67.5-67.5v135c37.279 0 67.5-30.221 67.5-67.5z" fill="#c82745"/><circle cx="145.349" cy="271.051" fill="#ee4a41" r="67.5"/><circle cx="366.651" cy="271.051" fill="#c82745" r="67.5"/><path d="m183.5 271.051c0 40.041 32.459 72.5 72.5 72.5l11.122-72.5-11.122-72.5c-40.041 0-72.5 32.46-72.5 72.5z" fill="#c82745"/><path d="m328.5 271.051c0-40.041-32.459-72.5-72.5-72.5v145c40.041 0 72.5-32.459 72.5-72.5z" fill="#930725"/></g></svg>