<svg id="Capa_1" enable-background="new 0 0 512 512" height="512" viewBox="0 0 512 512" width="512" xmlns="http://www.w3.org/2000/svg"><g><circle cx="256" cy="256" fill="#fb735d" r="256"/><path d="m408.391 199.945-22.593 22.593-95.562-95.562-5.768 5.768-72.952-72.952-24.045 24.045 83.447 83.447-169.162 169.162 174.737 174.737c117.163-9.281 212.11-97.44 231.758-211.377z" fill="#ee4a41"/><g><path d="m180.235 59.792 4.469 54.562h11.171l5.586-27.024-5.586-27.538z" fill="#d59b8d"/><path d="m211.515 59.792-4.468 54.562h-11.172v-54.562z" fill="#c1877a"/><path d="m195.875 92.676-34.769-1.48-29.228 18.837-30.365 16.945-14.891 31.44-17.36 30.144 2.289 34.749-1.122 39.85 17.975 35.656 13.353 37.63 29.3 27.074 27 29.381 37.818 16.697 15.64-161.913z" fill="#b7c958"/><g fill="#89aa3b"><path d="m260.694 363.521 29.299-27.073 13.354-37.63 17.974-35.658-1.122-39.849 2.29-34.748-17.36-30.145-14.892-31.44-30.365-16.945-29.227-18.837-34.77 1.48v316.923l37.818-16.697z"/><path d="m127.36 200.7-12.5 25-12.5-25z"/><path d="m175.637 133.61-12.5 25-12.5-25z"/><path d="m180.663 250.398-12.5 25-12.5-25z"/><path d="m157.349 313.407-12.5 25-12.5-25z"/></g><path d="m229.472 348.133-12.5 25-12.5-25z" fill="#5f8727"/><path d="m232.142 192.136-12.5 25-12.5-25z" fill="#5f8727"/><path d="m263.918 131.908-12.5 25-12.5-25z" fill="#5f8727"/></g><g><path d="m333.277 169.499c-61.296 0-107.986 48.488-107.456 112.804.508 61.677 44.431 138.465 107.456 153.905l15.935-146.463z" fill="#b7c958"/><path d="m440.734 282.303c.53-64.316-46.161-112.804-107.456-112.804v266.709c63.025-15.44 106.948-92.228 107.456-153.905z" fill="#89aa3b"/><path d="m333.278 196.733c-48.778 0-85.933 38.586-85.512 89.767.404 49.081 35.357 110.187 85.511 122.474l12.681-116.552z" fill="#fef7cf"/><path d="m418.789 286.5c.422-51.182-36.734-89.767-85.512-89.767v212.241c50.155-12.286 85.108-73.393 85.512-122.474z" fill="#fee6b7"/><g fill="#555a65"><path d="m311.442 293.849c-17.386-1.28-30.443 11.777-29.163 29.163 17.386 1.279 30.442-11.777 29.163-29.163z"/><path d="m305.545 256.114c-14.417-9.801-32.253-5.022-39.838 10.674 14.418 9.802 32.253 5.023 39.838-10.674z"/><path d="m333.341 369.108c-13.198-11.389-13.198-29.854 0-41.243l2.46 20.622z"/></g><path d="m333.341 369.108c13.198-11.389 13.198-29.854 0-41.243z" fill="#333940"/><path d="m355.241 293.849c17.386-1.28 30.443 11.777 29.163 29.163-17.386 1.279-30.443-11.777-29.163-29.163z" fill="#333940"/><path d="m361.137 256.114c14.417-9.801 32.253-5.022 39.838 10.674-14.417 9.802-32.253 5.023-39.838-10.674z" fill="#333940"/></g></g></svg>