<svg id="Capa_1" enable-background="new 0 0 512 512" height="512" viewBox="0 0 512 512" width="512" xmlns="http://www.w3.org/2000/svg"><g><circle cx="256" cy="256" fill="#b7c958" r="256"/><path d="m354.27 141.514-76.533-76.533-34.484 34.484 32.328 32.328-185.992 185.991 73.081 73.081-19.783 19.783 101.061 101.061c3.995.186 8.011.291 12.052.291 136.924 0 248.739-107.497 255.659-242.7l-142.588-142.587z" fill="#89aa3b"/><path d="m234.262 64.981 6.211 83.639h15.527l7.763-41.425-7.763-42.214z" fill="#d59b8d"/><path d="m277.738 64.981-6.211 83.639h-15.527v-83.639z" fill="#c1877a"/><path d="m256 148.62c-10.604-24.831-35.242-42.236-63.95-42.236-38.39 0-69.51 31.121-69.51 69.51s31.121 69.51 69.51 69.51c28.707 0 53.345-17.405 63.95-42.236l10.663-27.274z" fill="#9f4ad4"/><path d="m319.95 106.384c-28.707 0-53.345 17.405-63.95 42.236v54.549c10.604 24.831 35.242 42.236 63.95 42.236 38.39 0 69.51-31.121 69.51-69.51s-31.121-69.511-69.51-69.511z" fill="#8335ba"/><path d="m256 334.234c-10.604-24.831-35.242-42.236-63.95-42.236-38.39 0-69.51 31.121-69.51 69.51 0 38.39 31.121 69.511 69.51 69.511 28.707 0 53.345-17.405 63.95-42.236l10.663-27.274z" fill="#9f4ad4"/><path d="m319.95 291.998c-28.707 0-53.345 17.405-63.95 42.236v54.549c10.604 24.831 35.242 42.236 63.95 42.236 38.39 0 69.51-31.121 69.51-69.511 0-38.389-31.121-69.51-69.51-69.51z" fill="#8335ba"/><circle cx="138.808" cy="268.701" fill="#8335ba" r="69.51"/><circle cx="373.192" cy="268.701" fill="#6624a0" r="69.51"/><path d="m186.49 268.701c0 38.389 31.121 69.511 69.51 69.511l10.663-69.511-10.663-69.51c-38.39 0-69.51 31.121-69.51 69.51z" fill="#b16ee5"/><path d="m325.51 268.701c0-38.39-31.121-69.51-69.51-69.51v139.021c38.39 0 69.51-31.121 69.51-69.511z" fill="#9f4ad4"/></g></svg>