<svg id="Capa_1" enable-background="new 0 0 512 512" height="512" viewBox="0 0 512 512" width="512" xmlns="http://www.w3.org/2000/svg"><g><circle cx="256" cy="256" fill="#fddf55" r="256"/><path d="m298.363 178.078-86.74-86.74-76.042 76.042 123.458 123.458-121.339 121.338 99.11 99.11c6.336.47 12.734.714 19.19.714 141.385 0 256-114.615 256-256 0-10.647-.662-21.139-1.924-31.445l-129.095-129.095z" fill="#fcbe50"/><g><path d="m341.66 90.437c-42.985 19.787-70.178 92.406-70.178 92.406-38.348 89.775-69.831 190.163-23.28 231.039 7.235 6.353 16.193 11.042 25.727 13.809l61.337-158.145 30.046-182.901c-10.537-2.226-19.865 2.049-23.652 3.792z" fill="#d59b8d"/><path d="m306.023 429.376c60.752-12.125 76.874-115.869 95.358-211.726 0 0 12.759-76.487-14.573-115.115-2.52-3.561-8.895-12.571-20.027-15.553-.493-.132-.981-.232-1.469-.335l-91.383 341.046c10.498 3.045 21.695 3.758 32.094 1.683z" fill="#c1877a"/><path d="m339.66 126.356c-29.489 16.792-50.033 74.317-50.033 74.317-28.574 71.264-52.87 150.595-22.891 181.032 4.66 4.731 10.528 8.108 16.844 9.968l46.16-125.341 25.923-143.678c-7.006-1.406-13.405 2.223-16.003 3.702z" fill="#fef7cf"/><path d="m305.081 391.98c41.181-11.37 55.267-92.838 70.691-168.224 0 0 10.971-60.09-6.171-89.377-1.58-2.7-5.579-9.531-12.961-11.509-.327-.088-.652-.15-.976-.215l-72.084 269.019c6.954 2.048 14.452 2.252 21.501.306z" fill="#fee6b7"/><path d="m325.754 203.106-27.843 103.909 7.793 2.088 17.813-50.891 10.03-53.018z" fill="#fee6b7"/><path d="m269.735 254.159h107.575v8.068h-107.575z" fill="#fdca86" transform="matrix(.259 -.966 .966 .259 -9.607 503.866)"/></g><g><path d="m160.425 87.266c-36.399 30.238-43.87 107.421-43.87 107.421-13.806 96.642-18.233 201.757 37.31 229.192 8.633 4.264 18.499 6.474 28.424 6.68l18.316-168.631-18.316-184.446c-10.754.576-18.658 7.12-21.864 9.784z" fill="#d59b8d"/><g fill="#c1877a"><path d="m213.725 423.879c55.544-27.436 44.266-131.818 37.31-229.192 0 0-7.472-77.183-43.87-107.421-3.355-2.787-11.845-9.84-23.37-9.84-.511 0-1.008.03-1.506.057v353.077c10.929.225 21.929-1.985 31.436-6.681z"/><path d="m157.736 188.181v-15.998h-16.136v21.524l12.222 15.752v26.458h16.137v-31.984z"/><path d="m145.514 307.078v-15.998h-16.137v21.524l12.223 15.752v26.458h16.136v-31.984z"/></g><path d="m224.421 256.456v-15.998h-16.136v21.524l12.222 15.752v26.458h16.136v-31.983z" fill="#a35d50"/></g></g></svg>