<svg id="Capa_1" enable-background="new 0 0 512 512" height="512" viewBox="0 0 512 512" width="512" xmlns="http://www.w3.org/2000/svg"><g><circle cx="256" cy="256" fill="#b16ee5" r="256"/><path d="m335.242 84.977 3.501 41.555-58.505-58.505-60.214 60.214-43.264-43.264 2.74 63.438 118.824 118.825-149.692 149.693 94.756 94.756c4.179.202 8.383.311 12.612.311 139.491 0 252.915-111.568 255.928-250.337z" fill="#8335ba"/><path d="m166.566 172.248c-9.098 27.366-14.594 56.613-15.547 86.431-3.447 107.81 50.767 161.712 104.981 161.711l32.096-186.716-32.096-186.716c-.004.003-61.435 41.075-89.434 125.29z" fill="#b7c958"/><path d="m360.981 258.67c-.956-29.865-6.482-59.166-15.697-86.517-27.888-82.772-89.284-125.195-89.284-125.195v373.432c54.217-.002 108.433-53.91 104.981-161.72z" fill="#89aa3b"/><path d="m256 314.382-79.241-229.405c-20.207 22.081-40.211 49.94-54.438 83.676-13.6 32.246-21.814 66.708-23.238 101.843-5.152 127.035 75.883 190.548 156.918 190.547h.001l37.426-87.73z" fill="#fee6b7"/><path d="m256 314.382 79.241-229.404c20.207 22.081 40.211 49.94 54.438 83.676 13.6 32.246 21.814 66.708 23.238 101.843 5.152 127.035-75.883 190.548-156.918 190.547 0 0 0 0-.001 0v-146.662z" fill="#fdca86"/></g></svg>