<svg id="Capa_1" enable-background="new 0 0 512 512" height="512" viewBox="0 0 512 512" width="512" xmlns="http://www.w3.org/2000/svg"><g><circle cx="256" cy="256" fill="#fee6b7" r="256"/><path d="m364.11 222.864-132.286-132.286-119.963 119.964 113.234 113.234-94.866 94.866 90.997 90.997c11.373 1.546 22.978 2.361 34.774 2.361 141.385 0 256-114.615 256-256 0-4.96-.156-9.883-.435-14.774l-82.909-82.909z" fill="#fdca86"/><g><path d="m283.322 275.815c26.012-26.012 26.438-59.514 26.259-65.966-1.07-38.576 29.338-70.717 67.916-71.785s70.717 29.338 71.785 67.916c.398 14.37-.599 37.154-7.609 64.093-10.364 39.825-30.949 75.982-59.531 104.564l-65.592-43.585z" fill="#c1877a"/><path d="m213.486 441.776c-38.577-1.069-68.984-33.208-67.916-71.785 1.069-38.58 33.208-68.984 71.785-67.916 6.452.179 39.953-.247 65.966-26.26l98.821 98.821c-28.582 28.581-64.738 49.166-104.563 59.53-26.939 7.011-49.723 8.008-64.093 7.61z" fill="#a35d50"/><path d="m322.439 314.932c40.986-40.986 42.847-91.966 42.441-106.615-.224-8.036 6.113-14.732 14.149-14.955s14.733 6.112 14.955 14.149c.487 17.588-1.747 78.798-50.958 128.008l-16.102-3.066z" fill="#d59b8d"/><path d="m215.018 386.478c-8.037-.223-14.372-6.919-14.149-14.955.223-8.038 6.919-14.372 14.955-14.149 14.649.406 65.628-1.455 106.615-42.441l20.588 20.588c-49.211 49.209-110.421 51.444-128.009 50.957z" fill="#c1877a"/></g><g><path d="m202.397 255.999c0-36.787 23.388-60.778 28.077-65.213 28.034-26.521 29.259-70.75 2.736-98.784s-70.75-29.259-98.784-2.736c-10.442 9.88-25.849 26.695-39.941 50.701-20.832 35.489-31.843 75.612-31.843 116.032v.001l77.2 15.561 62.555-15.562c0 .001 0 .001 0 0z" fill="#d59b8d"/><g fill="#c1877a"><path d="m134.426 422.734c28.034 26.522 72.261 25.298 98.784-2.736 26.524-28.036 25.298-72.261-2.736-98.784-4.689-4.436-28.076-28.426-28.077-65.214h-139.755c0 40.42 11.011 80.543 31.843 116.032 14.093 24.006 29.499 40.822 39.941 50.702z"/><path d="m190.383 134.726v-15.999h-16.136v21.525l12.222 15.752v26.458h16.137v-31.984z"/><path d="m125.109 186.29v-15.998h-16.136v21.523l12.222 15.753v26.457h16.136v-31.983z"/></g><path d="m170.195 318.566v-15.998h-16.136v21.524l12.222 15.752v26.458h16.136v-31.984z" fill="#a35d50"/></g></g></svg>