<svg id="Capa_1" enable-background="new 0 0 512 512" height="512" viewBox="0 0 512 512" width="512" xmlns="http://www.w3.org/2000/svg"><g><circle cx="256" cy="256" fill="#fb735d" r="256"/><path d="m430.921 211.533-22.64 22.64-89.744-89.744-.834.834-90.902-90.902-31.762 31.762 90.972 90.972-188.667 188.668 145.921 145.921c4.219.206 8.464.316 12.735.316 129.747 0 236.934-96.528 253.704-221.684z" fill="#ee4a41"/><g><path d="m189.251 54.362 5.365 62.581h13.41l6.705-30.996-6.705-31.585z" fill="#89aa3b"/><path d="m226.8 54.362-5.364 62.581h-13.41v-62.581z" fill="#5f8727"/><path d="m51.569 255.181c0 86.409 70.048 156.457 156.457 156.457l16.945-156.457-16.945-156.456c-86.409 0-156.457 70.048-156.457 156.456z" fill="#b16ee5"/><path d="m364.483 255.181c0-86.409-70.048-156.457-156.457-156.457v312.914c86.409 0 156.457-70.048 156.457-156.457z" fill="#9f4ad4"/><path d="m208.026 86.317c-37.281-16.895-68.491 2.473-70.545 44.782 16.138 8.301 31.303 9.856 43.685 5.725 2.509 12.929 11.445 25.439 26.86 35.366l9.387-45.978z" fill="#b7c958"/><path d="m208.026 86.317v85.873c15.415-9.927 24.352-22.437 26.86-35.366 12.382 4.131 27.547 2.576 43.685-5.725-2.054-42.309-33.264-61.676-70.545-44.782z" fill="#89aa3b"/></g><g><path d="m226.971 296.082c0 65.998 53.502 119.5 119.5 119.5l14.315-119.5-14.315-119.5c-65.998 0-119.5 53.502-119.5 119.5z" fill="#b16ee5"/><path d="m465.971 296.082c0-65.998-53.502-119.5-119.5-119.5v239c65.998 0 119.5-53.502 119.5-119.5z" fill="#9f4ad4"/><path d="m312.972 238.25c-16.039-9.037-36.401-3.5-45.628 12.482-9.096 15.756-3.989 35.805 11.339 45.349-15.328 9.544-20.435 29.594-11.339 45.349 9.227 15.982 29.589 21.519 45.628 12.482 1.484 17.204 15.91 30.708 33.498 30.708l22.189-88.539-22.189-88.539c-17.588.001-32.014 13.504-33.498 30.708z" fill="#fef7cf"/><path d="m379.969 353.913c16.039 9.036 36.4 3.5 45.627-12.482 9.097-15.756 3.989-35.805-11.339-45.349 15.328-9.544 20.436-29.594 11.339-45.349-9.227-15.982-29.588-21.519-45.627-12.482-1.484-17.204-15.91-30.707-33.499-30.707v177.078c17.589-.001 32.015-13.505 33.499-30.709z" fill="#fee6b7"/></g></g></svg>