<svg id="Capa_1" enable-background="new 0 0 512 512" height="512" viewBox="0 0 512 512" width="512" xmlns="http://www.w3.org/2000/svg"><g><circle cx="256" cy="256" fill="#fee6b7" r="256"/><path d="m354.611 109.674-12.913 12.913-66.736-66.736-27.841 27.841 18.851 18.851-23.535 23.535 9.372 9.372-140.967 140.967 63.705 63.705-17.258 17.258 68.39 68.39-12.588 12.588 71.988 71.988c124.17-14.042 221.41-116.897 226.677-243.527z" fill="#fdca86"/><path d="m237.036 55.851 5.418 72.967h13.546l6.773-36.14-6.773-36.827z" fill="#d59b8d"/><path d="m274.964 55.851-5.418 72.967h-13.546v-72.967z" fill="#c1877a"/><path d="m256 128.818c-9.251-21.663-30.745-36.847-55.79-36.847-33.491 0-60.641 27.15-60.641 60.641s27.15 60.641 60.641 60.641c25.044 0 46.539-15.184 55.79-36.847l9.303-23.794z" fill="#89aa3b"/><path d="m311.79 91.971c-25.044 0-46.539 15.184-55.79 36.847v47.588c9.251 21.663 30.745 36.847 55.79 36.847 33.491 0 60.641-27.15 60.641-60.641s-27.15-60.641-60.641-60.641z" fill="#5f8727"/><path d="m195.359 395.508c0 33.491 27.15 60.641 60.641 60.641l9.303-60.641-9.303-60.641c-33.491 0-60.641 27.15-60.641 60.641z" fill="#b7c958"/><path d="m316.641 395.508c0-33.491-27.15-60.641-60.641-60.641v121.282c33.491 0 60.641-27.15 60.641-60.641z" fill="#89aa3b"/><path d="m256 290.748c-9.251-21.663-30.745-36.847-55.79-36.847-33.491 0-60.641 27.15-60.641 60.641s27.15 60.641 60.641 60.641c25.044 0 46.539-15.184 55.79-36.847l9.303-23.794z" fill="#89aa3b"/><path d="m311.79 253.902c-25.044 0-46.539 15.184-55.79 36.847v47.588c9.251 21.663 30.745 36.847 55.79 36.847 33.491 0 60.641-27.15 60.641-60.641 0-33.492-27.15-60.641-60.641-60.641z" fill="#5f8727"/><circle cx="153.762" cy="233.577" fill="#5f8727" r="60.641"/><circle cx="358.238" cy="233.577" fill="#4c6d18" r="60.641"/><path d="m195.359 233.577c0 33.491 27.15 60.641 60.641 60.641l9.303-60.641-9.303-60.641c-33.491 0-60.641 27.15-60.641 60.641z" fill="#b7c958"/><path d="m316.641 233.577c0-33.491-27.15-60.641-60.641-60.641v121.282c33.491.001 60.641-27.15 60.641-60.641z" fill="#89aa3b"/></g></svg>