<svg id="Capa_1" enable-background="new 0 0 512 512" height="512" viewBox="0 0 512 512" width="512" xmlns="http://www.w3.org/2000/svg"><g><circle cx="256" cy="256" fill="#fddf55" r="256"/><path d="m346.515 199.369-98.2-98.2-100.87 100.871 77.52 77.52-112.103 112.104 119.215 119.215c7.877.729 15.854 1.121 23.923 1.121 141.385 0 256-114.615 256-256 0-8.367-.415-16.636-1.199-24.797l-98.059-98.059z" fill="#fcbe50"/><g><path d="m180.691 73.044c-52.881.001-95.751 42.862-95.751 95.743 0 16.162 4.005 31.388 11.077 44.741 10.895 20.573 11.133 45.142.163 65.676-7.323 13.706-11.408 29.403-11.234 46.069.54 51.705 42.68 94 94.383 94.72.456.006.909.002 1.363.002h.002l38.299-178.703c-.002-.001-38.301-168.248-38.302-168.248z" fill="#d59b8d"/><g fill="#c1877a"><path d="m276.442 324.251c0-16.162-4.005-31.388-11.077-44.741-10.895-20.573-11.133-45.143-.163-65.676 7.323-13.706 11.408-29.403 11.234-46.069-.539-51.705-42.68-94.001-94.383-94.72-.455-.006-.908-.002-1.362-.002v346.95c52.882-.001 95.751-42.861 95.751-95.742z"/><path d="m150.612 164.673v-15.68h-15.815v21.096l11.979 15.439v25.931h15.815v-31.347z"/><path d="m138.632 281.203v-15.68h-15.815v21.096l11.98 15.439v25.931h15.815v-31.347z"/></g><path d="m215.969 231.589v-15.679h-15.815v21.095l11.979 15.439v25.931h15.815v-31.347z" fill="#a35d50"/></g><g><path d="m370.1 108.546c-51.079-13.685-103.581 16.619-117.268 67.698-4.183 15.611-4.255 31.355-.88 46.083 5.199 22.692-.93 46.485-16.841 63.479-10.621 11.344-18.629 25.448-22.775 41.591-12.861 50.082 16.896 101.843 66.651 115.919.438.124.877.237 1.316.354h.002l83.245-162.7c0 .002 6.55-172.423 6.55-172.424z" fill="#d59b8d"/><path d="m397.571 375.973c4.183-15.611 4.255-31.355.88-46.083-5.199-22.692.93-46.485 16.841-63.479 10.621-11.344 18.629-25.448 22.775-41.591 12.861-50.082-16.896-101.843-66.651-115.919-.438-.124-.876-.237-1.315-.354l-89.796 335.125c51.078 13.684 103.58-16.621 117.266-67.699z" fill="#c1877a"/><path d="m363.782 132.125c-37.369-10.012-77.195 17.445-88.956 61.337-3.594 13.415-4.15 26.811-2.123 39.232 3.124 19.139-2.172 39.576-14.491 54.542-8.223 9.99-14.601 22.244-18.184 36.11-11.118 43.017 9.254 86.102 45.63 96.488.32.091.642.173.963.259h.001l66.807-141.072s10.353-146.896 10.353-146.896z" fill="#fee6b7"/><path d="m375.577 358.756c3.594-13.415 4.15-26.81 2.123-39.232-3.124-19.139 2.173-39.576 14.491-54.542 8.223-9.99 14.601-22.244 18.184-36.11 11.118-43.017-9.254-86.102-45.63-96.488-.32-.091-.641-.173-.962-.259l-77.161 287.968c37.369 10.011 77.194-17.446 88.955-61.337z" fill="#fdca86"/><path d="m299.434 199.323c-8.248 30.78 4.425 60.92 28.305 67.318l22.468-53.714 7.399-57.752c-23.879-6.398-49.924 13.367-58.172 44.148z" fill="#d59b8d"/><path d="m385.912 222.494c8.248-30.78-4.425-60.92-28.305-67.319l-29.867 111.466c23.88 6.399 49.924-13.366 58.172-44.147z" fill="#c1877a"/><path d="m264.494 329.722c-8.248 30.78 4.425 60.92 28.305 67.319l22.468-53.714 7.399-57.752c-23.88-6.398-49.924 13.367-58.172 44.147z" fill="#d59b8d"/><path d="m350.971 352.894c8.248-30.78-4.425-60.92-28.305-67.319l-29.867 111.465c23.88 6.399 49.925-13.366 58.172-44.146z" fill="#c1877a"/></g></g></svg>