<svg id="Capa_1" enable-background="new 0 0 512 512" height="512" viewBox="0 0 512 512" width="512" xmlns="http://www.w3.org/2000/svg"><g><circle cx="256" cy="256" fill="#b7c958" r="256"/><path d="m293.863 112.659-2.793 2.793-54.896-54.896-121.83 121.83 111.253 111.254-89.389 89.389 128.797 128.797c114.527-3.961 209.928-83.139 238.348-189.676z" fill="#89aa3b"/><g><path d="m185 81.809c0 .186.011.369.014.553-57.34 17.705-100.014 85.055-100.014 165.447s42.674 147.742 100.014 165.447c-.003.185-.014.368-.014.553 0 16.569 13.431 30 30 30l27.118-196-27.118-196c-16.569 0-30 13.431-30 30z" fill="#fcbe50"/><path d="m245 413.809c0-.186-.011-.369-.014-.553 57.34-17.706 100.014-85.056 100.014-165.447s-42.674-147.742-100.014-165.447c.003-.185.014-.368.014-.553 0-16.569-13.431-30-30-30v392c16.569 0 30-13.432 30-30z" fill="#fb9e48"/></g><g><path d="m239.488 315.791c0 56.77 46.021 102.791 102.791 102.791l12.313-102.791-12.313-102.791c-56.77 0-102.791 46.021-102.791 102.791z" fill="#fcbe50"/><path d="m445.07 315.791c0-56.77-46.021-102.791-102.791-102.791v205.581c56.77.001 102.791-46.02 102.791-102.79z" fill="#fb9e48"/><path d="m260.046 315.791c0 45.416 36.817 82.233 82.233 82.233l7.709-82.233-7.709-82.233c-45.416 0-82.233 36.817-82.233 82.233z" fill="#fddf55"/><path d="m424.512 315.791c0-45.416-36.817-82.233-82.233-82.233v164.465c45.416.001 82.233-36.816 82.233-82.232z" fill="#fcbe50"/><path d="m334.57 227.961v69.218l-48.945-48.944-10.902 10.902 48.944 48.945h-69.218v15.418h69.218l-48.944 48.945 10.902 10.902 48.945-48.944v69.218h7.709l6.356-87.83-6.356-87.83z" fill="#fcbe50"/><path d="m349.988 334.403 48.945 48.944 10.902-10.902-48.944-48.945h69.218v-15.418h-69.218l48.944-48.945-10.902-10.902-48.945 48.944v-69.218h-7.709v175.66h7.709z" fill="#fb9e48"/></g></g></svg>