<svg id="Capa_1" enable-background="new 0 0 512 512" height="512" viewBox="0 0 512 512" width="512" xmlns="http://www.w3.org/2000/svg"><g><circle cx="256" cy="256" fill="#b16ee5" r="256"/><path d="m353.793 173.561-14.784 14.784-128.924-128.925-22.832 22.832 47.546 47.546-67.904 67.903 79.398 79.398-113.524 113.525 121.352 121.352c.627.005 1.251.024 1.879.024 118.231 0 217.724-80.157 247.146-189.086z" fill="#8335ba"/><g><path d="m178.508 59.42 4.511 59.138h11.279l5.639-29.29-5.639-29.848z" fill="#d59b8d"/><path d="m210.087 59.42-4.511 59.138h-11.279v-59.138z" fill="#c1877a"/><path d="m135.279 163.105c0 .492.004.982.012 1.471.411 24.255-6.37 47.743-18.429 67.182-11.584 18.673-18.614 41.676-19.112 66.628-1.282 64.329 41.714 118.174 95.169 119.07.461.008.918.002 1.377.002l15.385-162.688-15.385-162.69c-32.592.002-59.017 31.794-59.017 71.025z" fill="#b7c958"/><path d="m290.872 301.227c0-26.903-7.594-51.669-20.342-71.366-12.022-18.575-17.606-41.812-17.226-65.353.028-1.702.005-3.42-.069-5.15-1.554-36.268-26.082-65.591-56.224-67.216-.91-.049-1.813-.061-2.713-.061v325.378c53.335-.002 96.574-52.035 96.574-116.232z" fill="#89aa3b"/></g><g><path d="m271.146 220.354c0 .421.004.84.011 1.259.352 20.754-5.451 40.851-15.769 57.484-9.911 15.977-15.927 35.659-16.353 57.01-1.097 55.043 35.692 101.114 81.431 101.881.394.007.786.002 1.179.002l13.164-139.202-13.164-139.204c-27.89 0-50.499 27.202-50.499 60.77z" fill="#b7c958"/><path d="m404.277 338.537c0-23.019-6.498-44.211-17.406-61.064-10.286-15.893-15.064-35.776-14.739-55.919.024-1.457.004-2.926-.059-4.406-1.33-31.032-22.317-56.122-48.108-57.513-.778-.042-1.551-.053-2.322-.053v278.408c45.637-.001 82.634-44.523 82.634-99.453z" fill="#89aa3b"/><path d="m283.391 231.922c0 .359.003.716.008 1.073.266 17.693-4.129 34.826-11.945 49.006-7.508 13.621-12.065 30.4-12.387 48.602-.831 46.924 27.037 86.201 61.685 86.855.298.006.595.001.893.001l9.972-118.672-9.972-118.673c-21.127.001-38.254 23.191-38.254 51.808z" fill="#fcbe50"/><path d="m384.24 332.675c0-19.624-4.922-37.69-13.185-52.058-7.792-13.549-11.412-30.499-11.165-47.671.018-1.242.003-2.494-.045-3.756-1.007-26.455-16.906-47.845-36.442-49.03-.59-.036-1.175-.045-1.759-.045v237.345c34.57-.002 62.596-37.957 62.596-84.785z" fill="#fb9e48"/><path d="m314.413 250.453c-2.057 2.491-2.388 6.241-4.16 8.877-1.8 2.676-5.145 4.4-6.651 7.203-1.523 2.836-1.111 6.579-2.334 9.521-1.233 2.968-4.174 5.318-5.102 8.371-.933 3.072.206 6.661-.417 9.794-.625 3.145-3.05 6.025-3.363 9.208-.314 3.188 1.504 6.486 1.504 9.687s-1.817 6.498-1.504 9.687c.313 3.182 2.738 6.062 3.363 9.207.623 3.133-.516 6.722.417 9.794.927 3.053 3.868 5.402 5.102 8.37 1.223 2.942.81 6.685 2.334 9.521 1.506 2.802 4.851 4.526 6.65 7.201 1.772 2.635 2.103 6.386 4.16 8.876 2.019 2.444 4.937 3.193 7.23 5.478l8.768-68.135-8.768-68.135c-2.291 2.282-5.21 3.031-7.229 5.475z" fill="#d59b8d"/><path d="m328.875 375.768c2.057-2.491 2.388-6.241 4.16-8.877 1.8-2.676 5.145-4.4 6.651-7.203 1.524-2.836 1.111-6.579 2.334-9.521 1.233-2.969 4.174-5.318 5.102-8.371.933-3.072-.206-6.661.417-9.794.625-3.145 3.05-6.025 3.363-9.208.314-3.188-1.504-6.486-1.504-9.687s1.817-6.498 1.504-9.687c-.313-3.182-2.738-6.062-3.363-9.207-.623-3.133.516-6.722-.417-9.794-.927-3.053-3.868-5.402-5.102-8.37-1.223-2.942-.81-6.685-2.334-9.52-1.506-2.802-4.851-4.526-6.65-7.202-1.772-2.635-2.103-6.386-4.16-8.876-2.019-2.444-4.937-3.193-7.23-5.478v136.27c2.291-2.281 5.21-3.031 7.229-5.475z" fill="#c1877a"/></g></g></svg>