<svg id="Capa_1" enable-background="new 0 0 512 512" height="512" viewBox="0 0 512 512" width="512" xmlns="http://www.w3.org/2000/svg"><g><circle cx="256" cy="256" fill="#b7c958" r="256"/><path d="m354.162 155.39-20.757 20.757-102.369-102.367-28.352 28.352 60.878 60.878-151.846 151.847 192.574 192.575c101.432-19.366 181.63-98.567 202.431-199.482z" fill="#89aa3b"/><g><path d="m197.741 73.78 4.757 62.357h11.892l5.946-30.885-5.946-31.472z" fill="#d59b8d"/><path d="m231.039 73.78-4.757 62.357h-11.892v-62.357z" fill="#c1877a"/><path d="m202.334 116.63-15.506-1.758-13.667-7.54-15.268 3.225-32.682 2.76-25.56 20.713-25.033 21.361-11.109 30.918-4.403 47.473 24.944 41.389 27.663 39.685 38.177 29.9 12.678 15.993 18.632 8.321 14.617 14.241 18.573 5.662 19.376-152.611-19.376-108.177z" fill="#ee4a41"/><path d="m247.581 369.069 18.63-8.319 12.679-15.994 38.176-29.9 27.662-39.683 24.945-41.39-4.403-47.474-11.108-30.918-25.033-21.36-25.56-20.714-32.682-2.76-15.268-3.225-13.668 7.54-15.503 1.757-12.058 11.557v-.001 260.788l18.577-5.664z" fill="#c82745"/></g><g><path d="m324.383 229.071-11.908-1.351-10.495-5.79-11.726 2.476-25.098 2.12-19.629 15.907-19.225 16.404-8.531 23.744-3.381 36.458 19.156 31.785 21.244 30.476 29.318 22.963 9.736 12.282 14.309 6.39 11.226 10.937 14.263 4.348 18.626-114.577-18.626-85.698z" fill="#fb735d"/><path d="m359.131 422.934 14.308-6.388 9.736-12.283 29.319-22.963 21.243-30.474 19.157-31.786-3.381-36.459-8.531-23.744-19.225-16.404-19.629-15.906-25.098-2.121-11.725-2.476-10.498 5.79-11.905 1.35-9.26 8.875v200.275l14.266-4.35z" fill="#ee4a41"/><path d="m302.84 250.164c-26.407.584-46.399 24.167-52.484 43.194-11.907 37.236 31.155 75.136 47.387 89.901 13.454 12.238 26.489 20.126 35.899 25.036l15.018-85.126-15.018-63.143c-5.38-3.725-16.455-10.179-30.802-9.862z" fill="#fef7cf"/><path d="m369.541 383.26c16.232-14.765 59.294-52.666 47.387-89.901-6.084-19.027-26.077-42.61-52.484-43.194-14.348-.317-25.422 6.136-30.802 9.863v148.268c9.41-4.909 22.445-12.798 35.899-25.036z" fill="#fee6b7"/><path d="m333.642 366.239c-25.023-21.53-25.023-56.436 0-77.965l4.664 38.983z" fill="#555a65"/><path d="m333.642 366.239c25.023-21.53 25.023-56.436 0-77.965z" fill="#333940"/></g></g></svg>