<svg id="Capa_1" enable-background="new 0 0 512 512" height="512" viewBox="0 0 512 512" width="512" xmlns="http://www.w3.org/2000/svg"><g><circle cx="256" cy="256" fill="#fb735d" r="256"/><path d="m406.535 242.121-14.812 14.812-98.964-98.964-125.648 125.649.13.131-69.435 69.435 158.809 158.809c113.505-.268 209.639-74.406 242.907-176.884z" fill="#ee4a41"/><g><path d="m195.097 72.697c-18.487 25.967-41.95 48.133-69.419 64.306-40.219 23.679-67.383 67.157-68.086 117.038-1.075 76.291 60.725 139.476 137.021 140.017.335.002.667-.006 1.001-.006l24.196-138.027-24.196-184.056z" fill="#c1877a"/><path d="m333.65 256.025c0-50.062-26.652-93.892-66.54-118.09-27.732-16.824-52.074-38.684-70.886-65.108l-.611-.857v322.082c76.235-.001 138.037-61.793 138.037-138.027z" fill="#a35d50"/><g fill="#d59b8d"><path d="m94.416 198.536h25v25h-25z"/><path d="m94.416 252.843h25v25h-25z"/><path d="m147.249 211.036h25v25h-25z"/></g></g><g><path d="m223.421 318.531c0 59.371 48.129 107.5 107.5 107.5l12.721-107.5-12.721-107.5c-59.37 0-107.5 48.129-107.5 107.5z" fill="#c1877a"/><path d="m438.421 318.531c0-59.371-48.129-107.5-107.5-107.5v215c59.371 0 107.5-48.13 107.5-107.5z" fill="#a35d50"/><path d="m240.921 318.531c0 49.706 40.294 90 90 90l9.479-90-9.479-90c-49.705 0-90 40.294-90 90z" fill="#fef7cf"/><path d="m420.921 318.531c0-49.706-40.294-90-90-90v180c49.706 0 90-40.295 90-90z" fill="#fee6b7"/><path d="m265.921 318.531c0 35.899 29.101 65 65 65l9.128-64.096-9.128-65.904c-35.898 0-65 29.101-65 65z" fill="#fee6b7"/><path d="m395.921 318.531c0-35.899-29.101-65-65-65v130c35.899 0 65-29.102 65-65z" fill="#fdca86"/></g></g></svg>