<svg id="Capa_1" enable-background="new 0 0 512 512" height="512" viewBox="0 0 512 512" width="512" xmlns="http://www.w3.org/2000/svg"><g><circle cx="256" cy="256" fill="#fee6b7" r="256"/><path d="m387.518 138.719-55.734 55.734-81.531-81.531-2.952 2.952-51.922-51.922-24.683 24.683 107.027 107.025-153.541 153.54 161.121 161.121c125.278-14.279 223.102-118.967 226.595-247.223z" fill="#fdca86"/><g><path d="m240.093 199.226c-46.552 43.303-41.202 137.715 26.696 230.013 5.627 7.649 13.842 12.921 22.826 15.328l49.072-119.295 23.816-152.729c-48.476-12.99-97.22 3.251-122.41 26.683z" fill="#fb735d"/><path d="m317.046 442.705c104.95-45.984 156.79-125.071 138.126-185.849-10.099-32.888-44.192-71.324-92.669-84.313l-72.889 272.024c8.983 2.407 18.734 1.948 27.432-1.862z" fill="#ee4a41"/><path d="m357.752 130.743-9.041 50.749 10.631 2.848 11.899-23.147 1.394-26.463z" fill="#89aa3b"/><path d="m387.518 138.718-17.546 48.471-10.63-2.849 13.293-49.61z" fill="#5f8727"/><path d="m361.104 177.762c-23.603-28.082-61.87-28.082-85.473 0 17.039 20.272 41.718 25.902 63.007 16.906-10.908 15.098-10.39 35.449 3.627 53.402l14.218-33.868c.001 0 4.621-36.439 4.621-36.44z" fill="#b7c958"/><path d="m361.105 177.763-18.839 70.307c21.115-8.539 31.739-25.905 29.842-44.434 13.939 18.436 38.127 25.9 63.019 16.863-6.401-36.12-39.541-55.255-74.022-42.736z" fill="#89aa3b"/><g fill="#555a65"><path d="m264.695 251.256h15v40h-15z" transform="matrix(.966 .259 -.259 .966 79.481 -61.206)"/><path d="m276.575 326.078h15v40h-15z" transform="matrix(.966 .259 -.259 .966 99.251 -61.732)"/><path d="m329.707 265.961-10.353 38.637 7.245 1.941 8.798-18.348 1.555-20.289z"/></g><path d="m315.397 284.441h40v7.5h-40z" fill="#333940" transform="matrix(.259 -.966 .966 .259 -29.781 537.571)"/><path d="m383.845 283.182h15v40h-15z" fill="#333940" transform="matrix(.966 .259 -.259 .966 91.804 -90.957)"/><path d="m336.15 342.041h15v40h-15z" fill="#333940" transform="matrix(.966 .259 -.259 .966 105.413 -76.607)"/></g><g><path d="m68.637 160.553c-33.758 53.876-4.154 143.686 85.318 215.266 7.415 5.932 16.715 8.898 26.015 8.898l16.525-127.931-16.525-153.689c-50.186 0-93.065 28.303-111.333 57.456z" fill="#fb735d"/><path d="m205.986 375.819c89.473-71.58 119.077-161.39 85.318-215.266-18.267-29.153-61.147-57.456-111.333-57.456v281.62c9.3 0 18.6-2.966 26.015-8.898z" fill="#ee4a41"/><path d="m164.563 63.951 4.402 51.36h11.006l5.502-25.438-5.502-25.922z" fill="#89aa3b"/><path d="m195.379 63.951-4.403 51.36h-11.005v-51.36z" fill="#5f8727"/><path d="m179.971 108.501c-30.067-21.016-67.03-11.112-82.561 22.122 21.705 15.171 47 14.222 65.236.022-6.628 17.407-.861 36.931 17.325 50.643l4.968-36.394c0 .001-4.968-36.393-4.968-36.393z" fill="#b7c958"/><path d="m262.531 130.623c-15.53-33.233-52.494-43.138-82.56-22.122v72.787c18.185-13.713 23.953-33.236 17.325-50.643 18.235 14.2 43.53 15.15 65.235-.022z" fill="#89aa3b"/><g fill="#555a65"><path d="m110.788 201.82h15v40h-15z"/><path d="m141.629 271.018h15v40h-15z"/><path d="m172.471 201.82v40h7.5l3.75-20-3.75-20z"/></g><path d="m179.971 201.82h7.5v40h-7.5z" fill="#333940"/><path d="m234.141 201.82h15v40h-15z" fill="#333940"/><path d="m203.306 271.018h15v40h-15z" fill="#333940"/></g></g></svg>