<svg id="Capa_1" enable-background="new 0 0 512 512" height="512" viewBox="0 0 512 512" width="512" xmlns="http://www.w3.org/2000/svg"><g><circle cx="256" cy="256" fill="#b16ee5" r="256"/><path d="m339.074 141.406-6.09 6.09-6.638-6.638-19.041 19.041-87.661-87.661-26.576 26.576 89.037 89.037-171.415 171.416 152.623 152.623c120.003-3.367 219.338-89.314 243.211-203.034z" fill="#8335ba"/><g><path d="m203.596 126.402c-16.898 0-32.525-1.13-46.657-2.882-33.534-4.158-66.913 10.869-85.243 39.257-10.373 16.065-15.59 35.645-15.59 62.601 0 85.483 62.006 174.682 147.489 174.682l19.835-138.612z" fill="#fcbe50"/><path d="m351.085 225.379c0-26.956-5.217-46.536-15.59-62.601-18.329-28.388-51.708-43.415-85.243-39.257-14.132 1.752-29.759 2.882-46.657 2.882v273.659c85.484-.001 147.49-89.201 147.49-174.683z" fill="#fb9e48"/><path d="m187.546 72.237 4.586 53.498h11.464l5.732-26.497-5.732-27.001z" fill="#89aa3b"/><path d="m219.645 72.237-4.586 53.498h-11.463v-53.498z" fill="#5f8727"/><path d="m203.596 118.357c-32.316-15.336-52.744-13.266-65.622-8.156-10.288 4.082-16.57 10.185-35.814 19.148-13.727 6.393-25.779 9.989-34.041 12.056 3.609 4.824 18.121 23.041 44.324 28.368 31.302 6.364 55.232-10.553 60.846-14.924-8.74 24.939 1.357 52.252 30.307 71.701z" fill="#b7c958"/><path d="m203.596 118.357c32.316-15.336 52.744-13.266 65.622-8.156 10.288 4.082 16.57 10.185 35.814 19.148 13.727 6.393 25.779 9.989 34.041 12.056-3.609 4.824-18.121 23.041-44.324 28.368-31.302 6.364-55.232-10.553-60.846-14.924 8.74 24.939-1.357 52.252-30.307 71.701z" fill="#89aa3b"/></g><g><path d="m245.899 313.996c0 57.753 46.818 104.571 104.571 104.571l12.526-104.571-12.526-104.571c-57.752 0-104.571 46.818-104.571 104.571z" fill="#fcbe50"/><path d="m455.042 313.996c0-57.753-46.818-104.571-104.571-104.571v209.142c57.753 0 104.571-46.818 104.571-104.571z" fill="#fb9e48"/><path d="m266.813 313.996c0 46.203 37.455 83.657 83.657 83.657l10.021-83.657-10.021-83.657c-46.202 0-83.657 37.454-83.657 83.657z" fill="#fddf55"/><path d="m434.128 313.996c0-46.203-37.455-83.657-83.657-83.657v167.315c46.202-.001 83.657-37.455 83.657-83.658z" fill="#fcbe50"/><path d="m316.814 312.073c0-21.896 9.67-39.647 21.598-39.647v79.294c-11.928 0-21.598-17.751-21.598-39.647z" fill="#fcbe50"/><path d="m384.128 312.073c0-21.896-9.67-39.647-21.598-39.647v79.294c11.928 0 21.598-17.751 21.598-39.647z" fill="#fb9e48"/></g></g></svg>