<svg id="Capa_1" enable-background="new 0 0 512 512" height="512" viewBox="0 0 512 512" width="512" xmlns="http://www.w3.org/2000/svg"><g><circle cx="256" cy="256" fill="#fddf55" r="256"/><path d="m384.552 213.438-15.652 15.652-163.727-163.728-25.799 25.799 112.756 112.756-166.959 166.959 140.908 140.908c111.218-4.308 204.22-79.554 235.042-181.778z" fill="#fcbe50"/><g><path d="m171.784 65.362 4.77 50.812h11.924l5.963-25.167-5.963-25.645z" fill="#d59b8d"/><path d="m205.173 65.362-4.77 50.812h-11.925v-50.812z" fill="#c1877a"/><path d="m188.478 104.233c-69.883 0-123.114 55.281-122.51 128.607.579 70.317 50.655 157.863 122.51 175.466l18.167-166.982z" fill="#c1877a"/><path d="m310.989 232.84c.604-73.327-52.628-128.607-122.51-128.607v304.073c71.854-17.603 121.931-105.149 122.51-175.466z" fill="#a35d50"/></g><g><path d="m330.104 425.66c-58.336 0-102.771-44.321-102.267-103.111.483-56.377 42.285-126.567 102.267-140.68l15.165 133.878z" fill="#c1877a"/><path d="m432.372 322.548c.504 58.79-43.932 103.111-102.267 103.111v-243.791c59.981 14.113 101.783 84.303 102.267 140.68z" fill="#a35d50"/><path d="m330.104 404.794c-48.35 0-85.18-36.735-84.762-85.461.401-46.727 35.047-104.902 84.762-116.6l11.61 114.116z" fill="#fef7cf"/><path d="m414.866 319.333c.418 48.727-36.412 85.462-84.762 85.462v-202.062c49.715 11.698 84.362 69.873 84.762 116.6z" fill="#fee6b7"/><path d="m330.105 369.081c-40.441-34.897-40.441-91.476 0-126.373l7.537 63.187z" fill="#d59b8d"/><path d="m330.104 369.081c40.441-34.897 40.441-91.476 0-126.373z" fill="#c1877a"/></g></g></svg>