<svg id="Capa_1" enable-background="new 0 0 512 512" height="512" viewBox="0 0 512 512" width="512" xmlns="http://www.w3.org/2000/svg"><g><circle cx="256" cy="256" fill="#fee6b7" r="256"/><path d="m364.555 123.665-5.818 5.818-76.056-76.056-18.588 18.588 27.102 27.102-29.129 29.129-61.936-61.933-25.166 25.166 133.311 133.311-182.444 182.445 7.495 14.037 88.443 88.444c11.199 1.496 22.622 2.284 34.231 2.284 136.456 0 247.961-106.767 255.571-241.318z" fill="#fdca86"/><g><path d="m253.318 61.296 20.037 58.002 10.487-2.81-2.604-30.689-13.239-28.437z" fill="#d59b8d"/><path d="m282.681 53.428 11.648 60.25-10.487 2.81-15.843-59.126z" fill="#c1877a"/><path d="m306.218 345.56c1.106 12.415-.314 24.569-4.218 36.125-2.386 7.06-5.698 13.826-9.844 20.108l17.865 11.791c5.16-7.816 9.284-16.242 12.258-25.046 4.863-14.387 6.633-29.486 5.26-44.879z" fill="#b7c958"/><path d="m337.093 356.578 18.468 68.925 10.339-2.771-4.469-35.739-14-33.186z" fill="#b7c958"/><path d="m356.483 351.207h10.703v71.356h-10.703z" fill="#89aa3b" transform="matrix(.966 -.259 .259 .966 -87.804 106.833)"/><path d="m400.715 355.234c-9.159-8.055-16.466-17.871-21.715-29.176l-19.415 9.014c6.508 14.018 15.59 26.209 26.995 36.237 6.979 6.138 14.765 11.374 23.14 15.562l9.575-19.147c-6.731-3.365-12.982-7.568-18.58-12.49z" fill="#89aa3b"/><path d="m217.79 226.315c3.923 14.641 22.385 45.269 70.841 102.904 40.977 48.739 54.893 52.603 65.542 49.75l-13.572-151.369-61.748-129.73c-49.199 13.183-76.538 70.69-61.063 128.445z" fill="#fb735d"/><path d="m386.06 303.114c13.149-74.13 13.826-109.88 9.898-124.539-15.406-57.495-67.432-93.554-116.438-80.873-.222.058-.445.108-.666.168l75.32 281.099c10.642-2.851 20.761-13.138 31.886-75.855z" fill="#ee4a41"/></g><g><path d="m169.732 66.313 4.343 61.211h10.856l5.429-30.317-5.429-30.894z" fill="#d59b8d"/><path d="m200.131 66.313-4.343 61.211h-10.857v-61.211z" fill="#c1877a"/><path d="m147.257 354.582c-2.145 12.278-6.662 23.651-13.424 33.802-4.132 6.202-9.083 11.88-14.713 16.875l14.204 16.013c7.007-6.214 13.172-13.286 18.323-21.019 8.421-12.638 14.039-26.764 16.696-41.989z" fill="#b7c958"/><path d="m174.228 373.215v71.357h10.703l4.934-35.678-4.934-35.679z" fill="#b7c958"/><path d="m184.931 373.215h10.703v71.356h-10.703z" fill="#89aa3b"/><path d="m236.03 388.385c-6.762-10.152-11.279-21.524-13.424-33.802l-21.086 3.682c2.658 15.225 8.276 29.351 16.696 41.989 5.152 7.735 11.318 14.808 18.324 21.021l14.204-16.016c-5.63-4.993-10.581-10.671-14.714-16.874z" fill="#89aa3b"/><path d="m92.705 216.514c0 15.157 9.906 49.52 41.794 117.733 26.966 57.684 39.408 65.018 50.432 65.018l26.067-149.724-26.067-141.291c-50.935 0-92.226 48.471-92.226 108.264z" fill="#fb735d"/><path d="m235.364 334.247c31.887-68.201 41.794-102.558 41.794-117.733 0-59.523-40.921-107.819-91.539-108.254-.229-.002-.457-.01-.687-.01v291.015c11.017 0 23.454-7.318 50.432-65.018z" fill="#ee4a41"/></g></g></svg>