<svg id="Capa_1" enable-background="new 0 0 512 512" height="512" viewBox="0 0 512 512" width="512" xmlns="http://www.w3.org/2000/svg"><g><circle cx="256" cy="256" fill="#b7c958" r="256"/><path d="m505.7 312.644-133.504-133.504-7.912 7.912-87.757-87.757-107.361 107.36 77.205 77.205-113.518 113.518 114.459 114.459c2.885.096 5.778.163 8.687.163 121.919 0 223.921-85.231 249.701-199.356z" fill="#89aa3b"/><g><path d="m177.521 68.766-19.416 19.572-25.254 10.96-9.048 26.097-19.998 19.009-1.297 27.594-14.811 23.306 4.719 27.222-9.841 25.811 9.841 25.809-4.719 27.223 14.812 23.307 1.297 27.596 19.999 19.009 9.048 26.098 25.255 10.958 19.415 19.571 27.167-4.069 21.233-182.214-21.233-168.791z" fill="#fb735d"/><g fill="#ee4a41"><path d="m251.276 408.335 25.254-10.959 9.048-26.097 19.999-19.009 1.296-27.595 14.811-23.306-4.719-27.221 9.841-25.811-9.841-25.81 4.719-27.223-14.812-23.307-1.297-27.596-19.998-19.009-9.049-26.097-25.255-10.959-19.415-19.571-27.168 4.069v351.005l27.17 4.068z"/><path d="m136.419 212.95-12.5 25-12.5-25z"/><path d="m179.249 136.84-12.5 25-12.5-25z"/><path d="m191.749 260.162-12.5 25-12.5-25z"/><path d="m154.249 322.826-12.5 25-12.5-25z"/></g><path d="m238.423 373.645-12.5 25-12.5-25z" fill="#c82745"/><path d="m243.244 187.95-12.5 25-12.5-25z" fill="#c82745"/><path d="m264.425 116.925-12.5 25-12.5-25z" fill="#c82745"/></g><g><path d="m262.17 279.253c0 64.846 32.35 117.414 72.255 117.414l12.591-117.414-12.591-117.414c-39.905 0-72.255 52.568-72.255 117.414z" fill="#fef7cf"/><path d="m406.68 279.253c0-64.846-32.35-117.414-72.255-117.414v234.828c39.905 0 72.255-52.568 72.255-117.414z" fill="#fee6b7"/><path d="m247.081 281.457-7.656 20.08 7.656 20.078-3.671 21.179 11.523 18.131 1.008 21.469 15.559 14.788 7.039 20.302 19.647 8.526 15.104 15.225 21.135-3.166 17.043-88.175-17.043-68.437z" fill="#fb735d"/><path d="m421.769 281.458.001-.001h-87.345v156.612l21.137 3.165 15.104-15.226 19.647-8.526 7.039-20.302 15.558-14.788 1.008-21.468 11.522-18.131-3.671-21.176 7.656-20.08z" fill="#ee4a41"/></g></g></svg>