<svg id="Capa_1" enable-background="new 0 0 512 512" height="512" viewBox="0 0 512 512" width="512" xmlns="http://www.w3.org/2000/svg"><g><circle cx="256" cy="256" fill="#b16ee5" r="256"/><path d="m426.495 236.485-19.964 19.964-90.289-90.289-19.132 19.132-78.542-78.542-29.112 29.112 51.389 51.389-144.12 144.12 179.809 179.809c111.841-8.877 203.431-89.628 228.593-196.062z" fill="#8335ba"/><g><path d="m180.143 106.749 5.49 64.042h13.723l6.862-31.719-6.862-32.323z" fill="#d59b8d"/><path d="m218.569 106.749-5.49 64.042h-13.723v-64.042z" fill="#c1877a"/><path d="m199.356 153.924c-9.366-6.317-28.645-17.257-53.624-16.719-45.971.99-80.777 40.965-91.369 73.218-16.011 48.755 18.473 113.208 82.496 152.39 19.137 11.712 37.879 24.058 55.857 37.481 2.213 1.652 4.426 3.305 6.639 4.957l19.213-144.463z" fill="#fcbe50"/><path d="m199.356 153.924c9.366-6.317 28.645-17.257 53.624-16.719 45.971.99 80.777 40.965 91.369 73.218 16.011 48.755-18.473 113.208-82.496 152.39-19.137 11.712-37.879 24.058-55.857 37.481-2.213 1.652-4.426 3.305-6.639 4.957v-251.327z" fill="#fb9e48"/></g><g><path d="m348.245 371.344c-7.127 4.807-21.796 13.13-40.802 12.721-34.979-.753-61.462-31.17-69.522-55.711-12.183-37.097 14.056-86.139 62.771-115.952 14.561-8.911 28.822-18.305 42.501-28.519 1.684-1.257 3.368-2.514 5.052-3.772l12.766 101.984z" fill="#fcbe50"/><path d="m348.245 371.344c7.127 4.807 21.796 13.13 40.802 12.721 34.979-.753 61.462-31.17 69.522-55.711 12.183-37.097-14.056-86.139-62.771-115.952-14.561-8.911-28.822-18.305-42.501-28.519-1.684-1.257-3.368-2.514-5.052-3.772z" fill="#fb9e48"/><path d="m348.245 357.961c-6.129 3.998-18.746 10.92-35.092 10.58-30.084-.626-52.861-25.924-59.792-46.335-10.478-30.853 12.089-71.642 53.986-96.437 12.523-7.412 24.788-15.225 36.553-23.719 1.448-1.046 2.896-2.091 4.345-3.137l12.766 83.182z" fill="#fddf55"/><path d="m348.245 357.961c6.129 3.998 18.746 10.92 35.092 10.58 30.084-.626 52.861-25.924 59.792-46.335 10.478-30.853-12.089-71.642-53.986-96.437-12.523-7.412-24.788-15.225-36.553-23.719-1.448-1.046-2.897-2.091-4.345-3.137z" fill="#fcbe50"/><path d="m348.245 332.656c-34.043-23.603-34.043-61.87 0-85.473l6.345 42.737z" fill="#d59b8d"/><path d="m348.245 332.656c34.043-23.603 34.043-61.87 0-85.473z" fill="#c1877a"/></g></g></svg>