<svg id="Capa_1" enable-background="new 0 0 512 512" height="512" viewBox="0 0 512 512" width="512" xmlns="http://www.w3.org/2000/svg"><g><circle cx="256" cy="256" fill="#fee6b7" r="256"/><path d="m439.01 234.805-8.338 8.338-88.028-88.028-10.124 10.124-39.469-39.468-10.206 10.206-54.775-54.775-26.367 26.367 63.11 63.11-170.341 170.34 170.796 170.796c121.032-4.309 220.655-92.625 242.335-208.417z" fill="#fdca86"/><g><path d="m195.962 81.202 5.352 53.513h10.702l6.435-29.578-6.435-23.935z" fill="#89aa3b"/><path d="m228.071 81.202h-16.055v53.513h10.703z" fill="#5f8727"/><path d="m212.016 386.849-17.45-.997c-81.515-4.658-145.23-72.118-145.23-153.766 0-62.326 52.41-111.826 114.634-108.27l48.046 2.746 28.156 132.454z" fill="#ee4a41"/><path d="m212.016 386.849 17.45-.997c81.515-4.658 145.23-72.118 145.23-153.766 0-62.326-52.41-111.826-114.634-108.27l-48.046 2.746z" fill="#c82745"/><path d="m212.016 120.678c-34.669-24.233-77.29-12.812-95.198 25.508 25.027 17.493 54.194 16.399 75.221.025-7.643 20.071-.992 42.583 19.976 58.395l5.728-41.964c.002 0-5.727-41.964-5.727-41.964z" fill="#b7c958"/><path d="m307.214 146.186c-17.908-38.32-60.529-49.741-95.197-25.508v83.928c20.969-15.812 27.619-38.324 19.976-58.395 21.026 16.374 50.194 17.469 75.221-.025z" fill="#89aa3b"/></g><g><path d="m341.354 407.363-13.013-.744c-60.785-3.474-108.297-53.778-108.297-114.663 0-46.476 39.082-83.389 85.482-80.737l35.828 2.047 20.996 98.771z" fill="#fb735d"/><path d="m341.354 407.363 13.013-.744c60.785-3.474 108.297-53.778 108.297-114.663 0-46.476-39.082-83.389-85.482-80.737l-35.828 2.047z" fill="#ee4a41"/><path d="m341.354 387.157-10.334-.591c-48.27-2.758-86-42.706-86-91.055 0-36.907 31.035-66.22 67.882-64.114l28.451 1.626 16.673 78.435z" fill="#ee4a41"/><path d="m341.354 387.157 10.334-.591c48.27-2.758 86-42.706 86-91.055 0-36.907-31.035-66.22-67.882-64.114l-28.451 1.626v154.134z" fill="#c82745"/><path d="m295.248 309.224c0-25.133 13.246-45.508 29.586-45.508v91.015c-16.34.001-29.586-20.374-29.586-45.507z" fill="#fb735d"/><path d="m387.459 309.224c0-25.133-13.246-45.508-29.586-45.508v91.015c16.34.001 29.586-20.374 29.586-45.507z" fill="#ee4a41"/></g></g></svg>