<svg id="Capa_1" enable-background="new 0 0 512 512" height="512" viewBox="0 0 512 512" width="512" xmlns="http://www.w3.org/2000/svg"><g><circle cx="256" cy="256" fill="#b7c958" r="256"/><path d="m427.839 221.219-4.387 4.386-97.797-97.797-22.108 22.108-77.86-77.86-26.407 26.409 77.991 77.991-170.155 170.155 164.877 164.877c118.686-7.318 215.496-95.485 235.998-210.117z" fill="#89aa3b"/><g><path d="m189.689 72.057 5.143 59.999h12.857l6.428-29.717-6.428-30.282z" fill="#d59b8d"/><path d="m225.688 72.057-5.143 59.999h-12.856v-59.999z" fill="#c1877a"/><path d="m207.689 128.982c-5.359-5.7-21.249-21.087-46.553-25.121-31.554-5.03-55.194 11.188-60.076 14.538-43.055 29.539-42.75 90.506-42.652 110.317.09 17.963 3.146 68.114 39.765 108.393 11.88 13.067 31.461 34.605 62.374 36.719 21.593 1.477 38.716-7.208 47.141-12.346l21.219-123.033z" fill="#fcbe50"/><path d="m207.689 128.982c5.359-5.7 21.249-21.087 46.553-25.121 31.554-5.03 55.194 11.188 60.076 14.538 43.055 29.539 42.75 90.506 42.652 110.317-.09 17.963-3.146 68.114-39.765 108.393-11.88 13.067-31.461 34.605-62.374 36.719-21.593 1.477-38.716-7.208-47.141-12.346v-232.5z" fill="#fb9e48"/></g><g><path d="m330.646 222.15c-4.414-4.694-17.501-17.367-38.341-20.689-25.988-4.143-45.458 9.215-49.479 11.973-35.46 24.329-35.21 74.541-35.128 90.857.074 14.795 2.591 56.099 32.751 89.273 9.785 10.762 25.912 28.501 51.371 30.242 17.784 1.216 31.887-5.936 38.826-10.169l17.587-101.331z" fill="#fddf55"/><path d="m330.646 222.15c4.414-4.694 17.501-17.367 38.341-20.689 25.988-4.143 45.458 9.215 49.479 11.973 35.46 24.329 35.21 74.541 35.128 90.857-.074 14.795-2.591 56.099-32.751 89.273-9.785 10.762-25.912 28.501-51.371 30.242-17.784 1.216-31.887-5.936-38.826-10.169z" fill="#fcbe50"/><path d="m330.646 239.565c-3.791-3.788-15.029-14.012-32.925-16.693-22.317-3.343-39.036 7.435-42.489 9.661-30.451 19.629-30.236 60.142-30.166 73.307.063 11.937 2.225 45.263 28.125 72.028 8.403 8.683 22.252 22.995 44.115 24.4 15.272.981 27.382-4.79 33.341-8.204l12.085-83.564z" fill="#fcbe50"/><path d="m330.646 239.565c3.791-3.788 15.029-14.012 32.925-16.693 22.317-3.343 39.036 7.435 42.489 9.661 30.451 19.629 30.236 60.142 30.166 73.307-.063 11.937-2.225 45.263-28.125 72.028-8.402 8.683-22.251 22.995-44.115 24.4-15.272.981-27.382-4.79-33.341-8.204v-154.499z" fill="#fb9e48"/><path d="m330.646 272.617c-38.203 23.988-38.203 62.88 0 86.868l7.12-43.434z" fill="#d59b8d"/><path d="m330.646 272.617c38.203 23.988 38.203 62.88 0 86.868z" fill="#c1877a"/></g></g></svg>