<svg id="Capa_1" enable-background="new 0 0 512 512" height="512" viewBox="0 0 512 512" width="512" xmlns="http://www.w3.org/2000/svg"><g><circle cx="256" cy="256" fill="#fddf55" r="256"/><path d="m428.858 214.855-6.281 6.281-62.529-62.529-30.343 30.344-39.28-39.28-7.609 7.608-75.743-75.743-104.574 104.573 73.159 73.158-82.886 82.886 169.764 169.764c125.171-3.137 228.028-96.118 246.505-216.878z" fill="#fcbe50"/><g><path d="m189.848 65.987-16.758 15.195-13.701 19.893-20.831 12.219-17.608 16.533-30.308 18.497-18.372 30.385-17.37 30.967-1.051 35.494 6.034 53.874 32.888 43.11 42.382 33.819 54.725 7.179 19.576-142.283-19.576-174.855z" fill="#d59b8d"/><g fill="#c1877a"><path d="m286.063 343.313 33.218-42.586 6.627-53.601-.553-35.547-16.949-31.246-17.983-30.663-30.093-18.924-17.859-16.839-21.224-12.333-14.174-20.038-17.195-15.522v317.138l53.595-6.624z"/><path d="m121.854 272.139v-21.326h-17.319v27.234l16.587 21.487v32.344h17.319v-38.253z"/><path d="m155.76 169.095v-21.326h-17.319v27.235l16.587 21.486v32.345h17.319v-38.253z"/></g><path d="m234.039 218.601v-21.327h-17.319v27.235l16.588 21.487v32.344h17.319v-38.253z" fill="#a35d50"/></g><g><path d="m345.829 145.771-13.834 12.544-11.311 16.422-17.197 10.088-14.536 13.648-25.02 15.27-15.167 25.084-14.339 25.564-.868 29.302 4.981 44.475 27.151 35.588 34.988 27.919 45.177 5.927 16.16-117.46-16.16-144.349z" fill="#d59b8d"/><path d="m425.257 374.714 27.424-35.157 5.47-44.249-.456-29.346-13.993-25.794-14.845-25.314-24.842-15.622-14.744-13.902-17.521-10.181-11.702-16.542-14.194-12.814v261.809l44.244-5.468z" fill="#c1877a"/><path d="m345.854 224.122c-2.562-2.392-11.754-10.387-25.432-10.819-13.521-.427-22.994 6.805-27.015 9.875-21.164 16.157-22.012 43.924-22.675 65.643-.653 21.369-1.547 50.674 19.669 72.133 4.939 4.995 14.765 14.654 30.9 17.265 10.574 1.711 19.502-.308 24.553-1.866l16.494-80.275z" fill="#fee6b7"/><path d="m345.854 224.122c2.562-2.392 11.754-10.387 25.432-10.819 13.521-.427 22.994 6.805 27.015 9.875 21.164 16.157 22.012 43.924 22.675 65.643.653 21.369 1.547 50.674-19.669 72.133-4.939 4.995-14.765 14.654-30.9 17.265-10.574 1.711-19.502-.308-24.553-1.866z" fill="#fdca86"/><path d="m306.587 257.675h15v15h-15z" fill="#fef7cf"/><g fill="#fee6b7"><path d="m372.002 291.345h15v15h-15z"/><path d="m387.002 276.345h15v15h-15z"/></g></g></g></svg>