<svg id="Capa_1" enable-background="new 0 0 512 512" height="512" viewBox="0 0 512 512" width="512" xmlns="http://www.w3.org/2000/svg"><g><circle cx="256" cy="256" fill="#fb735d" r="256"/><path d="m411.461 196.168-.854.854-36.767-36.767-20.412 20.413-20.473-20.473-7.791 7.792-117.115-117.115-24.988 24.988 109.899 109.899-188.167 188.167 137.721 137.721c4.467.232 8.962.353 13.486.353 128.503 0 234.881-94.685 253.201-218.092z" fill="#ee4a41"/><g><path d="m170.882 50.872 5.31 80.9h13.274l6.637-40.069-6.637-40.831z" fill="#d59b8d"/><path d="m208.05 50.872-5.31 80.9h-13.274v-80.9z" fill="#c1877a"/><path d="m189.455 116.483c-.119-13.917-10.785-25.161-23.937-25.161-13.226 0-23.948 11.369-23.948 25.394 0 .157.008.312.011.468-45.773 14.987-79.839 71.996-79.839 140.045 0 68.048 34.066 125.059 79.839 140.045-.003.156-.011.311-.011.468 0 14.025 10.722 25.394 23.948 25.394s23.948-11.369 23.948-25.394c0-.157-.008-.312-.011-.468l20.127-140.045z" fill="#fddf55"/><path d="m189.477 116.483c.119-13.917 10.785-25.161 23.937-25.161 13.226 0 23.948 11.369 23.948 25.394 0 .157-.008.312-.011.468 45.773 14.987 79.839 71.996 79.839 140.045 0 68.048-34.066 125.059-79.839 140.045.003.156.011.311.011.468 0 14.025-10.722 25.394-23.948 25.394s-23.948-11.369-23.948-25.394c0-.157.008-.312.011-.468z" fill="#fcbe50"/></g><g><path d="m339.394 175.779c-.102-11.861-9.192-21.444-20.401-21.444-11.272 0-20.41 9.689-20.41 21.642 0 .134.007.266.009.399-39.011 12.772-68.044 61.36-68.044 119.355s29.033 106.583 68.044 119.355c-.002.133-.009.265-.009.399 0 11.953 9.138 21.642 20.41 21.642s20.41-9.69 20.41-21.642c0-.134-.007-.266-.009-.399l17.154-119.355z" fill="#fddf55"/><path d="m339.413 175.779c.102-11.861 9.192-21.444 20.401-21.444 11.272 0 20.41 9.689 20.41 21.642 0 .134-.007.266-.009.399 39.011 12.772 68.044 61.36 68.044 119.355s-29.033 106.583-68.044 119.355c.002.133.009.265.009.399 0 11.953-9.138 21.642-20.41 21.642s-20.41-9.69-20.41-21.642c0-.134.007-.266.009-.399z" fill="#fcbe50"/><path d="m339.396 197.181c-.082-9.693-7.451-17.526-16.537-17.526-9.137 0-16.545 7.919-16.545 17.688 0 .109.006.217.008.326-31.622 10.439-55.156 50.148-55.156 97.546s23.534 87.107 55.156 97.546c-.002.109-.008.217-.008.326 0 9.768 7.407 17.688 16.545 17.688 9.137 0 16.545-7.919 16.545-17.688 0-.11-.006-.217-.008-.326l12.953-97.029z" fill="#fef7cf"/><path d="m339.411 197.181c.082-9.693 7.451-17.526 16.537-17.526 9.137 0 16.545 7.919 16.545 17.688 0 .109-.006.217-.008.326 31.622 10.439 55.156 50.148 55.156 97.546s-23.534 87.107-55.156 97.546c.002.109.008.217.008.326 0 9.768-7.407 17.688-16.545 17.688-9.137 0-16.545-7.919-16.545-17.688 0-.11.006-.217.008-.326z" fill="#fee6b7"/><path d="m339.404 342.703c-34.52-26.227-34.52-68.749 0-94.976l6.434 47.488z" fill="#d59b8d"/><path d="m339.404 342.703c34.52-26.227 34.52-68.749 0-94.976z" fill="#c1877a"/></g></g></svg>