<svg id="Capa_1" enable-background="new 0 0 512 512" height="512" viewBox="0 0 512 512" width="512" xmlns="http://www.w3.org/2000/svg"><g><circle cx="256" cy="256" fill="#b7c958" r="256"/><path d="m278.667 46-35.504 35.503 63.755 63.755-29.054 29.054 56.78 56.78-179.695 179.695 101.211 101.211c133.779-.083 243.536-102.784 254.857-233.647z" fill="#89aa3b"/><path d="m233.333 46 6.476 75.556h16.191l8.095-37.422-8.095-38.134z" fill="#d59b8d"/><path d="m278.667 46-6.476 75.556h-16.191v-75.556z" fill="#c1877a"/><path d="m172.127 174.857c0 .536.006 1.07.018 1.603.584 26.428-9.053 52.02-26.191 73.201-16.462 20.346-26.454 45.409-27.16 72.597-1.822 70.092 59.281 128.761 135.249 129.738.654.008 1.305.002 1.958.002l21.864-177.263-21.865-177.266c-46.32.002-83.873 34.641-83.873 77.388z" fill="#fddf55"/><path d="m393.246 325.353c0-29.313-10.792-56.299-28.909-77.76-17.085-20.239-25.021-45.557-24.48-71.208.039-1.855.007-3.726-.098-5.611-2.208-39.517-37.067-71.467-79.902-73.238-1.293-.053-2.576-.067-3.856-.067v354.528c75.797-.001 137.245-56.695 137.245-126.644z" fill="#fcbe50"/></g></svg>