<svg id="Capa_1" enable-background="new 0 0 512 512" height="512" viewBox="0 0 512 512" width="512" xmlns="http://www.w3.org/2000/svg"><g><circle cx="256" cy="256" fill="#fddf55" r="256"/><path d="m341.783 211.716-93.029-93.029-91.208 91.208 65.427 65.427-115.727 115.728 119.248 119.248c9.683 1.111 19.525 1.702 29.506 1.702 141.385 0 256-114.615 256-256 0-9.005-.471-17.901-1.378-26.666l-93.228-93.228z" fill="#fcbe50"/><g><path d="m390.135 124.264c-8.925-3.248-17.541-8.697-26.977-8.528-9.125.164-17.707 5.858-26.938 8.94-8.549 2.855-18.793 3.204-27.131 8.336-7.691 4.734-12.786 13.673-20.06 20.167-6.775 6.049-16.263 9.972-22.486 17.405-5.863 7.003-8.135 17.019-13.349 25.132-4.959 7.717-13.162 13.894-17.398 22.514-4.059 8.26-3.981 18.521-7.257 27.521-3.275 8.999-9.93 16.808-12.13 25.744-2.296 9.327.017 19.332-1.145 28.432-1.221 9.566-5.919 18.699-5.929 27.832-.011 9.694 4.735 18.8 6.037 27.788 1.398 9.651-.445 19.774 2.404 28.345 3.089 9.291 10.711 16.144 15.426 23.826 5.09 8.295 8.004 18.173 14.889 24.164 7.119 6.195 17.221 7.559 26.146 10.807l74.166-153.311z" fill="#d59b8d"/><g fill="#c1877a"><path d="m301.214 451.218c9.125-.164 17.707-5.858 26.938-8.94 8.549-2.855 18.793-3.204 27.131-8.336 7.691-4.734 12.786-13.673 20.06-20.167 6.775-6.049 16.263-9.972 22.486-17.405 5.862-7.003 8.135-17.019 13.349-25.132 4.959-7.717 13.162-13.894 17.398-22.514 4.059-8.26 3.981-18.521 7.257-27.521 3.275-8.999 9.93-16.808 12.131-25.744 2.296-9.327-.017-19.332 1.145-28.432 1.221-9.566 5.919-18.699 5.929-27.832.011-9.694-4.735-18.8-6.037-27.788-1.398-9.651.445-19.774-2.404-28.345-3.089-9.291-10.711-16.143-15.426-23.826-5.09-8.295-8.004-18.173-14.889-24.164-7.119-6.195-17.221-7.559-26.146-10.807l-115.899 318.425c8.925 3.249 17.541 8.697 26.977 8.528z"/><path d="m340.471 184.622 7.294-20.04-16.274-5.924-9.315 25.592 8.238 25.864-11.062 30.394 16.274 5.923 13.083-35.946z"/><path d="m270.837 294.135 7.294-20.04-16.274-5.923-9.315 25.592 8.238 25.863-11.062 30.394 16.274 5.924 13.083-35.946z"/></g><path d="m382.024 291.47 7.294-20.042-16.274-5.923-9.316 25.593 8.238 25.864-11.062 30.394 16.275 5.923 13.083-35.946z" fill="#a35d50"/></g><g><path d="m178.028 85.465c-9.498 0-19.457-2.173-28.267 1.213-8.519 3.275-14.636 11.561-22.256 17.615-7.057 5.606-16.563 9.438-22.643 17.113-5.608 7.079-7.338 17.222-11.953 25.812-4.298 8.001-11.872 14.933-15.177 24.046-3.114 8.586-1.824 18.775-3.948 28.182-2.02 8.948-7.616 17.557-8.648 27.107-.989 9.15 2.594 18.766 2.594 28.343s-3.583 19.191-2.594 28.34c1.032 9.55 6.628 18.16 8.648 27.109 2.124 9.407.834 19.596 3.947 28.181 3.305 9.113 10.879 16.046 15.177 24.048 4.615 8.591 6.345 18.734 11.954 25.813 6.08 7.675 15.587 11.507 22.644 17.113 7.62 6.053 13.737 14.339 22.256 17.614 8.809 3.386 18.768 1.213 28.265 1.213l17.258-169.431z" fill="#d59b8d"/><g fill="#c1877a"><path d="m206.294 423.114c8.519-3.275 14.636-11.561 22.256-17.615 7.057-5.606 16.564-9.438 22.643-17.113 5.608-7.079 7.338-17.222 11.953-25.812 4.298-8.001 11.872-14.933 15.177-24.046 3.114-8.586 1.824-18.775 3.948-28.182 2.02-8.948 7.616-17.558 8.648-27.107.989-9.151-2.594-18.766-2.594-28.343s3.583-19.191 2.594-28.34c-1.032-9.55-6.628-18.16-8.648-27.109-2.124-9.407-.834-19.596-3.947-28.181-3.305-9.114-10.879-16.046-15.177-24.048-4.615-8.591-6.345-18.734-11.954-25.813-6.08-7.675-15.587-11.506-22.644-17.113-7.62-6.053-13.737-14.339-22.256-17.614-8.809-3.386-18.768-1.213-28.265-1.213v338.862c9.498 0 19.457 2.174 28.266-1.213z"/><path d="m152.003 159.169v-21.326h-17.319v27.234l16.587 21.486v32.345h17.319v-38.253z"/><path d="m124.024 285.894v-21.326h-17.319v27.234l16.587 21.486v32.345h17.319v-38.253z"/></g><path d="m227.593 245.361v-21.327h-17.318v27.235l16.587 21.487v32.344h17.319v-38.253z" fill="#a35d50"/></g></g></svg>