<svg id="Capa_1" enable-background="new 0 0 512 512" height="512" viewBox="0 0 512 512" width="512" xmlns="http://www.w3.org/2000/svg"><g><circle cx="256" cy="256" fill="#b16ee5" r="256"/><path d="m379.586 183.864-12.965 12.965-145.434-145.433-33.213 33.213 133.94 133.94-183.188 183.188 110.16 110.16c2.364.065 4.735.103 7.114.103 122.696 0 225.213-86.324 250.176-201.546z" fill="#8335ba"/><g><path d="m176.451 51.396 6.391 77.183h15.977l7.989-38.228-7.989-38.955z" fill="#d59b8d"/><path d="m221.187 51.396-6.391 77.183h-15.977v-77.183z" fill="#c1877a"/><path d="m89.446 262.231c0 92.197 48.968 166.937 109.373 166.937l19.059-166.937-19.059-166.937c-60.405 0-109.373 74.74-109.373 166.937z" fill="#fb735d"/><path d="m308.192 262.231c0-92.197-48.968-166.937-109.373-166.937v333.875c60.405-.001 109.373-74.741 109.373-166.938z" fill="#ee4a41"/></g><g><path d="m232.554 305.2c0 80.081 42.533 145 95 145l16.554-145-16.554-145c-52.467 0-95 64.919-95 145z" fill="#fb735d"/><path d="m422.554 305.2c0-80.081-42.533-145-95-145v290c52.467 0 95-64.919 95-145z" fill="#ee4a41"/><path d="m247.554 305.2c0 71.797 35.817 130 80 130l13.94-130-13.94-130c-44.183 0-80 58.203-80 130z" fill="#fddf55"/><path d="m407.554 305.2c0-71.797-35.817-130-80-130v260c44.183 0 80-58.203 80-130z" fill="#fcbe50"/><path d="m276.808 305.2c0-34.324 17.123-62.149 38.246-62.149v124.299c-21.123 0-38.246-27.826-38.246-62.15z" fill="#555a65"/><path d="m378.299 305.2c0-34.324-17.123-62.149-38.246-62.149v124.299c21.123 0 38.246-27.826 38.246-62.15z" fill="#333940"/></g></g></svg>