<svg id="Capa_1" enable-background="new 0 0 512 512" height="512" viewBox="0 0 512 512" width="512" xmlns="http://www.w3.org/2000/svg"><g><circle cx="256" cy="256" fill="#fee6b7" r="256"/><path d="m390.311 185.59-13.745 13.744-100.04-100.04-107.36 107.361 77.205 77.205-113.518 113.518 114.459 114.459c2.885.096 5.778.163 8.687.163 125.341 0 229.628-90.084 251.686-209.036z" fill="#fdca86"/><g><path d="m177.521 68.766-19.416 19.572-25.254 10.96-9.048 26.097-19.998 19.009-1.297 27.594-14.811 23.306 4.719 27.222-9.841 25.811 9.841 25.809-4.719 27.223 14.812 23.307 1.297 27.596 19.999 19.009 9.048 26.098 25.255 10.958 19.415 19.571 27.167-4.069 21.233-182.214-21.233-168.791z" fill="#c1877a"/><path d="m251.276 408.335 25.254-10.959 9.048-26.097 19.999-19.009 1.296-27.595 14.811-23.306-4.719-27.221 9.841-25.811-9.841-25.81 4.719-27.223-14.812-23.307-1.297-27.596-19.998-19.009-9.049-26.097-25.255-10.959-19.415-19.571-27.168 4.069v351.005l27.17 4.068z" fill="#a35d50"/><g fill="#d59b8d"><path d="m136.419 212.95-12.5 25-12.5-25z"/><path d="m179.249 136.84-12.5 25-12.5-25z"/><path d="m191.749 260.162-12.5 25-12.5-25z"/><path d="m154.249 322.826-12.5 25-12.5-25z"/></g><path d="m238.423 373.645-12.5 25-12.5-25z" fill="#a35d50"/><path d="m243.244 187.95-12.5 25-12.5-25z" fill="#c1877a"/><path d="m264.425 116.925-12.5 25-12.5-25z" fill="#c1877a"/></g><g><path d="m313.288 161.84-15.104 15.226-19.647 8.526-7.039 20.302-15.557 14.788-1.009 21.467-11.522 18.131 3.671 21.177-7.656 20.08 7.656 20.078-3.671 21.179 11.523 18.131 1.008 21.469 15.559 14.788 7.039 20.302 19.647 8.526 15.104 15.225 21.135-3.166 16.085-136.532-16.085-136.532z" fill="#c1877a"/><path d="m355.562 441.234 15.104-15.226 19.647-8.526 7.039-20.302 15.558-14.788 1.008-21.468 11.522-18.131-3.671-21.176 7.656-20.08-7.656-20.078 3.671-21.179-11.522-18.132-1.009-21.468-15.559-14.788-7.039-20.302-19.647-8.526-15.104-15.225-21.135 3.166v273.064z" fill="#a35d50"/><path d="m262.17 301.537c0 64.846 32.35 117.414 72.255 117.414l12.591-117.414-12.591-117.414c-39.905 0-72.255 52.568-72.255 117.414z" fill="#fef7cf"/><path d="m406.68 301.537c0-64.846-32.35-117.414-72.255-117.414v234.828c39.905 0 72.255-52.568 72.255-117.414z" fill="#fee6b7"/><path d="m278 301.537c0-51.978 19.04-94.115 42.526-94.115v188.23c-23.487-.001-42.526-42.137-42.526-94.115z" fill="#b7c958"/><path d="m390.85 301.537c0-51.978-19.04-94.115-42.526-94.115v188.23c23.487 0 42.526-42.137 42.526-94.115z" fill="#89aa3b"/></g></g></svg>