<svg id="Capa_1" enable-background="new 0 0 512 512" height="512" viewBox="0 0 512 512" width="512" xmlns="http://www.w3.org/2000/svg"><g><circle cx="256" cy="256" fill="#fb735d" r="256"/><path d="m427.839 221.219-4.387 4.386-97.797-97.797-22.108 22.108-77.86-77.86-26.407 26.409 77.991 77.991-170.155 170.155 164.877 164.877c118.686-7.318 215.496-95.485 235.998-210.117z" fill="#ee4a41"/><g><path d="m189.689 72.057 5.143 59.999h12.857l6.428-29.717-6.428-30.282z" fill="#d59b8d"/><path d="m225.688 72.057-5.143 59.999h-12.856v-59.999z" fill="#c1877a"/><path d="m207.689 128.982c-5.359-5.7-21.249-21.087-46.553-25.121-31.554-5.03-55.194 11.188-60.076 14.538-43.055 29.539-42.75 90.506-42.652 110.317.09 17.963 3.146 68.114 39.765 108.393 11.88 13.067 31.461 34.605 62.374 36.719 21.593 1.477 38.716-7.208 47.141-12.346l21.219-123.033z" fill="#89aa3b"/><path d="m207.689 128.982c5.359-5.7 21.249-21.087 46.553-25.121 31.554-5.03 55.194 11.188 60.076 14.538 43.055 29.539 42.75 90.506 42.652 110.317-.09 17.963-3.146 68.114-39.765 108.393-11.88 13.067-31.461 34.605-62.374 36.719-21.593 1.477-38.716-7.208-47.141-12.346v-232.5z" fill="#5f8727"/></g><g><path d="m330.646 222.15c-4.414-4.694-17.501-17.367-38.341-20.689-25.988-4.143-45.458 9.215-49.479 11.973-35.46 24.329-35.21 74.541-35.128 90.857.074 14.795 2.591 56.099 32.751 89.273 9.785 10.762 25.912 28.501 51.371 30.242 17.784 1.216 31.887-5.936 38.826-10.169l17.587-101.331z" fill="#b7c958"/><path d="m330.646 222.15c4.414-4.694 17.501-17.367 38.341-20.689 25.988-4.143 45.458 9.215 49.479 11.973 35.46 24.329 35.21 74.541 35.128 90.857-.074 14.795-2.591 56.099-32.751 89.273-9.785 10.762-25.912 28.501-51.371 30.242-17.784 1.216-31.887-5.936-38.826-10.169z" fill="#89aa3b"/><path d="m330.646 243.395c-3.499-3.588-13.872-13.275-30.391-15.814-20.599-3.167-36.031 7.043-39.219 9.152-28.107 18.596-27.908 56.976-27.844 69.447.059 11.308 2.054 42.88 25.96 68.236 7.756 8.226 20.539 21.785 40.719 23.116 14.096.93 25.274-4.538 30.775-7.772l11.155-79.164z" fill="#fef7cf"/><path d="m330.646 243.395c3.499-3.588 13.872-13.275 30.391-15.814 20.599-3.167 36.031 7.043 39.219 9.152 28.107 18.596 27.908 56.976 27.844 69.447-.059 11.308-2.054 42.88-25.96 68.236-7.756 8.226-20.539 21.785-40.719 23.116-14.096.93-25.275-4.538-30.775-7.772z" fill="#fee6b7"/><path d="m357.102 328.204c-5.932 0-10.742-4.364-10.742-9.747s10.742-22.048 10.742-22.048 10.742 16.664 10.742 22.048c0 5.383-4.809 9.747-10.742 9.747z" fill="#333940"/><path d="m304.189 328.204c5.932 0 10.742-4.364 10.742-9.747s-10.742-22.048-10.742-22.048-10.742 16.664-10.742 22.048c0 5.383 4.81 9.747 10.742 9.747z" fill="#555a65"/></g></g></svg>