<svg id="Capa_1" enable-background="new 0 0 512 512" height="512" viewBox="0 0 512 512" width="512" xmlns="http://www.w3.org/2000/svg"><g><circle cx="256" cy="256" fill="#b7c958" r="256"/><path d="m371.979 162.604-94.208-94.207-35.262 35.262 94.245 94.245-202.49 202.49 111.381 111.381c3.437.136 6.885.225 10.355.225 141.385 0 256-114.615 256-256 0-2.325-.035-4.642-.097-6.952l-113.184-113.184z" fill="#89aa3b"/><path d="m234.229 68.397 6.22 72.571h15.551l7.775-35.944-7.775-36.627z" fill="#d59b8d"/><path d="m277.771 68.397-6.22 72.571h-15.551v-72.571z" fill="#c1877a"/><path d="m256 137.25c-6.482-6.894-25.702-25.505-56.308-30.384-38.166-6.085-66.759 13.533-72.664 17.584-52.077 35.729-51.709 109.471-51.589 133.433.108 21.727 3.805 82.387 48.098 131.106 14.37 15.806 38.054 41.856 75.444 44.413 26.118 1.786 46.829-8.718 57.019-14.934l25.665-148.814z" fill="#fb735d"/><path d="m256 137.25c6.482-6.894 25.702-25.505 56.308-30.384 38.166-6.085 66.759 13.533 72.664 17.584 52.077 35.729 51.709 109.471 51.589 133.433-.108 21.727-3.805 82.387-48.098 131.106-14.37 15.806-38.054 41.856-75.444 44.413-26.118 1.786-46.828-8.718-57.019-14.934z" fill="#ee4a41"/></g></svg>