<svg id="Capa_1" enable-background="new 0 0 512 512" height="512" viewBox="0 0 512 512" width="512" xmlns="http://www.w3.org/2000/svg"><g><circle cx="256" cy="256" fill="#b16ee5" r="256"/><path d="m359.567 167.26-16.079 16.079-136.7-136.7-27.989 27.989 23.265 23.265-21.101 21.101 81.17 81.17-160.972 160.971 150.814 150.814c1.341.021 2.679.051 4.025.051 121.7 0 223.56-84.924 249.566-198.742z" fill="#8335ba"/><g><path d="m169.62 46.638 5.31 61.947h13.274l6.637-30.682-6.637-31.265z" fill="#d59b8d"/><path d="m206.788 46.638-5.31 61.947h-13.274v-61.947z" fill="#c1877a"/><path d="m115.908 157.71c0 .462.005.922.015 1.382.503 22.781-7.804 44.84-22.576 63.097-14.19 17.537-22.802 39.142-23.411 62.577-1.57 60.418 51.099 110.989 116.581 111.831.564.007 1.125.002 1.687.002l18.846-152.796-18.846-152.799c-39.927.001-72.296 29.859-72.296 66.706z" fill="#b7c958"/><path d="m306.507 287.434c0-25.267-9.303-48.528-24.919-67.027-14.727-17.445-21.567-39.269-21.101-61.38.034-1.599.006-3.212-.085-4.836-1.904-34.063-31.951-61.603-68.874-63.129-1.114-.046-2.22-.058-3.324-.058v305.595c65.336-.002 118.303-48.871 118.303-109.165z" fill="#89aa3b"/></g><g><path d="m234.211 212.471c0 .462.005.922.015 1.382.503 22.781-7.804 44.84-22.576 63.097-14.19 17.537-22.802 39.142-23.411 62.577-1.57 60.418 51.099 110.989 116.581 111.831.564.007 1.125.002 1.687.002l18.846-152.796-18.846-152.798c-39.927 0-72.296 29.859-72.296 66.705z" fill="#b7c958"/><path d="m424.809 342.195c0-25.267-9.303-48.528-24.919-67.027-14.727-17.445-21.567-39.269-21.101-61.379.034-1.599.006-3.212-.085-4.836-1.904-34.063-31.951-61.603-68.874-63.129-1.114-.046-2.22-.058-3.324-.058v305.594c65.337-.002 118.303-48.871 118.303-109.165z" fill="#89aa3b"/><path d="m252.285 226.357c0 .387.004.773.011 1.159.378 19.106-5.853 37.608-16.932 52.92-10.642 14.709-17.102 32.829-17.559 52.484-1.178 50.673 38.324 93.087 87.436 93.793.423.006.844.002 1.266.002l14.788-114.723-14.788-141.582c-29.945.001-54.222 25.043-54.222 55.947z" fill="#fddf55"/><path d="m360.729 226.357c0 .387-.004.773-.012 1.159-.378 19.106 5.853 37.608 16.932 52.92 10.642 14.709 17.102 32.829 17.559 52.484 1.178 50.673-38.324 93.087-87.436 93.793-.423.006-.844.002-1.266.002v-256.305c29.946.001 54.223 25.043 54.223 55.947z" fill="#fcbe50"/><path d="m257.214 340.982c0 27.224 22.069 49.293 49.293 49.293l13.614-49.293-13.614-49.293c-27.224 0-49.293 22.069-49.293 49.293z" fill="#d59b8d"/><path d="m355.8 340.982c0 27.224-22.069 49.293-49.293 49.293v-98.585c27.223-.001 49.293 22.068 49.293 49.292z" fill="#c1877a"/></g></g></svg>