<svg id="Capa_1" enable-background="new 0 0 512 512" height="512" viewBox="0 0 512 512" width="512" xmlns="http://www.w3.org/2000/svg"><g><circle cx="256" cy="256" fill="#b16ee5" r="256"/><path d="m359.219 88.307-5.194-5.194-10.913 10.913 40.723 40.723-22.607 22.606 28.555 28.555-211.61 211.612-65.4-65.4-34.992 34.992 142.376 142.376c11.714 1.642 23.676 2.51 35.843 2.51 141.385 0 256-114.615 256-256 0-15.869-1.455-31.396-4.219-46.466l-134.894-134.895z" fill="#8335ba"/><path d="m374.962 110.09c-1.382-7.189-1.298-13.496-.831-18.28.508-2.493 1.016-4.985 1.523-7.478-.923-3.231-1.846-6.462-2.77-9.694-10.802 3.647-21.603 7.293-32.405 10.94.877 2.816 1.754 5.632 2.631 8.447 1.939 1.108 3.877 2.216 5.816 3.324 2.527 6.719 5.056 15.003 6.786 24.65 1.907 10.637 2.335 20.1 2.17 27.789l29.912-11.817c-3.965-5.042-10.263-14.514-12.832-27.881z" fill="#d59b8d"/><path d="m208.692 311.534c-29.124 7.355-35.318 1.947-76.442 10.34-23.989 4.896-42.774 11.997-54.469 16.987v16.475 11.775c3.743 2.058 7.487 4.115 11.23 6.173 7.116 5.988 17.727 13.854 31.792 20.6 45.608 21.874 102.523 19.967 154.581.81l17.191-75.184-17.191-40.05c-16.081 11.936-38.516 24.958-66.692 32.074z" fill="#fddf55"/><path d="m421.64 189.834c-7.266-25.181-23.088-42.286-33.846-51.864-2.183-.638-8.798-2.265-16.433.554-8.319 3.071-12.373 9.396-13.479 11.263-3.576 5.715-8.557 14.436-13.11 25.665-5.814 14.341-7.397 24.061-9.417 31.297-5.592 20.032-17.834 32.871-33.235 49.022-4.11 4.31-13.161 13.612-26.738 23.689v115.234c45.631-16.791 87.532-46.835 114.812-85.746 12.962-18.486 46.626-66.504 31.446-119.114zm-118.756 125.021c.001-.001.002-.002.003-.002l-.001.002z" fill="#fcbe50"/></g></svg>