<svg id="Capa_1" enable-background="new 0 0 512 512" height="512" viewBox="0 0 512 512" width="512" xmlns="http://www.w3.org/2000/svg"><g><circle cx="256" cy="256" fill="#fddf55" r="256"/><path d="m324.532 101.54-202.686 202.687 12.954 12.954-42.355 42.355 152.2 152.2c3.766.164 7.548.264 11.355.264 130.849 0 238.755-98.174 254.113-224.879z" fill="#fcbe50"/><g><path d="m256 268.027c-10.253-42.769-48.734-74.561-94.647-74.561-53.755 0-97.332 43.577-97.332 97.332s43.577 97.332 97.332 97.332c45.913 0 84.394-31.792 94.647-74.562l9.226-25.518z" fill="#b16ee5"/><path d="m188.592 282.245c-2.845-8.756-3.752-7.39-10.523-13.627-6.47-5.959-7.509-6.163-16.715-6.163s-9.026.554-16.474 5.966c-7.448 5.411-7.92 5.069-10.764 13.825-2.845 8.756-2.262 8.756.583 17.511 2.845 8.756 2.374 9.098 9.822 14.509s7.628 4.857 16.834 4.857 9.386.554 16.834-4.857 6.977-5.754 9.822-14.509c2.843-8.756 3.426-8.756.581-17.512z" fill="#9f4ad4"/></g><g><path d="m350.647 193.465c-45.913 0-84.394 31.792-94.647 74.561v45.541c10.253 42.769 48.734 74.562 94.647 74.562 53.755 0 97.332-43.577 97.332-97.332s-43.577-97.332-97.332-97.332z" fill="#9f4ad4"/><path d="m377.885 282.245c-2.845-8.756-3.752-7.39-10.523-13.627-6.47-5.959-7.509-6.163-16.715-6.163s-9.026.554-16.474 5.966c-7.448 5.411-7.919 5.069-10.764 13.825s-2.262 8.756.583 17.511c2.845 8.756 2.374 9.098 9.822 14.509s7.628 4.857 16.834 4.857 9.386.554 16.834-4.857 6.977-5.754 9.822-14.509c2.844-8.756 3.426-8.756.581-17.512z" fill="#8335ba"/></g><g><path d="m158.668 170.655c0 53.755 43.577 97.332 97.332 97.332l14.931-97.332-14.931-97.332c-53.755 0-97.332 43.577-97.332 97.332z" fill="#9f4ad4"/><path d="m353.332 170.655c0-53.755-43.577-97.332-97.332-97.332v194.664c53.755 0 97.332-43.577 97.332-97.332z" fill="#8335ba"/><path d="m239.526 148.278c-7.448 5.411-7.92 5.069-10.764 13.825-2.845 8.756-2.262 8.756.582 17.511 2.845 8.756 2.374 9.098 9.822 14.509s7.628 4.857 16.834 4.857l9.226-28.326-9.226-28.341c-9.206 0-9.026.554-16.474 5.965z" fill="#8335ba"/><path d="m272.834 194.124c7.448-5.411 6.977-5.754 9.822-14.509 2.845-8.756 3.427-8.756.582-17.511-2.845-8.756-3.752-7.39-10.523-13.627-6.47-5.959-7.509-6.163-16.715-6.163v56.668c9.206-.001 9.386.553 16.834-4.858z" fill="#6624a0"/></g></g></svg>