<svg id="Capa_1" enable-background="new 0 0 512 512" height="512" viewBox="0 0 512 512" width="512" xmlns="http://www.w3.org/2000/svg"><g><circle cx="256" cy="256" fill="#fddf55" r="256"/><path d="m509.779 289.782-144.064-144.064-9.995 27.977-105.78-105.78-124.366 124.366 73.217 73.217-96.478 96.478 149.977 149.977c1.236.018 2.47.047 3.71.047 129.932 0 237.243-96.802 253.779-222.218z" fill="#fcbe50"/><g><path d="m173.223 90.528-25.572-22.613v.178c0 37.268-15.416 72.845-42.505 98.439-26.313 24.86-42.733 60.079-42.733 99.136-.001 75.217 61.176 136.382 136.382 136.382l26.123-147.261-26.123-186.874z" fill="#ee4a41"/><path d="m335.177 265.669c0-38.837-16.236-73.879-42.289-98.716-27.13-25.863-42.95-61.382-42.95-98.864v-.175l-25.572 22.613-25.572-22.613v334.136c.032 0 .063.001.094.001 75.279-.051 136.289-61.092 136.289-136.382z" fill="#c82745"/></g><g><path d="m297.429 165.505-22.762-19.786v.156c0 32.61-13.722 63.739-37.835 86.134-23.421 21.753-38.037 52.568-38.038 86.743-.001 65.815 54.454 119.333 121.397 119.334l23.253-128.853-23.253-163.513z" fill="#ee4a41"/><path d="m441.588 318.752c0-33.982-14.452-64.644-37.642-86.375-24.149-22.63-38.23-53.709-38.23-86.505v-.153l-22.762 19.786-22.762-19.786v292.366c.028 0 .056.001.084.001 67.006-.046 121.312-53.456 121.312-119.334z" fill="#c82745"/><path d="m305.016 225.123c-43.06 7.225-75.873 44.668-75.873 89.781s32.813 82.556 75.873 89.781z" fill="#fb735d"/><path d="m335.366 225.123c43.06 7.225 75.873 44.668 75.873 89.781s-32.813 82.556-75.873 89.781z" fill="#ee4a41"/><g fill="#555a65"><path d="m250.073 307.404h15v15h-15z" transform="matrix(-1 0 0 -1 515.147 629.808)"/><path d="m274.978 337.753h15v15h-15z" transform="matrix(-1 0 0 -1 564.956 690.507)"/><path d="m274.978 277.055h15v15h-15z" transform="matrix(-1 0 0 -1 564.956 569.11)"/></g><path d="m375.309 307.404h15v15h-15z" fill="#333940"/><path d="m350.404 337.753h15v15h-15z" fill="#333940"/><path d="m350.404 277.055h15v15h-15z" fill="#333940"/></g></g></svg>