<svg id="Capa_1" enable-background="new 0 0 512 512" height="512" viewBox="0 0 512 512" width="512" xmlns="http://www.w3.org/2000/svg"><g><circle cx="256" cy="256" fill="#b16ee5" r="256"/><path d="m430.921 211.533-22.64 22.64-89.744-89.744-.834.834-90.902-90.902-31.762 31.762 90.972 90.972-188.667 188.668 145.921 145.921c4.219.206 8.464.316 12.735.316 129.747 0 236.934-96.528 253.704-221.684z" fill="#8335ba"/><g><path d="m189.251 54.362 5.365 62.581h13.41l6.705-30.996-6.705-31.585z" fill="#d59b8d"/><path d="m226.8 54.362-5.364 62.581h-13.41v-62.581z" fill="#c1877a"/><path d="m51.569 255.181c0 86.409 70.048 156.457 156.457 156.457l16.945-156.457-16.945-156.456c-86.409 0-156.457 70.048-156.457 156.456z" fill="#fcbe50"/><path d="m364.483 255.181c0-86.409-70.048-156.457-156.457-156.457v312.914c86.409 0 156.457-70.048 156.457-156.457z" fill="#fb9e48"/></g><g><path d="m226.971 296.082c0 65.998 53.502 119.5 119.5 119.5l14.315-119.5-14.315-119.5c-65.998 0-119.5 53.502-119.5 119.5z" fill="#fcbe50"/><path d="m465.971 296.082c0-65.998-53.502-119.5-119.5-119.5v239c65.998 0 119.5-53.502 119.5-119.5z" fill="#fb9e48"/><path d="m254.264 296.082-2.972 8.962c1.803 19.749 9.57 37.599 21.539 52.002l9.05 2.784 3.625 9.891c14.38 11.9 32.338 19.7 52.002 21.539l8.963-1.657 10.73-93.521-10.73-94.217-8.963-.961c-19.689 1.82-37.6 9.561-52.002 21.539l-3.71 8.281-8.965 4.394c-11.971 14.412-19.726 32.295-21.539 52.002z" fill="#fb735d"/><path d="m438.678 296.082 2.972 8.962c-1.803 19.749-9.57 37.599-21.539 52.002l-9.05 2.784-3.625 9.891c-14.38 11.9-32.338 19.7-52.002 21.539l-8.963-1.657v-187.738l8.963-.961c19.689 1.82 37.6 9.561 52.002 21.539l3.71 8.281 8.965 4.394c11.971 14.412 19.726 32.295 21.539 52.002z" fill="#ee4a41"/><path d="m346.471 391.682 7.325-95.6-7.325-95.6c-3.023 0-6.011.147-8.963.421v73.541l-52.002-52.002c-4.609 3.82-8.854 8.065-12.675 12.675l52.002 52.002h-73.541c-.275 2.951-.422 5.94-.422 8.963s.147 6.011.422 8.962h73.541l-52.002 52.002c3.821 4.61 8.065 8.854 12.675 12.675l52.002-52.002v73.541c2.952.275 5.94.422 8.963.422z" fill="#ee4a41"/><path d="m346.471 391.682v-191.2c3.023 0 6.011.147 8.963.421v73.541l52.002-52.002c4.609 3.82 8.854 8.065 12.675 12.675l-52.002 52.002h73.541c.275 2.951.422 5.94.422 8.963s-.147 6.011-.422 8.962h-73.541l52.002 52.002c-3.821 4.61-8.065 8.854-12.675 12.675l-52.002-52.002v73.541c-2.952.275-5.94.422-8.963.422z" fill="#c82745"/></g></g></svg>