<svg id="Capa_1" enable-background="new 0 0 512 512" height="512" viewBox="0 0 512 512" width="512" xmlns="http://www.w3.org/2000/svg"><g><circle cx="256" cy="256" fill="#fee6b7" r="256"/><path d="m417.413 241.989-3.104 3.104-128.444-128.445-133.759 133.759 53.592 53.592-81.608 81.608 126.322 126.322c1.859.04 3.72.071 5.588.071 116.864 0 215.433-78.31 246.109-185.315z" fill="#fdca86"/><g><path d="m73.043 251.202c0 93.973 59.103 170.154 132.009 170.154l23.003-170.154-23.003-170.154c-72.907 0-132.009 76.181-132.009 170.154z" fill="#c1877a"/><path d="m337.062 251.202c0-93.974-59.103-170.154-132.01-170.154v340.308c72.907 0 132.01-76.18 132.01-170.154z" fill="#a35d50"/><g fill="#d59b8d"><path d="m126.219 172.523h18.263v18.263h-18.263z" transform="matrix(0 1 -1 0 317.004 46.304)"/><path d="m144.481 190.786h18.263v18.263h-18.263z" transform="matrix(0 1 -1 0 353.53 46.304)"/></g></g><g><path d="m242.057 314.791c0 56.77 46.021 102.791 102.791 102.791l12.313-102.791-12.313-102.791c-56.77 0-102.791 46.021-102.791 102.791z" fill="#c1877a"/><path d="m447.638 314.791c0-56.77-46.021-102.791-102.791-102.791v205.581c56.77.001 102.791-46.02 102.791-102.79z" fill="#a35d50"/><path d="m262.615 314.791c0 45.416 36.817 82.233 82.233 82.233l7.709-82.233-7.709-82.233c-45.416 0-82.233 36.817-82.233 82.233z" fill="#b7c958"/><path d="m427.08 314.791c0-45.416-36.817-82.233-82.233-82.233v164.465c45.416.001 82.233-36.816 82.233-82.232z" fill="#89aa3b"/><path d="m317.437 314.791c0 15.139 12.272 27.411 27.411 27.411l6.539-27.411-6.539-27.411c-15.139 0-27.411 12.272-27.411 27.411z" fill="#fddf55"/><path d="m372.258 314.791c0-15.139-12.272-27.411-27.411-27.411v54.822c15.139 0 27.411-12.272 27.411-27.411z" fill="#fcbe50"/><path d="m337.138 356.764v25.698h7.71l2.952-12.849-2.952-12.849z" fill="#555a65"/><path d="m344.848 356.764h7.709v25.698h-7.709z" fill="#333940"/><path d="m337.138 247.12v25.698h7.71l2.952-12.849-2.952-12.849z" fill="#555a65"/><path d="m344.848 247.12h7.709v25.698h-7.709z" fill="#333940"/><g fill="#555a65"><path d="m298.373 340.707h15.419v25.698h-15.419z" transform="matrix(.707 .707 -.707 .707 339.651 -112.879)"/><path d="m282.316 301.942h15.419v25.698h-15.419z" transform="matrix(0 1 -1 0 604.817 24.765)"/><path d="m298.373 263.177h15.419v25.698h-15.419z" transform="matrix(-.707 .707 -.707 -.707 717.696 254.773)"/></g><path d="m375.903 263.177h15.419v25.698h-15.419z" fill="#333940" transform="matrix(.707 .707 -.707 .707 307.537 -190.409)"/><path d="m391.96 301.942h15.419v25.698h-15.419z" fill="#333940" transform="matrix(0 1 -1 0 714.46 -84.878)"/><path d="m375.903 340.707h15.419v25.698h-15.419z" fill="#333940" transform="matrix(-.707 .707 -.707 -.707 904.869 332.303)"/></g></g></svg>