<svg id="Capa_1" enable-background="new 0 0 512 512" height="512" viewBox="0 0 512 512" width="512" xmlns="http://www.w3.org/2000/svg"><g><circle cx="256" cy="256" fill="#fee6b7" r="256"/><path d="m384.552 213.438-15.652 15.652-163.727-163.728-25.799 25.799 112.756 112.756-166.959 166.959 140.908 140.908c111.218-4.308 204.22-79.554 235.042-181.778z" fill="#fdca86"/><g><path d="m171.784 65.362 4.77 50.812h11.924l5.963-25.167-5.963-25.645z" fill="#d59b8d"/><path d="m205.173 65.362-4.77 50.812h-11.925v-50.812z" fill="#c1877a"/><path d="m188.478 104.233c-69.883 0-123.114 55.281-122.51 128.607.579 70.317 50.655 157.863 122.51 175.466l18.167-166.982z" fill="#fb735d"/><path d="m310.989 232.84c.604-73.327-52.628-128.607-122.51-128.607v304.073c71.854-17.603 121.931-105.149 122.51-175.466z" fill="#ee4a41"/></g><g><path d="m330.104 425.66c-58.336 0-102.771-44.321-102.267-103.111.483-56.377 42.285-126.567 102.267-140.68l15.165 133.878z" fill="#fb735d"/><path d="m432.372 322.548c.504 58.79-43.932 103.111-102.267 103.111v-243.791c59.981 14.113 101.783 84.303 102.267 140.68z" fill="#ee4a41"/><path d="m330.104 403.128-7.5 1.345c-8.031-.646-15.691-2.301-22.861-4.904l-7.382-7.462-7.618.274c-14.89-9.113-26.593-22.805-33.212-39.349l.489-8.989-4.919-6.011c-1.209-6.014-1.815-12.199-1.76-18.698.011-1.292.048-2.494.112-3.802l3.95-7.553-2.183-7.447c1.409-7.618 3.578-15.271 6.469-22.86l5.863-7.096.854-7.904c6.382-12.306 14.626-23.837 24.337-33.536l7.363-1.837 7.637-10.752c7.123-4.951 14.73-8.91 22.861-11.656l7.5-.188 11.151 101.617z" fill="#fddf55"/><path d="m330.047 403.128 7.5 1.345c8.031-.646 15.691-2.301 22.861-4.904l7.382-7.462 7.618.274c14.89-9.113 26.593-22.805 33.212-39.349l-.489-8.989 4.919-6.011c1.209-6.014 1.815-12.199 1.76-18.698-.011-1.292-.049-2.494-.112-3.802l-3.95-7.553 2.183-7.447c-1.409-7.618-3.578-15.271-6.469-22.86l-5.863-7.096-.854-7.904c-6.382-12.306-14.626-23.837-24.337-33.536l-7.363-1.837-7.637-10.752c-7.123-4.951-14.73-8.91-22.861-11.656l-7.5-.188z" fill="#fcbe50"/><path d="m322.604 204.89v57.781h-22.861v-46.125c-5.32 3.698-10.332 7.933-15 12.589v33.536h-24.337c-2.54 4.899-4.784 9.922-6.716 15h31.053v22.86h-37.523c-.939 5.064-1.535 10.085-1.767 15h39.29v22.5h-37.642c1.042 5.215 2.523 10.232 4.43 15h33.212v39.349c4.691 2.86 9.707 5.273 15 7.188v-46.537h22.861v51.441c2.469.198 4.964.322 7.5.322l4.683-97.794-4.683-104.267c-2.541.598-5.04 1.324-7.5 2.157zm0 133.141h-22.861v-22.5h22.861zm0-37.5h-22.861v-22.86h22.861z" fill="#fcbe50"/><path d="m330.047 202.733v202.061c2.536 0 5.031-.124 7.5-.322v-51.441h22.861v46.537c5.293-1.915 10.309-4.328 15-7.188v-39.349h33.212c1.907-4.768 3.388-9.785 4.43-15h-37.642v-22.5h39.29c-.232-4.915-.829-9.936-1.767-15h-37.523v-22.86h31.053c-1.933-5.078-4.176-10.101-6.716-15h-24.337v-33.536c-4.668-4.656-9.68-8.891-15-12.589v46.125h-22.861v-57.781c-2.46-.833-4.959-1.559-7.5-2.157zm7.5 112.798h22.861v22.5h-22.861zm0-37.86h22.861v22.86h-22.861z" fill="#fb9e48"/></g></g></svg>