<svg id="Capa_1" enable-background="new 0 0 512 512" height="512" viewBox="0 0 512 512" width="512" xmlns="http://www.w3.org/2000/svg"><g><circle cx="256" cy="256" fill="#b7c958" r="256"/><path d="m398.758 191.153-20.248 20.248-56.901-56.901-.835.835-90.974-90.974-26.57 26.571 90.964 90.964-193.859 193.858 135.454 135.454c6.669.521 13.408.792 20.211.792 141.385 0 256-114.615 256-256 0-1.607-.031-3.207-.061-4.807l-90.185-90.185z" fill="#89aa3b"/><g><path d="m192.251 64.362 5.365 62.581h13.41l6.705-30.996-6.705-31.585z" fill="#d59b8d"/><path d="m229.8 64.362-5.364 62.581h-13.41v-62.581z" fill="#c1877a"/><path d="m54.569 265.181c0 86.409 70.048 156.457 156.457 156.457l16.945-156.457-16.945-156.457c-86.409.001-156.457 70.049-156.457 156.457z" fill="#fcbe50"/><g fill="#fb9e48"><path d="m367.483 265.181c0-86.409-70.048-156.457-156.457-156.457v312.914c86.409 0 156.457-70.048 156.457-156.457z"/><path d="m122.667 217.417h20.861v20.861h-20.861z"/><path d="m143.528 196.556h20.861v20.861h-20.861z"/></g></g><g><path d="m210.513 372.129c58.316 58.316 152.865 58.316 211.181 0l-50.732-70.981-51.909-31.659-89.907 84.007z" fill="#fcbe50"/><path d="m421.694 160.948-18.634 18.634-84.007 89.907 102.64 102.64c58.317-58.316 58.317-152.865.001-211.181z" fill="#fb9e48"/><path d="m229.147 353.496c48.025 48.025 125.889 48.025 173.914 0l-34.609-49.334-50.135-35.41-8.8 4.375z" fill="#fddf55"/><path d="m403.06 179.582-80.369 80.369-4.375 8.801 84.744 84.744c48.025-48.025 48.025-125.889 0-173.914z" fill="#fcbe50"/><path d="m309.516 273.127v129.563h13.175l.001-120.247 85.027 85.028 4.658-4.659-96.273-96.273z" fill="#fcbe50"/><path d="m332.008 273.127h120.247v-13.176h-129.563l-6.588 6.588 96.273 96.273 4.659-4.658z" fill="#fb9e48"/></g></g></svg>