<svg id="Capa_1" enable-background="new 0 0 512 512" height="512" viewBox="0 0 512 512" width="512" xmlns="http://www.w3.org/2000/svg"><g><circle cx="256" cy="256" fill="#fb735d" r="256"/><path d="m231.037 43.638-27.499 27.499 51.18 51.18-113.802 113.801 56.396 56.396-77.387 77.387 142.024 142.024c117.65-2.683 215.678-84.737 242.666-194.709z" fill="#ee4a41"/><g><path d="m193.87 43.638 5.309 61.947h13.275l6.637-30.682-6.637-31.265z" fill="#d59b8d"/><path d="m231.037 43.638-5.309 61.947h-13.275v-61.947z" fill="#c1877a"/><path d="m135.641 153.817c0 .49.005.98.016 1.468.535 24.204-8.291 47.641-23.986 67.039-15.076 18.633-24.227 41.587-24.874 66.486-1.668 64.192 54.29 117.921 123.863 118.816.599.008 1.195.002 1.793.002l20.023-162.34-20.022-162.344c-42.421.002-76.813 31.725-76.813 70.873z" fill="#b7c958"/><path d="m338.145 291.644c0-26.846-9.884-51.559-26.476-71.214-15.647-18.535-22.914-41.722-22.419-65.213.036-1.699.007-3.412-.09-5.139-2.022-36.19-33.946-65.451-73.176-67.072-1.184-.049-2.359-.061-3.531-.061v324.682c69.417-.001 125.692-51.923 125.692-115.983z" fill="#89aa3b"/></g><g><path d="m252.661 237.281c0 .403.004.806.013 1.207.44 19.909-6.82 39.189-19.73 55.145-12.401 15.327-19.928 34.209-20.461 54.69-1.372 52.803 44.658 97 101.888 97.736.493.006.983.002 1.475.002l16.471-133.539-16.471-133.541c-34.895.002-63.185 26.098-63.185 58.3z" fill="#b7c958"/><path d="m419.238 350.655c0-22.083-8.13-42.412-21.778-58.58-12.871-15.247-18.849-34.32-18.442-53.644.029-1.397.005-2.807-.074-4.227-1.664-29.77-27.924-53.839-60.193-55.173-.974-.04-1.941-.05-2.905-.05v267.079c57.101.001 103.392-42.71 103.392-95.405z" fill="#89aa3b"/><path d="m268.458 249.417c0 .338.003.676.01 1.013.33 16.698-5.115 32.868-14.798 46.251-9.301 12.855-14.946 28.691-15.346 45.869-1.029 44.286 33.494 81.355 76.416 81.972.37.005.737.001 1.106.001l10.797-93.223-10.797-130.779c-26.171.001-47.388 21.887-47.388 48.896z" fill="#fef7cf"/><path d="m363.234 249.417c0 .338-.003.676-.01 1.013-.33 16.698 5.115 32.868 14.798 46.251 9.301 12.855 14.946 28.691 15.346 45.869 1.029 44.286-33.494 81.355-76.416 81.972-.37.005-.737.001-1.106.001v-224.002c26.171.001 47.388 21.887 47.388 48.896z" fill="#fee6b7"/><path d="m286.451 348.963c6.591 0 11.934-4.849 11.934-10.83s-11.934-24.496-11.934-24.496-11.934 18.515-11.934 24.496 5.343 10.83 11.934 10.83z" fill="#555a65"/><path d="m345.24 348.963c-6.591 0-11.934-4.849-11.934-10.83s11.934-24.496 11.934-24.496 11.934 18.515 11.934 24.496-5.342 10.83-11.934 10.83z" fill="#333940"/></g></g></svg>