<svg id="Capa_1" enable-background="new 0 0 512 512" height="512" viewBox="0 0 512 512" width="512" xmlns="http://www.w3.org/2000/svg"><g><circle cx="256" cy="256" fill="#fb735d" r="256"/><path d="m294.737 82.814-14.464-1.349-12.044 12.044-56.934-56.934-8.687 30.094 7.263 7.263-25.621 25.621-13.731-13.731-41.787-3.006 41.067 41.067-13.618 13.617-15.862-15.862-30.033-2.583 173.71 173.71-136.279 136.278 81.574 81.574c8.779.91 17.689 1.383 26.709 1.383 127.489 0 233.196-93.198 252.746-215.177z" fill="#ee4a41"/><g><g><path d="m211.296 164.423c-33.552-35.304-33.552-92.544 0-127.848l6.253 63.924z" fill="#89aa3b"/><path d="m211.296 164.423c33.552-35.304 33.552-92.544 0-127.848z" fill="#5f8727"/><path d="m211.296 112.063c-5.496-9.465-13.191-17.577-22.676-23.459-27.364-16.971-56.198-7.12-59.887-5.789 7.049 2.451 25.081 9.776 39.126 28.546 12.333 16.482 15.162 33.195 15.97 40.723h27.467l6.254-20.761z" fill="#b7c958"/><path d="m211.296 149.435c-5.025-7.236-12.367-15.488-22.857-22.303-34.313-22.293-72.656-9.953-78.153-8.085 12.579 5.518 30.135 15.129 47.011 31.74 8.872 8.733 15.604 17.479 20.661 25.153 11.112-4.146 22.225-8.293 33.337-12.439l4.054-6.874z" fill="#89aa3b"/><path d="m234.851 88.604c-9.999 6.201-18.015 14.877-23.556 25.006v38.474h28.347c.808-7.529 3.636-24.241 15.97-40.723 14.046-18.77 32.077-26.095 39.126-28.546-3.688-1.331-32.523-11.182-59.887 5.789z" fill="#89aa3b"/><path d="m234.153 127.132c-10.49 6.815-17.832 15.068-22.857 22.304v14.064c11.113 4.146 22.225 8.293 33.337 12.439 5.057-7.673 11.789-16.42 20.661-25.153 16.876-16.611 34.432-26.222 47.011-31.74-5.496-1.867-43.839-14.207-78.152 8.086z" fill="#5f8727"/></g><path d="m211.296 155.951c-14.78 0-28.725 3.57-41.023 9.893l-5.609 8.401-11.322 2.903c-10.299 8.727-18.633 19.752-24.194 32.275l.429 12.95-6.93 8.783c-.785 4.765-1.193 9.655-1.193 14.637v40.639l3.875 19.256-3.875 19.256v40.639c0 4.998.408 9.86 1.193 14.637l5.698 9.392.788 12.357c5.536 12.504 13.917 23.543 24.209 32.26l10.621 3.681 6.31 7.622c12.301 6.325 26.228 9.893 41.023 9.893l14.117-149.737z" fill="#fddf55"/><path d="m211.296 155.951c14.78 0 28.725 3.57 41.023 9.893l5.609 8.401 11.322 2.903c10.299 8.727 18.633 19.752 24.194 32.275l-.429 12.95 6.93 8.783c.785 4.765 1.193 9.655 1.193 14.637v40.639l-3.875 19.256 3.875 19.256v40.639c0 4.998-.408 9.86-1.193 14.637l-5.698 9.392-.788 12.357c-5.536 12.504-13.917 23.543-24.209 32.26l-10.621 3.681-6.31 7.622c-12.301 6.325-26.228 9.893-41.023 9.893z" fill="#fcbe50"/><path d="m211.296 376.275-28.235-28.235 28.235-28.235 7.037-14.146-7.037-14.089-28.235-28.235 28.235-28.235 7.037-14.532-7.037-13.703-41.023-41.023c-6.081 3.126-11.755 6.929-16.931 11.304l43.836 43.836-28.235 28.235-39.811-39.811c-3.035 6.843-5.238 14.134-6.486 21.749l32.18 32.18-28.235 28.235-5.138-5.138v38.511l5.138-5.138 28.235 28.235-32.18 32.18c1.248 7.614 3.451 14.906 6.486 21.749l39.811-39.811 28.235 28.235-43.836 43.836c5.176 4.374 10.85 8.177 16.931 11.304l41.023-41.023 7.037-15.058zm-70.587-70.587 28.235-28.235 28.235 28.235-28.235 28.235z" fill="#fcbe50"/><path d="m211.296 404.51 41.023 41.023c6.081-3.126 11.755-6.929 16.931-11.304l-43.836-43.836 28.235-28.235 39.811 39.811c3.035-6.843 5.238-14.134 6.486-21.749l-32.18-32.18 28.234-28.234 5.138 5.138v-38.511l-5.138 5.138-28.235-28.235 32.18-32.18c-1.248-7.614-3.451-14.906-6.486-21.749l-39.811 39.811-28.235-28.235 43.836-43.836c-5.176-4.374-10.85-8.177-16.931-11.304l-41.023 41.023v28.235l28.235 28.235-28.235 28.235v28.235l28.235 28.235-28.235 28.235v28.234zm42.352-70.587-28.235-28.235 28.235-28.235 28.235 28.235z" fill="#fb9e48"/></g><g><path d="m303.747 316.01c0-17.391 14.098-31.489 31.489-31.489l11.699-31.243-11.699-29.746c-51.074 0-92.478 41.404-92.478 92.478s41.404 92.478 92.478 92.478l11.699-29.332-11.699-31.658c-17.391 0-31.489-14.098-31.489-31.488z" fill="#fddf55"/><path d="m335.236 223.531v60.99c17.391 0 31.489 14.098 31.489 31.489s-14.098 31.489-31.489 31.489v60.99c51.074 0 92.478-41.404 92.478-92.478 0-51.076-41.404-92.48-92.478-92.48z" fill="#fcbe50"/></g></g></svg>