<svg id="Capa_1" enable-background="new 0 0 512 512" height="512" viewBox="0 0 512 512" width="512" xmlns="http://www.w3.org/2000/svg"><g><circle cx="256" cy="256" fill="#b16ee5" r="256"/><path d="m419.121 212.624-73.097-73.097-39.401 39.401-167.795 167.794-39.401 39.401 123.797 123.797c10.733 1.371 21.671 2.08 32.776 2.08 141.385 0 256-114.615 256-256 0-6.294-.238-12.532-.684-18.712l-70.538-70.538z" fill="#8335ba"/><g><path d="m222.78 88.511c-96.301 0-174.369 78.068-174.369 174.369s78.068 174.369 174.369 174.369l18.84-174.369z" fill="#b7c958"/><path d="m397.15 262.88c0-96.301-78.068-174.369-174.369-174.369v348.738c96.301 0 174.369-78.068 174.369-174.369z" fill="#89aa3b"/><path d="m222.78 88.511c-31.932 0-57.817 78.068-57.817 174.369s25.886 174.369 57.817 174.369c-63.863 0-115.634-78.068-115.634-174.369s51.771-174.369 115.634-174.369z" fill="#89aa3b"/><path d="m222.78 88.511c31.932 0 57.817 78.068 57.817 174.369s-25.886 174.369-57.817 174.369c63.863 0 115.634-78.068 115.634-174.369s-51.771-174.369-115.634-174.369z" fill="#5f8727"/></g><g><path d="m222.78 384.61c.001 0 .001 0 0 0 50.15 50.15 139.589 42.019 199.768-18.161l-33.577-54.674-52.384-31.287-95.647 85.961z" fill="#b7c958"/><path d="m440.71 166.681-18.161 18.161-85.961 95.647 85.961 85.961c60.179-60.18 68.31-149.619 18.161-199.769z" fill="#89aa3b"/><path d="m240.941 366.449c0 .001 0 .001 0 0 40.12 40.12 113.297 31.989 163.447-18.161l-30.469-42.174-42.174-30.469z" fill="#fb735d"/><path d="m422.549 184.842-90.804 90.804 72.643 72.643c50.15-50.15 58.28-123.327 18.161-163.447z" fill="#ee4a41"/><path d="m311.112 355.607c3.358-3.358 3.61-8.55.563-11.597s-18.559-6.399-18.559-6.399 3.352 15.512 6.399 18.559 8.239 2.795 11.597-.563z" fill="#555a65"/><path d="m357.171 357.529c3.358-3.358 3.61-8.55.563-11.597s-18.559-6.399-18.559-6.399 3.352 15.512 6.399 18.559 8.239 2.795 11.597-.563z" fill="#555a65"/><path d="m413.628 301.071c3.358-3.358 3.61-8.55.563-11.597s-18.559-6.399-18.559-6.399 3.352 15.512 6.399 18.559 8.24 2.795 11.597-.563z" fill="#333940"/><path d="m411.787 254.932c3.358-3.358 3.61-8.55.563-11.597s-18.559-6.399-18.559-6.399 3.352 15.512 6.399 18.559 8.24 2.795 11.597-.563z" fill="#333940"/><path d="m349.812 305.873c3.047 3.047 8.239 2.795 11.597-.563l-5.204-10.227-12.793-7.769c.001.002 3.354 15.512 6.4 18.559z" fill="#555a65"/><path d="m361.972 293.713c-3.047-3.047-18.559-6.399-18.559-6.399l17.996 17.996c3.358-3.358 3.61-8.55.563-11.597z" fill="#333940"/></g></g></svg>