<svg width="55" height="53" viewBox="0 0 55 53" fill="none" xmlns="http://www.w3.org/2000/svg">
<path fill-rule="evenodd" clip-rule="evenodd" d="M4.31017 35.7108C-2.63734 18.6579 9.9082 0 28.3221 0H29.3155C43.0866 0 54.2503 11.1637 54.2503 24.9348C54.2503 40.2673 41.8209 52.6967 26.4884 52.6967H2.31817C1.33452 52.6967 0.457989 52.0759 0.131523 51.148C-0.194941 50.2201 0.0997593 49.1872 0.866699 48.5713L6.96002 43.6778C7.22644 43.4639 7.32069 43.1003 7.19176 42.7838L4.31017 35.7108ZM28.3221 4.63607C13.2007 4.63607 2.89834 19.9578 8.6036 33.9617L11.4852 41.0347C12.3877 43.2499 11.728 45.7948 9.86295 47.2925L8.90654 48.0606H26.4884C39.2605 48.0606 49.6142 37.7068 49.6142 24.9348C49.6142 13.7241 40.5262 4.63607 29.3155 4.63607H28.3221Z" fill="black"/>
</svg>
