<svg width="55" height="61" viewBox="0 0 55 61" fill="none" xmlns="http://www.w3.org/2000/svg">
<path fill-rule="evenodd" clip-rule="evenodd" d="M9.93999 10.758C9.93999 5.21036 14.4372 0.713135 19.9848 0.713135C23.0917 0.713135 25.8691 2.12364 27.7116 4.33921C29.5541 2.12364 32.3315 0.713135 35.4384 0.713135C40.986 0.713135 45.4832 5.21036 45.4832 10.758C45.4832 12.7494 44.9037 14.6054 43.9041 16.1667H46.2559C50.95 16.1667 54.7554 19.9721 54.7554 24.6662V30.8476C54.7554 33.333 53.079 35.4269 50.7952 36.0602C51.2405 41.7057 50.9826 47.388 50.025 52.9763C49.4532 56.3132 46.743 58.8695 43.3784 59.2455L40.5521 59.5614C32.0183 60.5152 23.4049 60.5152 14.8712 59.5614L12.0448 59.2455C8.68019 58.8695 5.97004 56.3132 5.39823 52.9763C4.44064 47.388 4.18274 41.7057 4.62801 36.0602C2.34425 35.4269 0.667847 33.333 0.667847 30.8476V24.6662C0.667847 19.9721 4.47319 16.1667 9.16731 16.1667H11.5191C10.5195 14.6054 9.93999 12.7494 9.93999 10.758ZM25.3936 10.758C25.3936 7.77079 22.972 5.34921 19.9848 5.34921C16.9976 5.34921 14.5761 7.77079 14.5761 10.758C14.5761 13.7451 16.9976 16.1667 19.9848 16.1667C22.972 16.1667 25.3936 13.7451 25.3936 10.758ZM35.4384 16.1667C38.4256 16.1667 40.8471 13.7451 40.8471 10.758C40.8471 7.77079 38.4256 5.34921 35.4384 5.34921C32.4512 5.34921 30.0296 7.77079 30.0296 10.758C30.0296 13.7451 32.4512 16.1667 35.4384 16.1667ZM5.30392 24.6662C5.30392 22.5325 7.03362 20.8028 9.16731 20.8028H25.3936V31.6203H6.0766C5.64986 31.6203 5.30392 31.2743 5.30392 30.8476V24.6662ZM30.0296 36.2564H46.16C46.5936 41.5742 46.3577 46.9286 45.4555 52.1933C45.2325 53.4946 44.1756 54.4915 42.8635 54.6381L40.0371 54.954C36.7105 55.3258 33.3712 55.5466 30.0296 55.6165V36.2564ZM30.0296 31.6203H49.3466C49.7733 31.6203 50.1193 31.2743 50.1193 30.8476V24.6662C50.1193 22.5325 48.3896 20.8028 46.2559 20.8028H30.0296V31.6203ZM25.3936 36.2564V55.6165C22.052 55.5466 18.7127 55.3258 15.3861 54.954L12.5597 54.6381C11.2476 54.4915 10.1907 53.4946 9.9677 52.1932C9.06555 46.9286 8.82961 41.5742 9.26323 36.2564H25.3936Z" fill="black"/>
</svg>
