<svg width="59" height="51" viewBox="0 0 59 51" fill="none" xmlns="http://www.w3.org/2000/svg">
<path fill-rule="evenodd" clip-rule="evenodd" d="M17.5363 27.0438C17.5363 20.6427 22.7254 15.4536 29.1265 15.4536C35.5276 15.4536 40.7167 20.6427 40.7167 27.0438C40.7167 33.4448 35.5276 38.6339 29.1265 38.6339C22.7254 38.6339 17.5363 33.4448 17.5363 27.0438ZM29.1265 20.0896C25.2858 20.0896 22.1724 23.2031 22.1724 27.0438C22.1724 30.8844 25.2858 33.9979 29.1265 33.9979C32.9671 33.9979 36.0806 30.8844 36.0806 27.0438C36.0806 23.2031 32.9671 20.0896 29.1265 20.0896Z" fill="black"/>
<path fill-rule="evenodd" clip-rule="evenodd" d="M24.8493 4.63607C21.619 4.63607 19.0003 7.25477 19.0003 10.4851C19.0003 12.5434 17.4203 14.257 15.3687 14.4236L8.47767 14.9832C7.12465 15.0931 6.0119 16.0936 5.75936 17.4274C4.37242 24.7524 4.26901 32.2627 5.45373 39.6232L5.7543 41.4906C6.03816 43.2542 7.48967 44.5959 9.27009 44.7405L15.2733 45.228C24.4936 45.9768 33.7594 45.9768 42.9797 45.228L48.9829 44.7405C50.7633 44.5959 52.2148 43.2542 52.4987 41.4906L52.7992 39.6232C53.9839 32.2627 53.8805 24.7524 52.4936 17.4274C52.241 16.0936 51.1283 15.0931 49.7753 14.9832L42.8842 14.4236C40.8327 14.257 39.2526 12.5434 39.2526 10.4851C39.2526 7.25477 36.6339 4.63607 33.4036 4.63607H24.8493ZM14.383 9.85229C14.7102 4.35617 19.2711 0 24.8493 0H33.4036C38.9819 0 43.5428 4.35617 43.8699 9.85229L50.1506 10.3624C53.5841 10.6412 56.4079 13.1802 57.0487 16.5649C58.5356 24.4177 58.6465 32.4692 57.3764 40.3599L57.0758 42.2273C56.4527 46.0986 53.2664 49.0439 49.3581 49.3614L43.3549 49.8489C33.8849 50.618 24.3681 50.618 14.898 49.8489L8.89481 49.3614C4.98652 49.0439 1.80026 46.0986 1.17714 42.2273L0.876566 40.3599C-0.393513 32.4692 -0.282646 24.4177 1.20422 16.5649C1.84509 13.1802 4.66887 10.6412 8.1024 10.3624L14.383 9.85229Z" fill="black"/>
</svg>
