<svg width="55" height="60" viewBox="0 0 55 60" fill="none" xmlns="http://www.w3.org/2000/svg">
<path fill-rule="evenodd" clip-rule="evenodd" d="M27.0438 12.3629C21.4962 12.3629 16.9989 16.8601 16.9989 22.4077C16.9989 27.9553 21.4962 32.4525 27.0438 32.4525C32.5914 32.4525 37.0886 27.9553 37.0886 22.4077C37.0886 16.8601 32.5914 12.3629 27.0438 12.3629ZM21.635 22.4077C21.635 19.4205 24.0566 16.9989 27.0438 16.9989C30.0309 16.9989 32.4525 19.4205 32.4525 22.4077C32.4525 25.3949 30.0309 27.8164 27.0438 27.8164C24.0566 27.8164 21.635 25.3949 21.635 22.4077Z" fill="black"/>
<path fill-rule="evenodd" clip-rule="evenodd" d="M27.0438 0C14.6683 0 4.63609 10.0323 4.63609 22.4077C4.63609 26.9453 5.98482 31.1678 8.30326 34.6963L0.310562 48.5401C-0.143973 49.3274 -0.0963651 50.3077 0.432321 51.0472C0.961006 51.7867 1.87317 52.149 2.76517 51.9736L10.8439 50.3855L13.5079 58.1759C13.802 59.0361 14.5718 59.6449 15.4766 59.733C16.3814 59.8211 17.2542 59.3722 17.7087 58.5849L25.682 44.7747C26.1325 44.8017 26.5865 44.8154 27.0438 44.8154C27.501 44.8154 27.955 44.8017 28.4055 44.7747L36.3788 58.5849C36.8338 59.373 37.7078 59.8219 38.6135 59.7328C39.5191 59.6436 40.2887 59.0328 40.5813 58.1712L43.2318 50.3649L51.3174 51.9726C52.21 52.1501 53.1237 51.7889 53.6538 51.0492C54.1838 50.3095 54.232 49.3282 53.777 48.5401L45.7843 34.6963C48.1027 31.1678 49.4515 26.9452 49.4515 22.4077C49.4515 10.0323 39.4192 0 27.0438 0ZM9.27216 22.4077C9.27216 12.5927 17.2288 4.63607 27.0438 4.63607C36.8588 4.63607 44.8154 12.5927 44.8154 22.4077C44.8154 32.2227 36.8588 40.1793 27.0438 40.1793C17.2288 40.1793 9.27216 32.2227 9.27216 22.4077ZM20.8121 43.9375C17.2486 42.9078 14.0503 41.0174 11.457 38.506L6.87592 46.4407L11.9353 45.4461C13.0729 45.2225 14.2007 45.8736 14.5758 46.9706L16.2441 51.8494L20.8121 43.9375ZM37.836 51.8367L33.2754 43.9375C36.8389 42.9078 40.0373 41.0174 42.6306 38.506L47.2043 46.4279L42.1424 45.4214C41.0016 45.1946 39.8693 45.8483 39.4953 46.9497L37.836 51.8367Z" fill="black"/>
</svg>
