<svg width="55" height="55" viewBox="0 0 55 55" fill="none" xmlns="http://www.w3.org/2000/svg">
<path d="M29.3618 11.5902C29.3618 10.31 28.324 9.27214 27.0438 9.27214C25.7635 9.27214 24.7257 10.31 24.7257 11.5902V27.0438C24.7257 27.843 25.1374 28.5859 25.8152 29.0094L35.0873 34.8045C36.173 35.4831 37.6031 35.153 38.2816 34.0674C38.9601 32.9818 38.6301 31.5517 37.5445 30.8732L29.3618 25.759V11.5902Z" fill="black"/>
<path fill-rule="evenodd" clip-rule="evenodd" d="M27.0438 0C12.1079 0 0 12.1079 0 27.0438C0 41.9796 12.1079 54.0875 27.0438 54.0875C41.9796 54.0875 54.0875 41.9796 54.0875 27.0438C54.0875 12.1079 41.9796 0 27.0438 0ZM4.63607 27.0438C4.63607 14.6683 14.6683 4.63607 27.0438 4.63607C39.4192 4.63607 49.4514 14.6683 49.4514 27.0438C49.4514 39.4192 39.4192 49.4514 27.0438 49.4514C14.6683 49.4514 4.63607 39.4192 4.63607 27.0438Z" fill="black"/>
</svg>
