<svg width="64" height="39" viewBox="0 0 64 39" fill="none" xmlns="http://www.w3.org/2000/svg">
<path d="M63 19.38L58.09 11.2C57.692 10.5306 57.127 9.97602 56.4504 9.5904C55.7738 9.20478 55.0088 9.00134 54.23 8.99999H47.15L48.46 2.99999C48.5343 2.6359 48.5265 2.25981 48.4372 1.8991C48.3479 1.53838 48.1793 1.20212 47.9437 0.914771C47.7081 0.627421 47.4113 0.396213 47.0751 0.23797C46.7389 0.0797265 46.3716 -0.00157134 46 -8.40231e-06H11.11C10.5359 0.00402968 9.98052 0.204762 9.5365 0.568715C9.09247 0.932668 8.78664 1.43784 8.67 1.99999L8.14 4.41999C8.12555 4.48565 8.12418 4.55352 8.13597 4.61971C8.14775 4.6859 8.17245 4.74912 8.20866 4.80576C8.24488 4.86241 8.2919 4.91136 8.34703 4.94984C8.40217 4.98831 8.46434 5.01554 8.53 5.02999C8.59566 5.04444 8.66352 5.04581 8.72972 5.03403C8.79591 5.02224 8.85913 4.99754 8.91577 4.96133C8.97242 4.92511 9.02137 4.87809 9.05984 4.82296C9.09832 4.76782 9.12555 4.70565 9.14 4.63999L9.67 2.20999C9.73941 1.87596 9.91917 1.57499 10.1804 1.35551C10.4416 1.13604 10.769 1.01081 11.11 0.999992H46C46.2237 1.00081 46.4444 1.05164 46.6459 1.14878C46.8474 1.24591 47.0246 1.38688 47.1646 1.56137C47.3046 1.73586 47.4037 1.93945 47.4548 2.15722C47.506 2.375 47.5077 2.60145 47.46 2.81999L46.06 9.22999C46.0284 9.27934 46.0048 9.33332 45.99 9.38999L41.1 32H18C17.9694 31.6858 17.9126 31.3747 17.83 31.07V30.96C17.7487 30.6742 17.6416 30.3964 17.51 30.13L17.39 30C17.2544 29.7427 17.1007 29.4954 16.93 29.26L16.84 29.15C16.6655 28.9203 16.4714 28.7062 16.26 28.51L16.16 28.42C15.9462 28.2231 15.7153 28.0458 15.47 27.89L15.36 27.82C15.1037 27.6669 14.8362 27.5332 14.56 27.42H14.46C14.1714 27.3078 13.8736 27.2208 13.57 27.16H13.5C12.84 27.0267 12.16 27.0267 11.5 27.16H11.43C11.1264 27.2208 10.8286 27.3078 10.54 27.42H10.44C10.1638 27.5332 9.89634 27.6669 9.64 27.82L9.53 27.89C9.28468 28.0458 9.05376 28.2231 8.84 28.42L8.74 28.51C8.52857 28.7062 8.33451 28.9203 8.16 29.15L8.07 29.26C7.89931 29.4954 7.74559 29.7427 7.61 30L7.55 30.12C7.41844 30.3864 7.31133 30.6642 7.23 30.95V31.06C7.12659 31.3662 7.04964 31.6807 7 32H3.19L5 26.66C5.03052 26.5963 5.0472 26.5268 5.04892 26.4562C5.05064 26.3855 5.03737 26.3153 5.00999 26.2502C4.98261 26.1851 4.94173 26.1265 4.89006 26.0783C4.83838 26.0301 4.77708 25.9934 4.7102 25.9707C4.64331 25.9479 4.57236 25.9396 4.50202 25.9462C4.43168 25.9529 4.36355 25.9743 4.30211 26.0092C4.24068 26.0441 4.18734 26.0916 4.1456 26.1487C4.10387 26.2057 4.07469 26.2709 4.06 26.34L2.81 30H2.44C2.01948 29.9996 1.60954 30.1318 1.26845 30.3777C0.927356 30.6237 0.672464 30.9709 0.540001 31.37L0 33H7C7 34.4587 7.57946 35.8576 8.61091 36.8891C9.64236 37.9205 11.0413 38.5 12.5 38.5C13.9587 38.5 15.3576 37.9205 16.3891 36.8891C17.4205 35.8576 18 34.4587 18 33H45C45 34.4587 45.5795 35.8576 46.6109 36.8891C47.6424 37.9205 49.0413 38.5 50.5 38.5C51.9587 38.5 53.3576 37.9205 54.3891 36.8891C55.4205 35.8576 56 34.4587 56 33H62L62.12 32.63C62.2829 32.1326 62.2442 31.5911 62.0124 31.1219C61.7806 30.6526 61.374 30.2929 60.88 30.12L63.34 23.19C63.5681 22.5692 63.6559 21.9056 63.5971 21.2469C63.5383 20.5881 63.3344 19.9506 63 19.38ZM12.5 37C11.61 37 10.74 36.7361 9.99993 36.2416C9.25991 35.7471 8.68314 35.0443 8.34254 34.2221C8.00195 33.3998 7.91283 32.495 8.08647 31.6221C8.2601 30.7492 8.68868 29.9473 9.31802 29.318C9.94736 28.6887 10.7492 28.2601 11.6221 28.0865C12.495 27.9128 13.3998 28.0019 14.2221 28.3425C15.0443 28.6831 15.7471 29.2599 16.2416 29.9999C16.7361 30.7399 17 31.61 17 32.5C16.9974 33.6927 16.5224 34.8357 15.6791 35.6791C14.8357 36.5224 13.6927 36.9974 12.5 37ZM50.5 37C49.61 37 48.74 36.7361 47.9999 36.2416C47.2599 35.7471 46.6831 35.0443 46.3425 34.2221C46.0019 33.3998 45.9128 32.495 46.0865 31.6221C46.2601 30.7492 46.6887 29.9473 47.318 29.318C47.9474 28.6887 48.7492 28.2601 49.6221 28.0865C50.495 27.9128 51.3998 28.0019 52.2221 28.3425C53.0443 28.6831 53.7471 29.2599 54.2416 29.9999C54.7361 30.7399 55 31.61 55 32.5C54.9974 33.6927 54.5224 34.8357 53.6791 35.6791C52.8357 36.5224 51.6927 36.9974 50.5 37ZM62.4 22.85L59.15 32H56C55.9694 31.6858 55.9126 31.3747 55.83 31.07V30.96C55.747 30.6748 55.6399 30.3971 55.51 30.13L55.39 30C55.2522 29.744 55.0986 29.4969 54.93 29.26L54.84 29.15C54.6655 28.9203 54.4714 28.7062 54.26 28.51L54.16 28.41C53.9436 28.2194 53.7129 28.0455 53.47 27.89L53.36 27.82C53.1058 27.663 52.8381 27.5292 52.56 27.42H52.46C52.1714 27.3078 51.8736 27.2208 51.57 27.16H51.5C50.8401 27.0253 50.1599 27.0253 49.5 27.16H49.43C49.1264 27.2208 48.8286 27.3078 48.54 27.42H48.44C48.1619 27.5292 47.8942 27.663 47.64 27.82L47.53 27.89C47.2871 28.0455 47.0564 28.2194 46.84 28.41L46.74 28.51C46.5286 28.7062 46.3345 28.9203 46.16 29.15L46.07 29.26C45.9014 29.4969 45.7478 29.744 45.61 30L45.55 30.12C45.4201 30.3871 45.313 30.6648 45.23 30.95V31.06C45.1266 31.3662 45.0496 31.6807 45 32H42.1L46.91 9.99999H54.21C54.8154 10.0003 55.4103 10.1582 55.9363 10.458C56.4623 10.7578 56.9012 11.1892 57.21 11.71L62.09 19.89C62.356 20.3303 62.5217 20.8238 62.5753 21.3354C62.6289 21.847 62.569 22.3641 62.4 22.85Z" fill="#FCBE50"/>
<path d="M55.5102 13.26C55.2916 12.8774 54.9758 12.5593 54.5947 12.338C54.2136 12.1168 53.7808 12.0001 53.3402 12H49.5002C49.392 12 49.2867 12.0351 49.2002 12.1C49.1136 12.1649 49.0504 12.2561 49.0202 12.36L47.0202 19.36C47.0006 19.4347 46.9977 19.5128 47.0115 19.5889C47.0253 19.6649 47.0556 19.7369 47.1002 19.8C47.1462 19.8627 47.2065 19.9135 47.276 19.9483C47.3456 19.9831 47.4224 20.0008 47.5002 20H55.0502C55.49 20.0019 55.9226 19.8872 56.3037 19.6677C56.6849 19.4481 57.0011 19.1315 57.2202 18.75C57.4407 18.3721 57.5569 17.9425 57.5569 17.505C57.5569 17.0675 57.4407 16.6379 57.2202 16.26L55.5102 13.26ZM56.3502 18.26C56.2192 18.4889 56.0299 18.6789 55.8015 18.8106C55.5731 18.9424 55.3138 19.0112 55.0502 19.01H48.1602L49.8802 13.01H53.3402C53.605 13.0088 53.8654 13.0786 54.094 13.2123C54.3227 13.346 54.5113 13.5386 54.6402 13.77L56.3602 16.77C56.4866 16.9965 56.5522 17.2519 56.5504 17.5113C56.5487 17.7707 56.4797 18.0252 56.3502 18.25V18.26Z" fill="#FCBE50"/>
<path d="M12.5 30C12.0055 30 11.5222 30.1466 11.1111 30.4213C10.7 30.696 10.3795 31.0865 10.1903 31.5433C10.0011 32.0001 9.95157 32.5028 10.048 32.9877C10.1445 33.4727 10.3826 33.9181 10.7322 34.2678C11.0819 34.6174 11.5273 34.8555 12.0123 34.952C12.4972 35.0484 12.9999 34.9989 13.4567 34.8097C13.9135 34.6205 14.304 34.3001 14.5787 33.8889C14.8534 33.4778 15 32.9945 15 32.5C15 31.837 14.7366 31.2011 14.2678 30.7322C13.7989 30.2634 13.163 30 12.5 30ZM12.5 34C12.2033 34 11.9133 33.912 11.6666 33.7472C11.42 33.5824 11.2277 33.3481 11.1142 33.074C11.0007 32.7999 10.9709 32.4983 11.0288 32.2074C11.0867 31.9164 11.2296 31.6491 11.4393 31.4393C11.6491 31.2296 11.9164 31.0867 12.2074 31.0288C12.4983 30.9709 12.7999 31.0007 13.074 31.1142C13.3481 31.2277 13.5824 31.42 13.7472 31.6666C13.912 31.9133 14 32.2033 14 32.5C14 32.8978 13.842 33.2794 13.5607 33.5607C13.2794 33.842 12.8978 34 12.5 34Z" fill="#FCBE50"/>
<path d="M50.5 30C50.0055 30 49.5222 30.1466 49.1111 30.4213C48.7 30.696 48.3795 31.0865 48.1903 31.5433C48.0011 32.0001 47.9516 32.5028 48.048 32.9877C48.1445 33.4727 48.3826 33.9181 48.7322 34.2678C49.0819 34.6174 49.5273 34.8555 50.0123 34.952C50.4972 35.0484 50.9999 34.9989 51.4567 34.8097C51.9135 34.6205 52.304 34.3001 52.5787 33.8889C52.8534 33.4778 53 32.9945 53 32.5C53 31.837 52.7366 31.2011 52.2678 30.7322C51.7989 30.2634 51.163 30 50.5 30ZM50.5 34C50.2033 34 49.9133 33.912 49.6666 33.7472C49.42 33.5824 49.2277 33.3481 49.1142 33.074C49.0007 32.7999 48.9709 32.4983 49.0288 32.2074C49.0867 31.9164 49.2296 31.6491 49.4393 31.4393C49.6491 31.2296 49.9164 31.0867 50.2074 31.0288C50.4983 30.9709 50.7999 31.0007 51.074 31.1142C51.3481 31.2277 51.5824 31.42 51.7472 31.6666C51.912 31.9133 52 32.2033 52 32.5C52 32.8978 51.842 33.2794 51.5607 33.5607C51.2794 33.842 50.8978 34 50.5 34Z" fill="#FCBE50"/>
<path d="M3 9H25C25.2652 9 25.5196 8.89464 25.7071 8.70711C25.8946 8.51957 26 8.26522 26 8C26 7.73478 25.8946 7.48043 25.7071 7.29289C25.5196 7.10536 25.2652 7 25 7H3C2.73478 7 2.48043 7.10536 2.29289 7.29289C2.10536 7.48043 2 7.73478 2 8C2 8.26522 2.10536 8.51957 2.29289 8.70711C2.48043 8.89464 2.73478 9 3 9Z" fill="#FCBE50"/>
<path d="M22 18C22 17.7348 21.8946 17.4804 21.7071 17.2929C21.5196 17.1054 21.2652 17 21 17H4C3.73478 17 3.48043 17.1054 3.29289 17.2929C3.10536 17.4804 3 17.7348 3 18C3 18.2652 3.10536 18.5196 3.29289 18.7071C3.48043 18.8946 3.73478 19 4 19H21C21.2652 19 21.5196 18.8946 21.7071 18.7071C21.8946 18.5196 22 18.2652 22 18Z" fill="#FCBE50"/>
<path d="M24 13C24 12.7348 23.8946 12.4804 23.7071 12.2929C23.5196 12.1054 23.2652 12 23 12H5C4.73478 12 4.48043 12.1054 4.29289 12.2929C4.10536 12.4804 4 12.7348 4 13C4 13.2652 4.10536 13.5196 4.29289 13.7071C4.48043 13.8946 4.73478 14 5 14H23C23.2652 14 23.5196 13.8946 23.7071 13.7071C23.8946 13.5196 24 13.2652 24 13Z" fill="#FCBE50"/>
<path d="M2 14C2.55228 14 3 13.5523 3 13C3 12.4477 2.55228 12 2 12C1.44772 12 1 12.4477 1 13C1 13.5523 1.44772 14 2 14Z" fill="#FCBE50"/>
<path d="M6 22C5.73478 22 5.48043 22.1054 5.29289 22.2929C5.10536 22.4804 5 22.7348 5 23C5 23.2652 5.10536 23.5196 5.29289 23.7071C5.48043 23.8946 5.73478 24 6 24H19C19.2652 24 19.5196 23.8946 19.7071 23.7071C19.8946 23.5196 20 23.2652 20 23C20 22.7348 19.8946 22.4804 19.7071 22.2929C19.5196 22.1054 19.2652 22 19 22H6Z" fill="#FCBE50"/>
<path d="M3 24C3.55228 24 4 23.5523 4 23C4 22.4477 3.55228 22 3 22C2.44772 22 2 22.4477 2 23C2 23.5523 2.44772 24 3 24Z" fill="#FCBE50"/>
</svg>
