<svg width="256" height="256" viewBox="0 0 256 256" fill="none" xmlns="http://www.w3.org/2000/svg">
<path d="M117.1 83.7001C118.1 84.8001 119.5 85.3002 120.8 85.3002C122.1 85.3002 123.4 84.8002 124.3 83.9002L151.8 57.8002C153.9 55.8002 154 52.6002 152 50.5002C150 48.4002 146.8 48.3002 144.7 50.3002L121 72.9002L111.4 62.9002C109.4 60.8002 106.2 60.8002 104.1 62.8002C102 64.8002 102 68.0002 104 70.1002L117.1 83.7001Z" fill="#FFB783"/>
<path d="M81.6001 92.8001C85.9001 115 105.4 131.1 128 131.1C150.6 131.1 170.1 115 174.4 92.8001L180.9 59.4001C182.8 45.2001 178.5 30.9001 169.1 20.1001C159.7 9.3001 146.1 3.1001 131.8 3.1001H124.2C109.9 3.1001 96.3001 9.3001 86.9001 20.1001C77.5001 30.9001 73.2001 45.2001 75.2001 59.6001L81.6001 92.8001ZM94.6001 26.9001C102 18.4001 112.8 13.5001 124.1 13.5001H131.7C143 13.5001 153.8 18.4001 161.2 26.9001C168.6 35.4001 172 46.8001 170.6 57.7001L164.2 90.8001C160.8 108.1 145.6 120.7 127.9 120.7C110.2 120.7 95.0001 108.1 91.6001 90.8001L85.2001 57.9001C83.8001 46.7001 87.2001 35.4001 94.6001 26.9001Z" fill="#FFB783"/>
<path d="M243.1 240.2L229.1 174.4C227.8 168.4 223.5 163.5 217.7 161.4L172.8 145.5C171 144.9 169 145.3 167.6 146.6L128 183.6L88.4001 146.6C87.0001 145.3 85.0001 144.9 83.2001 145.5L38.3001 161.4C32.6001 163.4 28.2001 168.4 26.9001 174.4L12.9001 240.2C12.2001 243.3 13.0001 246.5 15.0001 249C17.0001 251.5 20.0001 252.9 23.2001 252.9H232.8C236 252.9 239 251.5 241 249C243 246.5 243.7 243.3 243.1 240.2ZM23.0001 242.4L37.0001 176.6C37.5001 174.1 39.3001 172 41.7001 171.2L83.7001 156.3L124.5 194.4C126.5 196.3 129.6 196.3 131.5 194.4L172.3 156.3L214.2 171.2C216.6 172.1 218.4 174.1 218.9 176.6L232.7 242.6L23.0001 242.4Z" fill="#FFB783"/>
</svg>
