<svg width="75" height="14" viewBox="0 0 75 14" fill="none" xmlns="http://www.w3.org/2000/svg">
<path d="M0.912003 11V0.696003H3.088L6.112 6.888L9.136 0.696003H11.296V11H9.136V4.296L6.736 9.224H5.488L3.072 4.296V11H0.912003Z" fill="black"/>
<path d="M15.4991 11.16C15.0191 11.16 14.5711 11.0747 14.1551 10.904C13.7498 10.7227 13.4191 10.4613 13.1631 10.12C12.9178 9.768 12.7951 9.33067 12.7951 8.808C12.7951 8.06134 13.0565 7.464 13.5791 7.016C14.1125 6.568 14.8965 6.344 15.9311 6.344H18.1711V6.136C18.1711 5.66667 18.0378 5.336 17.7711 5.144C17.5151 4.952 16.9925 4.856 16.2031 4.856C15.3391 4.856 14.5071 4.98934 13.7071 5.256V3.736C14.0591 3.59734 14.4858 3.48534 14.9871 3.4C15.4991 3.304 16.0538 3.256 16.6511 3.256C17.7925 3.256 18.6725 3.49067 19.2911 3.96C19.9205 4.41867 20.2351 5.16 20.2351 6.184V11H18.3631L18.2511 10.312C17.9525 10.5787 17.5845 10.7867 17.1471 10.936C16.7098 11.0853 16.1605 11.16 15.4991 11.16ZM16.0911 9.736C16.5711 9.736 16.9871 9.656 17.3391 9.496C17.6911 9.336 17.9685 9.13334 18.1711 8.888V7.688H15.9791C15.1365 7.688 14.7151 8.03467 14.7151 8.728C14.7151 9.4 15.1738 9.736 16.0911 9.736Z" fill="black"/>
<path d="M21.9745 11V3.416H23.9745L24.0545 4.136C24.3638 3.90134 24.7532 3.69867 25.2225 3.528C25.7025 3.34667 26.2038 3.256 26.7265 3.256C27.7292 3.256 28.4598 3.49067 28.9185 3.96C29.3772 4.42934 29.6065 5.15467 29.6065 6.136V11H27.4465V6.248C27.4465 5.736 27.3398 5.37334 27.1265 5.16C26.9238 4.94667 26.5398 4.84 25.9745 4.84C25.6438 4.84 25.3078 4.91467 24.9665 5.064C24.6358 5.21334 24.3585 5.4 24.1345 5.624V11H21.9745Z" fill="black"/>
<path d="M34.5651 13.816C33.9998 13.816 33.4185 13.7787 32.8211 13.704C32.2345 13.6293 31.7385 13.5227 31.3331 13.384V11.768C31.7598 11.9067 32.2611 12.0133 32.8371 12.088C33.4131 12.1733 33.9518 12.216 34.4531 12.216C35.1891 12.216 35.7225 12.1733 36.0531 12.088C36.3838 12.0133 36.5491 11.8747 36.5491 11.672C36.5491 11.5013 36.4745 11.384 36.3251 11.32C36.1865 11.256 35.8878 11.224 35.4291 11.224H33.3651C32.0105 11.224 31.3331 10.7227 31.3331 9.72C31.3331 9.41067 31.4185 9.128 31.5891 8.872C31.7598 8.616 32.0318 8.41334 32.4051 8.264C31.5411 7.82667 31.1091 7.09067 31.1091 6.056C31.1091 5.07467 31.4131 4.36534 32.0211 3.928C32.6291 3.48 33.5305 3.256 34.7251 3.256C34.9705 3.256 35.2371 3.27734 35.5251 3.32C35.8238 3.352 36.0478 3.384 36.1971 3.416H39.0451L38.9971 4.776H37.7971C38.1278 5.08534 38.2931 5.51734 38.2931 6.072C38.2931 6.85067 38.0478 7.47467 37.5571 7.944C37.0665 8.40267 36.3411 8.632 35.3811 8.632C35.2105 8.632 35.0451 8.62667 34.8851 8.616C34.7358 8.59467 34.5811 8.57334 34.4211 8.552C34.1011 8.59467 33.8291 8.66934 33.6051 8.776C33.3918 8.88267 33.2851 9.02667 33.2851 9.208C33.2851 9.45334 33.5038 9.576 33.9411 9.576H36.0851C36.8531 9.576 37.4451 9.752 37.8611 10.104C38.2771 10.4453 38.4851 10.9467 38.4851 11.608C38.4851 12.3547 38.1491 12.9093 37.4771 13.272C36.8051 13.6347 35.8345 13.816 34.5651 13.816ZM34.7411 7.416C35.3811 7.416 35.8238 7.30934 36.0691 7.096C36.3251 6.872 36.4531 6.49867 36.4531 5.976C36.4531 5.45334 36.3251 5.07467 36.0691 4.84C35.8238 4.60534 35.3811 4.488 34.7411 4.488C34.1331 4.488 33.6958 4.60534 33.4291 4.84C33.1625 5.064 33.0291 5.44267 33.0291 5.976C33.0291 6.46667 33.1518 6.82934 33.3971 7.064C33.6531 7.29867 34.1011 7.416 34.7411 7.416Z" fill="black"/>
<path d="M43.9853 11.16C42.5666 11.16 41.5266 10.8187 40.8653 10.136C40.2039 9.44267 39.8733 8.46667 39.8733 7.208C39.8733 5.94934 40.2039 4.97867 40.8653 4.296C41.5373 3.60267 42.5773 3.256 43.9853 3.256C45.4039 3.256 46.4439 3.60267 47.1053 4.296C47.7773 4.97867 48.1133 5.94934 48.1133 7.208C48.1133 8.46667 47.7826 9.44267 47.1213 10.136C46.4599 10.8187 45.4146 11.16 43.9853 11.16ZM43.9853 9.32C44.6786 9.32 45.1746 9.16534 45.4733 8.856C45.7719 8.536 45.9213 7.98667 45.9213 7.208C45.9213 6.42934 45.7719 5.88534 45.4733 5.576C45.1746 5.256 44.6786 5.096 43.9853 5.096C43.3026 5.096 42.8119 5.256 42.5133 5.576C42.2146 5.88534 42.0653 6.42934 42.0653 7.208C42.0653 7.98667 42.2146 8.536 42.5133 8.856C42.8119 9.16534 43.3026 9.32 43.9853 9.32Z" fill="black"/>
<path d="M51.7271 11.16C50.9911 11.16 50.4525 10.9893 50.1111 10.648C49.7805 10.3067 49.6151 9.76267 49.6151 9.016V0.216003H51.7751V8.84C51.7751 9.10667 51.8285 9.29334 51.9351 9.4C52.0418 9.496 52.1965 9.544 52.3991 9.544C52.6765 9.544 52.9271 9.50667 53.1511 9.432V10.92C52.7458 11.08 52.2711 11.16 51.7271 11.16Z" fill="black"/>
<path d="M54.3463 2.024V0.328003H56.6983V2.024H54.3463ZM54.5223 11V5.016H53.3863L53.5783 3.416H56.6823V11H54.5223Z" fill="black"/>
<path d="M58.5214 11V3.416H60.5214L60.6014 4.136C60.9107 3.90134 61.3 3.69867 61.7694 3.528C62.2494 3.34667 62.7507 3.256 63.2734 3.256C64.276 3.256 65.0067 3.49067 65.4654 3.96C65.924 4.42934 66.1534 5.15467 66.1534 6.136V11H63.9934V6.248C63.9934 5.736 63.8867 5.37334 63.6734 5.16C63.4707 4.94667 63.0867 4.84 62.5214 4.84C62.1907 4.84 61.8547 4.91467 61.5134 5.064C61.1827 5.21334 60.9054 5.4 60.6814 5.624V11H58.5214Z" fill="black"/>
<path d="M70.0616 11.16C69.5816 11.16 69.1336 11.0747 68.7176 10.904C68.3123 10.7227 67.9816 10.4613 67.7256 10.12C67.4803 9.768 67.3576 9.33067 67.3576 8.808C67.3576 8.06134 67.619 7.464 68.1416 7.016C68.675 6.568 69.459 6.344 70.4936 6.344H72.7336V6.136C72.7336 5.66667 72.6003 5.336 72.3336 5.144C72.0776 4.952 71.555 4.856 70.7656 4.856C69.9016 4.856 69.0696 4.98934 68.2696 5.256V3.736C68.6216 3.59734 69.0483 3.48534 69.5496 3.4C70.0616 3.304 70.6163 3.256 71.2136 3.256C72.355 3.256 73.235 3.49067 73.8536 3.96C74.483 4.41867 74.7976 5.16 74.7976 6.184V11H72.9256L72.8136 10.312C72.515 10.5787 72.147 10.7867 71.7096 10.936C71.2723 11.0853 70.723 11.16 70.0616 11.16ZM70.6536 9.736C71.1336 9.736 71.5496 9.656 71.9016 9.496C72.2536 9.336 72.531 9.13334 72.7336 8.888V7.688H70.5416C69.699 7.688 69.2776 8.03467 69.2776 8.728C69.2776 9.4 69.7363 9.736 70.6536 9.736Z" fill="black"/>
</svg>
