<svg width="74" height="14" viewBox="0 0 74 14" fill="none" xmlns="http://www.w3.org/2000/svg">
<path d="M0 10.784V0.48H2.176L5.2 6.672L8.224 0.48H10.384V10.784H8.224V4.08L5.824 9.008H4.576L2.16 4.08V10.784H0Z" fill="white"/>
<path d="M14.5871 10.944C14.1071 10.944 13.6591 10.8587 13.2431 10.688C12.8378 10.5067 12.5071 10.2453 12.2511 9.904C12.0058 9.552 11.8831 9.11467 11.8831 8.592C11.8831 7.84533 12.1445 7.248 12.6671 6.8C13.2005 6.352 13.9845 6.128 15.0191 6.128H17.2591V5.92C17.2591 5.45067 17.1258 5.12 16.8591 4.928C16.6031 4.736 16.0805 4.64 15.2911 4.64C14.4271 4.64 13.5951 4.77333 12.7951 5.04V3.52C13.1471 3.38133 13.5738 3.26933 14.0751 3.184C14.5871 3.088 15.1418 3.04 15.7391 3.04C16.8805 3.04 17.7605 3.27467 18.3791 3.744C19.0085 4.20267 19.3231 4.944 19.3231 5.968V10.784H17.4511L17.3391 10.096C17.0405 10.3627 16.6725 10.5707 16.2351 10.72C15.7978 10.8693 15.2485 10.944 14.5871 10.944ZM15.1791 9.52C15.6591 9.52 16.0751 9.44 16.4271 9.28C16.7791 9.12 17.0565 8.91733 17.2591 8.672V7.472H15.0671C14.2245 7.472 13.8031 7.81867 13.8031 8.512C13.8031 9.184 14.2618 9.52 15.1791 9.52Z" fill="white"/>
<path d="M21.0625 10.784V3.2H23.0625L23.1425 3.92C23.4518 3.68533 23.8412 3.48267 24.3105 3.312C24.7905 3.13067 25.2918 3.04 25.8145 3.04C26.8172 3.04 27.5478 3.27467 28.0065 3.744C28.4652 4.21333 28.6945 4.93867 28.6945 5.92V10.784H26.5345V6.032C26.5345 5.52 26.4278 5.15733 26.2145 4.944C26.0118 4.73067 25.6278 4.624 25.0625 4.624C24.7318 4.624 24.3958 4.69867 24.0545 4.848C23.7238 4.99733 23.4465 5.184 23.2225 5.408V10.784H21.0625Z" fill="white"/>
<path d="M33.6531 13.6C33.0878 13.6 32.5065 13.5627 31.9091 13.488C31.3225 13.4133 30.8265 13.3067 30.4211 13.168V11.552C30.8478 11.6907 31.3491 11.7973 31.9251 11.872C32.5011 11.9573 33.0398 12 33.5411 12C34.2771 12 34.8105 11.9573 35.1411 11.872C35.4718 11.7973 35.6371 11.6587 35.6371 11.456C35.6371 11.2853 35.5625 11.168 35.4131 11.104C35.2745 11.04 34.9758 11.008 34.5171 11.008H32.4531C31.0985 11.008 30.4211 10.5067 30.4211 9.504C30.4211 9.19467 30.5065 8.912 30.6771 8.656C30.8478 8.4 31.1198 8.19733 31.4931 8.048C30.6291 7.61067 30.1971 6.87467 30.1971 5.84C30.1971 4.85867 30.5011 4.14933 31.1091 3.712C31.7171 3.264 32.6185 3.04 33.8131 3.04C34.0585 3.04 34.3251 3.06133 34.6131 3.104C34.9118 3.136 35.1358 3.168 35.2851 3.2H38.1331L38.0851 4.56H36.8851C37.2158 4.86933 37.3811 5.30133 37.3811 5.856C37.3811 6.63467 37.1358 7.25867 36.6451 7.728C36.1545 8.18667 35.4291 8.416 34.4691 8.416C34.2985 8.416 34.1331 8.41067 33.9731 8.4C33.8238 8.37867 33.6691 8.35733 33.5091 8.336C33.1891 8.37867 32.9171 8.45333 32.6931 8.56C32.4798 8.66667 32.3731 8.81067 32.3731 8.992C32.3731 9.23733 32.5918 9.36 33.0291 9.36H35.1731C35.9411 9.36 36.5331 9.536 36.9491 9.888C37.3651 10.2293 37.5731 10.7307 37.5731 11.392C37.5731 12.1387 37.2371 12.6933 36.5651 13.056C35.8931 13.4187 34.9225 13.6 33.6531 13.6ZM33.8291 7.2C34.4691 7.2 34.9118 7.09333 35.1571 6.88C35.4131 6.656 35.5411 6.28267 35.5411 5.76C35.5411 5.23733 35.4131 4.85867 35.1571 4.624C34.9118 4.38933 34.4691 4.272 33.8291 4.272C33.2211 4.272 32.7838 4.38933 32.5171 4.624C32.2505 4.848 32.1171 5.22667 32.1171 5.76C32.1171 6.25067 32.2398 6.61333 32.4851 6.848C32.7411 7.08267 33.1891 7.2 33.8291 7.2Z" fill="white"/>
<path d="M43.0732 10.944C41.6546 10.944 40.6146 10.6027 39.9533 9.92C39.2919 9.22667 38.9613 8.25067 38.9613 6.992C38.9613 5.73333 39.2919 4.76267 39.9533 4.08C40.6253 3.38667 41.6652 3.04 43.0732 3.04C44.4919 3.04 45.5319 3.38667 46.1932 4.08C46.8652 4.76267 47.2013 5.73333 47.2013 6.992C47.2013 8.25067 46.8706 9.22667 46.2093 9.92C45.5479 10.6027 44.5026 10.944 43.0732 10.944ZM43.0732 9.104C43.7666 9.104 44.2626 8.94933 44.5612 8.64C44.8599 8.32 45.0093 7.77067 45.0093 6.992C45.0093 6.21333 44.8599 5.66933 44.5612 5.36C44.2626 5.04 43.7666 4.88 43.0732 4.88C42.3906 4.88 41.8999 5.04 41.6012 5.36C41.3026 5.66933 41.1533 6.21333 41.1533 6.992C41.1533 7.77067 41.3026 8.32 41.6012 8.64C41.8999 8.94933 42.3906 9.104 43.0732 9.104Z" fill="white"/>
<path d="M50.8151 10.944C50.0791 10.944 49.5405 10.7733 49.1991 10.432C48.8685 10.0907 48.7031 9.54667 48.7031 8.8V0H50.8631V8.624C50.8631 8.89067 50.9165 9.07733 51.0231 9.184C51.1298 9.28 51.2845 9.328 51.4871 9.328C51.7645 9.328 52.0151 9.29067 52.2391 9.216V10.704C51.8338 10.864 51.3591 10.944 50.8151 10.944Z" fill="white"/>
<path d="M53.4342 1.808V0.112H55.7863V1.808H53.4342ZM53.6102 10.784V4.8H52.4743L52.6662 3.2H55.7702V10.784H53.6102Z" fill="white"/>
<path d="M57.6094 10.784V3.2H59.6094L59.6894 3.92C59.9987 3.68533 60.388 3.48267 60.8574 3.312C61.3374 3.13067 61.8387 3.04 62.3614 3.04C63.364 3.04 64.0947 3.27467 64.5534 3.744C65.012 4.21333 65.2414 4.93867 65.2414 5.92V10.784H63.0814V6.032C63.0814 5.52 62.9747 5.15733 62.7614 4.944C62.5587 4.73067 62.1747 4.624 61.6094 4.624C61.2787 4.624 60.9427 4.69867 60.6014 4.848C60.2707 4.99733 59.9934 5.184 59.7694 5.408V10.784H57.6094Z" fill="white"/>
<path d="M69.1496 10.944C68.6696 10.944 68.2216 10.8587 67.8056 10.688C67.4003 10.5067 67.0696 10.2453 66.8136 9.904C66.5683 9.552 66.4456 9.11467 66.4456 8.592C66.4456 7.84533 66.707 7.248 67.2296 6.8C67.763 6.352 68.547 6.128 69.5816 6.128H71.8216V5.92C71.8216 5.45067 71.6883 5.12 71.4216 4.928C71.1656 4.736 70.643 4.64 69.8536 4.64C68.9896 4.64 68.1576 4.77333 67.3576 5.04V3.52C67.7096 3.38133 68.1363 3.26933 68.6376 3.184C69.1496 3.088 69.7043 3.04 70.3016 3.04C71.443 3.04 72.323 3.27467 72.9416 3.744C73.571 4.20267 73.8856 4.944 73.8856 5.968V10.784H72.0136L71.9016 10.096C71.603 10.3627 71.235 10.5707 70.7976 10.72C70.3603 10.8693 69.811 10.944 69.1496 10.944ZM69.7416 9.52C70.2216 9.52 70.6376 9.44 70.9896 9.28C71.3416 9.12 71.619 8.91733 71.8216 8.672V7.472H69.6296C68.787 7.472 68.3656 7.81867 68.3656 8.512C68.3656 9.184 68.8243 9.52 69.7416 9.52Z" fill="white"/>
</svg>
