<svg width="64" height="55" viewBox="0 0 64 55" fill="none" xmlns="http://www.w3.org/2000/svg">
<path d="M19 43C17.8133 43 16.6533 43.3519 15.6666 44.0112C14.6799 44.6705 13.9109 45.6075 13.4567 46.7039C13.0026 47.8003 12.8838 49.0066 13.1153 50.1705C13.3468 51.3344 13.9182 52.4035 14.7574 53.2426C15.5965 54.0817 16.6656 54.6532 17.8295 54.8847C18.9933 55.1162 20.1997 54.9974 21.2961 54.5433C22.3925 54.0891 23.3295 53.3201 23.9888 52.3334C24.6481 51.3467 25 50.1867 25 49C25 47.4087 24.3679 45.8826 23.2426 44.7574C22.1174 43.6321 20.5913 43 19 43ZM19 54C18.0111 54 17.0444 53.7067 16.2222 53.1573C15.3999 52.6079 14.759 51.827 14.3806 50.9134C14.0022 49.9998 13.9032 48.9944 14.0961 48.0245C14.289 47.0546 14.7652 46.1637 15.4645 45.4645C16.1637 44.7652 17.0546 44.289 18.0246 44.0961C18.9945 43.9031 19.9998 44.0022 20.9134 44.3806C21.8271 44.759 22.6079 45.3999 23.1574 46.2221C23.7068 47.0444 24 48.0111 24 49C24 50.3261 23.4732 51.5978 22.5355 52.5355C21.5979 53.4732 20.3261 54 19 54Z" fill="#FCBE50"/>
<path d="M47 43C45.8133 43 44.6533 43.3519 43.6666 44.0112C42.6799 44.6705 41.9109 45.6075 41.4567 46.7039C41.0026 47.8003 40.8838 49.0066 41.1153 50.1705C41.3468 51.3344 41.9182 52.4035 42.7574 53.2426C43.5965 54.0817 44.6656 54.6532 45.8295 54.8847C46.9933 55.1162 48.1997 54.9974 49.2961 54.5433C50.3925 54.0891 51.3295 53.3201 51.9888 52.3334C52.6481 51.3467 53 50.1867 53 49C53 47.4087 52.3679 45.8826 51.2426 44.7574C50.1174 43.6321 48.5913 43 47 43ZM47 54C46.0111 54 45.0444 53.7067 44.2222 53.1573C43.3999 52.6079 42.759 51.827 42.3806 50.9134C42.0022 49.9998 41.9032 48.9944 42.0961 48.0245C42.289 47.0546 42.7652 46.1637 43.4645 45.4645C44.1637 44.7652 45.0546 44.289 46.0246 44.0961C46.9945 43.9031 47.9998 44.0022 48.9134 44.3806C49.827 44.759 50.6079 45.3999 51.1574 46.2221C51.7068 47.0444 52 48.0111 52 49C52 50.3261 51.4732 51.5978 50.5355 52.5355C49.5979 53.4732 48.3261 54 47 54Z" fill="#FCBE50"/>
<path d="M51.79 34C51.889 34.0009 51.986 33.9717 52.0681 33.9164C52.1502 33.861 52.2136 33.7821 52.25 33.69L63.85 4.68999C63.8811 4.61425 63.8932 4.53201 63.8851 4.45052C63.877 4.36903 63.849 4.29078 63.8035 4.22264C63.7581 4.1545 63.6966 4.09856 63.6245 4.05974C63.5524 4.02092 63.4719 4.0004 63.39 3.99999H7.92L7 0.389994C6.98127 0.33615 6.95428 0.285546 6.92 0.239994V0.189995L6.84 0.119995H6.77H6.68H0.5C0.367392 0.119995 0.240214 0.172673 0.146446 0.266441C0.052678 0.36021 0 0.487387 0 0.619995V4.62C0 4.7526 0.052678 4.87978 0.146446 4.97355C0.240214 5.06732 0.367392 5.12 0.5 5.12H7.14L15.14 36.26C14.5304 36.5213 14.0246 36.9773 13.7016 37.5566C13.3787 38.1359 13.2568 38.8059 13.3551 39.4618C13.4534 40.1178 13.7663 40.7226 14.2448 41.1819C14.7233 41.6411 15.3406 41.9288 16 42H52.5C52.6326 42 52.7598 41.9473 52.8536 41.8535C52.9473 41.7598 53 41.6326 53 41.5V36.5C53 36.3674 52.9473 36.2402 52.8536 36.1464C52.7598 36.0527 52.6326 36 52.5 36H16.15L15.63 34H51.79ZM62.65 4.99999L51.45 33H15.62L8.39 4.99999H62.65ZM1 3.99999V0.999994H6.11L6.86 3.99999H1ZM52 41H16C15.4696 41 14.9609 40.7893 14.5858 40.4142C14.2107 40.0391 14 39.5304 14 39C14 38.4696 14.2107 37.9609 14.5858 37.5858C14.9609 37.2107 15.4696 37 16 37H52V41Z" fill="#FCBE50"/>
<path d="M34 29C35.9778 29 37.9112 28.4135 39.5557 27.3147C41.2002 26.2159 42.4819 24.6541 43.2388 22.8268C43.9957 20.9996 44.1937 18.9889 43.8079 17.0491C43.422 15.1093 42.4696 13.3274 41.0711 11.9289C39.6725 10.5304 37.8907 9.57799 35.9509 9.19214C34.0111 8.80628 32.0004 9.00432 30.1732 9.76119C28.3459 10.5181 26.7841 11.7998 25.6853 13.4443C24.5865 15.0888 24 17.0222 24 19C24 21.6522 25.0536 24.1957 26.9289 26.0711C28.8043 27.9464 31.3478 29 34 29ZM34 9.99999C35.78 9.99999 37.5201 10.5278 39.0001 11.5168C40.4802 12.5057 41.6337 13.9113 42.3149 15.5558C42.9961 17.2004 43.1743 19.01 42.8271 20.7558C42.4798 22.5016 41.6226 24.1053 40.364 25.364C39.1053 26.6226 37.5016 27.4798 35.7558 27.8271C34.01 28.1743 32.2004 27.9961 30.5559 27.3149C28.9113 26.6337 27.5057 25.4802 26.5168 24.0001C25.5278 22.5201 25 20.78 25 19C25 16.613 25.9482 14.3239 27.636 12.636C29.3239 10.9482 31.6131 9.99999 34 9.99999Z" fill="#FCBE50"/>
<path d="M29 19.5H33.5V24C33.5 24.1326 33.5527 24.2598 33.6464 24.3536C33.7402 24.4473 33.8674 24.5 34 24.5C34.1326 24.5 34.2598 24.4473 34.3536 24.3536C34.4473 24.2598 34.5 24.1326 34.5 24V19.5H39C39.1326 19.5 39.2598 19.4473 39.3536 19.3536C39.4473 19.2598 39.5 19.1326 39.5 19C39.5 18.8674 39.4473 18.7402 39.3536 18.6464C39.2598 18.5527 39.1326 18.5 39 18.5H34.5V14C34.5 13.8674 34.4473 13.7402 34.3536 13.6464C34.2598 13.5527 34.1326 13.5 34 13.5C33.8674 13.5 33.7402 13.5527 33.6464 13.6464C33.5527 13.7402 33.5 13.8674 33.5 14V18.5H29C28.8674 18.5 28.7402 18.5527 28.6464 18.6464C28.5527 18.7402 28.5 18.8674 28.5 19C28.5 19.1326 28.5527 19.2598 28.6464 19.3536C28.7402 19.4473 28.8674 19.5 29 19.5Z" fill="#FCBE50"/>
</svg>
