<svg width="63" height="65" viewBox="0 0 63 65" fill="none" xmlns="http://www.w3.org/2000/svg">
<path d="M61.8502 53.15L48.1002 39.39L48.8302 39.17C50.1802 38.77 51.5802 38.36 52.2202 37.25C52.8602 36.14 52.5102 34.76 52.2202 33.4C51.9183 32.4995 51.8192 31.5433 51.9302 30.6C52.2977 29.7622 52.8438 29.0147 53.5302 28.41C54.5302 27.41 55.5302 26.31 55.5302 25C55.5302 23.69 54.5302 22.62 53.5302 21.59C52.8438 20.9853 52.2977 20.2378 51.9302 19.4C51.8192 18.4567 51.9183 17.5005 52.2202 16.6C52.5402 15.24 52.8802 13.84 52.2202 12.75C51.5602 11.66 50.2202 11.23 48.8302 10.83C47.9136 10.6454 47.0494 10.2595 46.3002 9.7C45.7408 8.95081 45.3548 8.08664 45.1702 7.17C44.7702 5.82 44.3602 4.42 43.2502 3.78C42.1402 3.14 40.7602 3.48 39.4002 3.78C38.4997 4.08197 37.5435 4.181 36.6002 4.07C35.7624 3.70255 35.015 3.15649 34.4102 2.47C33.4102 1.47 32.3102 0.470001 31.0002 0.470001C29.6902 0.470001 28.6202 1.47 27.5902 2.47C26.9855 3.15649 26.2381 3.70255 25.4002 4.07C24.4569 4.181 23.5008 4.08197 22.6002 3.78C21.2402 3.45 19.8402 3.12 18.7502 3.78C17.6602 4.44 17.2302 5.78 16.8302 7.17C16.6457 8.08664 16.2597 8.95081 15.7002 9.7C14.9511 10.2595 14.0869 10.6454 13.1702 10.83C11.8202 11.23 10.4202 11.64 9.78024 12.75C9.14024 13.86 9.49024 15.24 9.78024 16.59C10.0817 17.4941 10.1807 18.4534 10.0702 19.4C9.70279 20.2378 9.15673 20.9853 8.47024 21.59C7.47024 22.59 6.47024 23.69 6.47024 25C6.47024 26.31 7.47024 27.38 8.47024 28.41C9.15673 29.0147 9.70279 29.7622 10.0702 30.6C10.1807 31.5466 10.0817 32.5059 9.78024 33.41C9.46024 34.76 9.12024 36.16 9.78024 37.25C10.4402 38.34 11.7802 38.77 13.1702 39.17L13.9002 39.39L0.150243 53.15C0.0810272 53.2151 0.032677 53.2992 0.0113152 53.3918C-0.0100465 53.4844 -0.00345789 53.5812 0.0302438 53.67C0.060113 53.7583 0.114554 53.8363 0.187177 53.8947C0.2598 53.9532 0.347591 53.9897 0.440244 54L9.05024 55L10.0002 63.56C10.0101 63.6543 10.0476 63.7435 10.1082 63.8165C10.1687 63.8894 10.2494 63.9429 10.3402 63.97C10.3931 63.9805 10.4474 63.9805 10.5002 63.97C10.6354 63.9697 10.7649 63.9157 10.8602 63.82L27.3102 47.24L27.5902 47.5C28.5902 48.5 29.6902 49.5 31.0002 49.5C32.3102 49.5 33.3802 48.5 34.4102 47.5L34.6902 47.24L51.1402 63.85C51.2356 63.9457 51.3651 63.9997 51.5002 64C51.5531 64.0096 51.6073 64.0096 51.6602 64C51.7511 63.9729 51.8318 63.9195 51.8923 63.8465C51.9528 63.7735 51.9904 63.6843 52.0002 63.59L53.0002 55L61.6102 54C61.7029 53.9897 61.7907 53.9532 61.8633 53.8947C61.9359 53.8363 61.9904 53.7583 62.0202 53.67C62.0482 53.5763 62.047 53.4763 62.0166 53.3834C61.9862 53.2905 61.9282 53.209 61.8502 53.15ZM10.8502 62.4L9.97024 54.4C9.95573 54.2884 9.90471 54.1847 9.82512 54.1051C9.74554 54.0255 9.64186 53.9745 9.53024 53.96L1.53024 53.08L14.9202 39.79L15.0802 39.87L15.2702 39.98C15.4251 40.0703 15.5693 40.1776 15.7002 40.3C16.2597 41.0492 16.6457 41.9134 16.8302 42.83C17.2302 44.18 17.6402 45.58 18.7502 46.22C19.8602 46.86 21.2402 46.51 22.6002 46.22C23.5008 45.918 24.4569 45.819 25.4002 45.93C25.5771 45.9863 25.7479 46.06 25.9102 46.15H25.9602C26.1344 46.2518 26.3015 46.3654 26.4602 46.49H26.5102L10.8502 62.4ZM31.0002 48.5C30.0902 48.5 29.1702 47.63 28.2802 46.78C28.0702 46.57 27.8502 46.37 27.6302 46.17C27.4602 46.02 27.2902 45.87 27.1002 45.73L26.9302 45.6C26.788 45.4919 26.6375 45.3949 26.4802 45.31L26.3002 45.2C26.097 45.0904 25.8824 45.0032 25.6602 44.94C25.4219 44.8768 25.1768 44.8432 24.9302 44.84H24.7602C24.5402 44.84 24.3102 44.84 24.0902 44.84H23.9402C23.7302 44.84 23.5102 44.9 23.3002 44.95H23.0902L22.3602 45.12C21.1402 45.41 19.9902 45.68 19.2502 45.25C18.5102 44.82 18.1302 43.61 17.7902 42.45C17.5761 41.3543 17.1029 40.3256 16.4102 39.45C16.227 39.273 16.026 39.1155 15.8102 38.98H15.7602C15.5643 38.8627 15.3605 38.7591 15.1502 38.67L15.0002 38.73C14.5102 38.53 14.0002 38.38 13.4602 38.22C12.3002 37.88 11.1002 37.52 10.6602 36.76C10.2202 36 10.5002 34.87 10.7902 33.65C11.1462 32.5882 11.2422 31.4566 11.0702 30.35C10.6766 29.3414 10.0454 28.4426 9.23024 27.73C8.39024 26.84 7.51024 25.92 7.51024 25.01C7.51024 24.1 8.39024 23.18 9.23024 22.29C10.0454 21.5774 10.6766 20.6786 11.0702 19.67C11.2422 18.5634 11.1462 17.4318 10.7902 16.37C10.5002 15.15 10.2202 14 10.6602 13.26C11.1002 12.52 12.3002 12.14 13.4602 11.8C14.556 11.5858 15.5846 11.1127 16.4602 10.42C17.157 9.54686 17.6306 8.5172 17.8402 7.42C18.1802 6.26 18.5402 5.06 19.3002 4.62C20.0602 4.18 21.1902 4.46 22.4102 4.75C23.472 5.10596 24.6037 5.20198 25.7102 5.03C26.7189 4.63635 27.6176 4.00516 28.3302 3.19C29.2202 2.35 30.1402 1.47 31.0502 1.47C31.9602 1.47 32.8802 2.35 33.7702 3.19C34.4829 4.00516 35.3816 4.63635 36.3902 5.03C37.4968 5.20198 38.6285 5.10596 39.6902 4.75C40.9102 4.46 42.0602 4.19 42.8002 4.62C43.5402 5.05 43.9202 6.26 44.2602 7.42C44.4744 8.51575 44.9476 9.54436 45.6402 10.42C46.5159 11.1127 47.5445 11.5858 48.6402 11.8C49.8002 12.14 51.0002 12.5 51.4402 13.26C51.8802 14.02 51.6002 15.15 51.3102 16.37C50.9543 17.4318 50.8583 18.5634 51.0302 19.67C51.4239 20.6786 52.0551 21.5774 52.8702 22.29C53.7102 23.18 54.5902 24.1 54.5902 25.01C54.5902 25.92 53.7102 26.84 52.8702 27.73C52.0551 28.4426 51.4239 29.3414 51.0302 30.35C50.8583 31.4566 50.9543 32.5882 51.3102 33.65C51.6002 34.87 51.8802 36.02 51.4402 36.76C51.0002 37.5 49.8002 37.88 48.6402 38.22C48.1202 38.38 47.6402 38.53 47.0902 38.73L46.9402 38.8C46.7294 38.8839 46.5254 38.9842 46.3302 39.1C46.1097 39.2329 45.905 39.3906 45.7202 39.57C45.0276 40.4456 44.5544 41.4743 44.3402 42.57C44.0002 43.73 43.6402 44.93 42.8802 45.37C42.0574 45.6739 41.1531 45.6739 40.3302 45.37L39.7702 45.24C38.9506 45.0019 38.1035 44.8708 37.2502 44.85C36.9868 44.8558 36.725 44.8927 36.4702 44.96C36.2481 45.0232 36.0335 45.1104 35.8302 45.22L35.6502 45.32L35.1902 45.63L35.0302 45.74L34.5002 46.19C34.2802 46.39 34.0602 46.59 33.8502 46.8C32.8302 47.62 31.9102 48.5 31.0002 48.5ZM52.4402 54C52.3286 54.0145 52.2249 54.0655 52.1454 54.1451C52.0658 54.2247 52.0148 54.3284 52.0002 54.44L51.1202 62.44L35.4402 46.57H35.5002C35.659 46.4454 35.826 46.3318 36.0002 46.23H36.0502C36.2126 46.14 36.3834 46.0663 36.5602 46.01C37.009 45.9192 37.4715 45.9192 37.9202 46.01C38.3802 46.08 38.9202 46.19 39.3602 46.31L39.5902 46.36C40.692 46.7562 41.8932 46.7808 43.0102 46.43C43.0795 46.4061 43.1464 46.376 43.2102 46.34C44.3202 45.7 44.7302 44.34 45.1302 42.95C45.3095 41.9879 45.71 41.0807 46.3002 40.3C46.4312 40.1776 46.5754 40.0703 46.7302 39.98L46.9302 39.87L47.0802 39.79L60.4102 53.12L52.4402 54Z" fill="#FCBE50"/>
<path d="M16.0003 21C15.8717 20.9699 15.7364 20.992 15.624 21.0613C15.5116 21.1306 15.4312 21.2416 15.4003 21.37C15.3303 21.72 15.2603 22.06 15.2003 22.37C15.1801 22.4998 15.2117 22.6324 15.2884 22.7391C15.3652 22.8458 15.4808 22.9179 15.6103 22.94H15.6903C15.8102 22.9416 15.9266 22.9 16.0184 22.8229C16.1101 22.7458 16.1712 22.6383 16.1903 22.52C16.1903 22.19 16.3003 21.87 16.3803 21.52C16.3884 21.4025 16.3547 21.2858 16.2852 21.1907C16.2157 21.0955 16.1148 21.028 16.0003 21Z" fill="#FCBE50"/>
<path d="M15.5303 26.07C15.465 26.075 15.4013 26.093 15.343 26.1231C15.2848 26.1531 15.2332 26.1945 15.1912 26.2449C15.1492 26.2952 15.1178 26.3535 15.0988 26.4162C15.0797 26.4789 15.0735 26.5448 15.0803 26.61C15.0803 26.97 15.1603 27.32 15.2203 27.61C15.2373 27.7275 15.2963 27.8348 15.3864 27.9121C15.4766 27.9893 15.5916 28.0312 15.7103 28.03H15.8003C15.9299 28.0079 16.0455 27.9358 16.1222 27.8291C16.1989 27.7224 16.2306 27.5898 16.2103 27.46C16.1503 27.13 16.1103 26.81 16.0803 26.46C16.0538 26.3381 15.9827 26.2305 15.881 26.1584C15.7792 26.0862 15.6541 26.0547 15.5303 26.07Z" fill="#FCBE50"/>
<path d="M17.3701 31.28C17.3442 31.2194 17.3063 31.1647 17.2587 31.1191C17.2111 31.0735 17.1549 31.038 17.0933 31.0147C17.0316 30.9913 16.9659 30.9807 16.9001 30.9833C16.8343 30.9859 16.7697 31.0018 16.7101 31.03C16.5914 31.0865 16.4991 31.1868 16.4525 31.3098C16.4059 31.4327 16.4086 31.569 16.4601 31.69C16.6101 32.01 16.7701 32.33 16.9401 32.69C16.9841 32.7682 17.0479 32.8334 17.1252 32.8791C17.2024 32.9247 17.2904 32.9492 17.3801 32.95C17.4637 32.9492 17.546 32.9286 17.6201 32.89C17.7351 32.8247 17.8202 32.7173 17.8575 32.5904C17.8949 32.4635 17.8814 32.3271 17.8201 32.21C17.6601 31.87 17.5101 31.58 17.3701 31.28Z" fill="#FCBE50"/>
<path d="M20.1504 35.35C20.0552 35.2578 19.9279 35.2062 19.7954 35.2062C19.6629 35.2062 19.5355 35.2578 19.4404 35.35C19.3935 35.3965 19.3563 35.4518 19.3309 35.5127C19.3056 35.5737 19.2925 35.639 19.2925 35.705C19.2925 35.771 19.3056 35.8364 19.3309 35.8973C19.3563 35.9582 19.3935 36.0135 19.4404 36.06C19.6904 36.31 19.9404 36.56 20.2004 36.8C20.2948 36.8821 20.4153 36.9282 20.5404 36.93C20.6797 36.9264 20.8123 36.8691 20.9104 36.77C21.0026 36.6749 21.0542 36.5475 21.0542 36.415C21.0542 36.2825 21.0026 36.1552 20.9104 36.06C20.6104 35.83 20.3804 35.59 20.1504 35.35Z" fill="#FCBE50"/>
<path d="M18.1301 16.34C18.0168 16.2721 17.8815 16.2508 17.7528 16.2807C17.6241 16.3105 17.512 16.3891 17.4401 16.5C17.2501 16.8 17.0801 17.1 16.9101 17.42C16.8787 17.477 16.8589 17.5397 16.8519 17.6044C16.845 17.6691 16.851 17.7346 16.8696 17.7969C16.8882 17.8593 16.9191 17.9174 16.9604 17.9677C17.0017 18.018 17.0526 18.0596 17.1101 18.09C17.1843 18.1286 17.2665 18.1492 17.3501 18.15C17.4403 18.1513 17.5291 18.1278 17.6067 18.0819C17.6844 18.036 17.7478 17.9696 17.7901 17.89C17.9501 17.6 18.1101 17.31 18.2901 17.03C18.325 16.9742 18.3486 16.9121 18.3595 16.8472C18.3703 16.7823 18.3682 16.7159 18.3534 16.6518C18.3385 16.5877 18.3111 16.5271 18.2728 16.4736C18.2345 16.4201 18.186 16.3747 18.1301 16.34Z" fill="#FCBE50"/>
<path d="M42.5802 35.8C42.6497 35.8011 42.7186 35.7874 42.7824 35.7598C42.8462 35.7322 42.9034 35.6914 42.9502 35.64C43.1902 35.37 43.4102 35.1 43.6302 34.82C43.6752 34.7686 43.7092 34.7086 43.73 34.6437C43.7509 34.5787 43.7583 34.5101 43.7517 34.4422C43.7451 34.3742 43.7246 34.3084 43.6916 34.2486C43.6586 34.1889 43.6137 34.1366 43.5596 34.0949C43.5056 34.0531 43.4436 34.0229 43.3775 34.0061C43.3113 33.9892 43.2424 33.9861 43.175 33.9969C43.1076 34.0077 43.0431 34.0321 42.9856 34.0688C42.928 34.1055 42.8785 34.1535 42.8402 34.21C42.6402 34.47 42.4302 34.72 42.2102 34.97C42.1424 35.0403 42.0971 35.1292 42.0802 35.2254C42.0632 35.3216 42.0754 35.4206 42.1152 35.5098C42.155 35.599 42.2205 35.6743 42.3033 35.726C42.3862 35.7777 42.4826 35.8035 42.5802 35.8Z" fill="#FCBE50"/>
<path d="M45.4604 21C45.4922 21.1057 45.5569 21.1985 45.645 21.2651C45.7331 21.3316 45.84 21.3683 45.9504 21.37H46.0804C46.2081 21.3327 46.3161 21.247 46.3815 21.1312C46.4469 21.0154 46.4644 20.8786 46.4304 20.75C46.3404 20.41 46.2304 20.08 46.1204 19.75C46.0767 19.624 45.9846 19.5206 45.8646 19.4625C45.7446 19.4043 45.6064 19.3963 45.4804 19.44C45.3544 19.4838 45.251 19.5758 45.1929 19.6958C45.1347 19.8158 45.1267 19.954 45.1704 20.08C45.2804 20.38 45.3804 20.7 45.4604 21Z" fill="#FCBE50"/>
<path d="M45.1102 31.45C45.1727 31.4642 45.2376 31.4642 45.3002 31.45C45.3989 31.4495 45.4953 31.4198 45.5771 31.3646C45.659 31.3095 45.7227 31.2313 45.7602 31.14C45.9002 30.82 46.0202 30.49 46.1402 30.14C46.1817 30.0153 46.1724 29.8793 46.1144 29.7614C46.0564 29.6435 45.9543 29.5532 45.8302 29.51C45.7041 29.4682 45.5668 29.4772 45.4472 29.5351C45.3277 29.5929 45.2355 29.6952 45.1902 29.82C45.0802 30.13 44.9702 30.44 44.8402 30.75C44.8057 30.8126 44.7853 30.882 44.7804 30.9533C44.7756 31.0247 44.7864 31.0962 44.8121 31.1629C44.8379 31.2296 44.8779 31.2898 44.9294 31.3394C44.9808 31.389 45.0426 31.4268 45.1102 31.45Z" fill="#FCBE50"/>
<path d="M43.3901 16.54C43.4355 16.6072 43.4965 16.6623 43.568 16.7006C43.6394 16.7389 43.7191 16.7593 43.8001 16.76C43.9007 16.7607 43.9988 16.7292 44.0801 16.67C44.1346 16.6338 44.1814 16.5871 44.2175 16.5325C44.2537 16.478 44.2786 16.4168 44.2907 16.3524C44.3028 16.2881 44.3019 16.222 44.2881 16.1581C44.2743 16.0941 44.2477 16.0336 44.2101 15.98C44.0181 15.6862 43.8112 15.4025 43.5901 15.13C43.5518 15.0735 43.5023 15.0255 43.4448 14.9888C43.3872 14.9522 43.3227 14.9277 43.2553 14.9169C43.1879 14.9061 43.119 14.9092 43.0529 14.9261C42.9867 14.9429 42.9247 14.9731 42.8707 15.0149C42.8167 15.0566 42.7718 15.1089 42.7387 15.1686C42.7057 15.2284 42.6852 15.2942 42.6786 15.3622C42.672 15.4301 42.6794 15.4987 42.7003 15.5637C42.7212 15.6286 42.7551 15.6887 42.8001 15.74C43.0001 16 43.2001 16.27 43.3901 16.54Z" fill="#FCBE50"/>
<path d="M46.0002 25C46.0002 25.3267 46.0002 25.66 46.0002 26C45.9948 26.0652 46.0024 26.1308 46.0228 26.193C46.0431 26.2551 46.0756 26.3126 46.1185 26.362C46.1613 26.4114 46.2137 26.4517 46.2724 26.4806C46.3311 26.5094 46.3949 26.5262 46.4602 26.53C46.5862 26.5304 46.7077 26.4832 46.8004 26.398C46.8931 26.3127 46.9502 26.1956 46.9602 26.07C46.9602 25.72 46.9602 25.36 46.9602 25.01V24.94C46.959 24.8765 46.9449 24.8139 46.9189 24.756C46.8928 24.6982 46.8553 24.6461 46.8085 24.6031C46.7618 24.5602 46.7069 24.5271 46.647 24.5059C46.5871 24.4847 46.5236 24.4759 46.4602 24.48C46.333 24.4948 46.2156 24.556 46.1307 24.652C46.0459 24.748 45.9994 24.8719 46.0002 25Z" fill="#FCBE50"/>
<path d="M29.7804 40C29.4504 40 29.1204 39.94 28.7804 39.89C28.6478 39.8714 28.5133 39.9063 28.4064 39.987C28.2995 40.0676 28.229 40.1874 28.2104 40.32C28.1919 40.4526 28.2268 40.5872 28.3074 40.6941C28.388 40.801 28.5078 40.8714 28.6404 40.89C28.9804 40.9433 29.3304 40.9833 29.6904 41.01C29.8231 41.01 29.9502 40.9573 30.044 40.8636C30.1378 40.7698 30.1904 40.6426 30.1904 40.51C30.1904 40.3774 30.1378 40.2502 30.044 40.1565C29.9502 40.0627 29.8231 40.01 29.6904 40.01L29.7804 40Z" fill="#FCBE50"/>
<path d="M24.7301 11.32C24.7997 11.3295 24.8704 11.3295 24.9401 11.32C25.2401 11.18 25.5401 11.06 25.8501 10.94C25.9126 10.9188 25.9702 10.8852 26.0194 10.8412C26.0686 10.7972 26.1084 10.7437 26.1364 10.6839C26.1644 10.6241 26.1801 10.5593 26.1824 10.4933C26.1848 10.4274 26.1738 10.3616 26.1501 10.3C26.1049 10.1754 26.0122 10.0738 25.8922 10.0175C25.7721 9.96126 25.6347 9.95496 25.5101 9.99999L24.5101 10.4C24.3896 10.4546 24.2956 10.5546 24.2487 10.6784C24.2019 10.8021 24.2059 10.9393 24.2601 11.06C24.3046 11.1444 24.3728 11.2139 24.4563 11.2601C24.5397 11.3063 24.6349 11.3271 24.7301 11.32Z" fill="#FCBE50"/>
<path d="M25.0004 38.75C24.7004 38.62 24.4004 38.47 24.1004 38.32C23.9836 38.2599 23.8478 38.2483 23.7224 38.2876C23.597 38.3269 23.4921 38.414 23.4304 38.53C23.3699 38.6483 23.358 38.7857 23.3972 38.9127C23.4364 39.0397 23.5237 39.1464 23.6404 39.21C23.9604 39.37 24.2704 39.52 24.6404 39.66C24.7025 39.6916 24.7708 39.7087 24.8404 39.71C24.9375 39.7079 25.032 39.6787 25.1133 39.6257C25.1946 39.5726 25.2594 39.4979 25.3004 39.41C25.3259 39.3471 25.3382 39.2797 25.3368 39.2119C25.3354 39.1441 25.3202 39.0773 25.2921 39.0156C25.264 38.9539 25.2237 38.8985 25.1736 38.8528C25.1234 38.8071 25.0645 38.7722 25.0004 38.75Z" fill="#FCBE50"/>
<path d="M34.9404 40.51C35.0041 40.4937 35.064 40.4649 35.1167 40.4254C35.1693 40.3859 35.2136 40.3364 35.247 40.2797C35.2805 40.2231 35.3024 40.1603 35.3116 40.0952C35.3207 40.03 35.3169 39.9637 35.3004 39.9C35.2852 39.8366 35.2575 39.7769 35.219 39.7244C35.1805 39.6718 35.1318 39.6275 35.076 39.594C35.0201 39.5605 34.9581 39.5384 34.8936 39.5292C34.8291 39.5199 34.7634 39.5236 34.7004 39.54C34.3804 39.62 34.0504 39.69 33.7004 39.75C33.5707 39.7743 33.4558 39.8489 33.3809 39.9576C33.3059 40.0662 33.277 40.2001 33.3004 40.33C33.3195 40.4456 33.3795 40.5506 33.4694 40.6258C33.5593 40.7011 33.6732 40.7416 33.7904 40.74H33.8804C34.2604 40.67 34.6004 40.6 34.9404 40.51Z" fill="#FCBE50"/>
<path d="M29.6704 10.06L30.6704 10.01C30.7361 10.0087 30.8009 9.99447 30.861 9.96813C30.9212 9.9418 30.9756 9.90386 31.0211 9.8565C31.0666 9.80914 31.1023 9.75328 31.1262 9.69211C31.1501 9.63094 31.1618 9.56566 31.1604 9.49999C31.1552 9.36648 31.0978 9.24035 31.0006 9.14872C30.9033 9.05708 30.774 9.00727 30.6404 9.00999L29.6404 9.06999C29.5747 9.07504 29.5106 9.09304 29.4519 9.12295C29.3931 9.15287 29.3408 9.1941 29.2981 9.24429C29.2553 9.29448 29.2229 9.35263 29.2027 9.41539C29.1825 9.47815 29.175 9.54429 29.1804 9.60999C29.1966 9.73044 29.2545 9.8414 29.3441 9.92361C29.4336 10.0058 29.549 10.0541 29.6704 10.06Z" fill="#FCBE50"/>
<path d="M39.1602 12.41C39.4402 12.59 39.7102 12.78 39.9702 12.98C40.0564 13.0456 40.1619 13.0808 40.2702 13.08C40.3481 13.0816 40.4252 13.0643 40.4949 13.0294C40.5646 12.9946 40.6248 12.9433 40.6702 12.88C40.7498 12.7739 40.7839 12.6406 40.7652 12.5093C40.7464 12.378 40.6763 12.2596 40.5702 12.18C40.2902 11.97 40.0002 11.77 39.7102 11.57C39.5972 11.4981 39.4604 11.4735 39.3294 11.5016C39.1985 11.5296 39.0838 11.6081 39.0102 11.72C38.9388 11.8315 38.9144 11.9667 38.9426 12.096C38.9707 12.2254 39.0489 12.3383 39.1602 12.41Z" fill="#FCBE50"/>
<path d="M20.9303 12.56L20.1303 13.25C20.0835 13.2965 20.0463 13.3518 20.0209 13.4127C19.9955 13.4736 19.9824 13.539 19.9824 13.605C19.9824 13.671 19.9955 13.7364 20.0209 13.7973C20.0463 13.8582 20.0835 13.9135 20.1303 13.96C20.1756 14.0106 20.2311 14.0511 20.2931 14.0786C20.3552 14.1062 20.4224 14.1203 20.4903 14.12C20.5528 14.122 20.615 14.1116 20.6734 14.0893C20.7318 14.0669 20.7851 14.0332 20.8303 13.99C21.0803 13.76 21.3303 13.55 21.5803 13.34C21.6833 13.2575 21.7496 13.1376 21.7646 13.0065C21.7795 12.8754 21.7421 12.7436 21.6603 12.64C21.6184 12.5858 21.566 12.5405 21.5062 12.507C21.4464 12.4735 21.3805 12.4523 21.3123 12.4449C21.2442 12.4374 21.1752 12.4437 21.1096 12.4635C21.044 12.4833 20.983 12.5161 20.9303 12.56Z" fill="#FCBE50"/>
<path d="M39.21 37.56C38.94 37.74 38.65 37.91 38.36 38.07C38.3028 38.1021 38.2527 38.1454 38.2125 38.1972C38.1723 38.2491 38.143 38.3085 38.1262 38.3719C38.1094 38.4353 38.1055 38.5015 38.1148 38.5664C38.124 38.6314 38.1462 38.6938 38.18 38.75C38.2216 38.8281 38.2835 38.8935 38.3592 38.9393C38.4349 38.9851 38.5216 39.0095 38.61 39.01C38.6983 39.0106 38.7849 38.9863 38.86 38.94C39.16 38.77 39.46 38.58 39.76 38.39C39.8697 38.3167 39.9459 38.203 39.9721 38.0738C39.9983 37.9446 39.9724 37.8102 39.9 37.7C39.8647 37.6447 39.8185 37.597 39.7643 37.5599C39.7102 37.5227 39.6491 37.4969 39.5847 37.4838C39.5203 37.4708 39.454 37.4708 39.3896 37.4839C39.3253 37.4969 39.2642 37.5228 39.21 37.56Z" fill="#FCBE50"/>
<path d="M34.6303 10.44C34.9569 10.52 35.2903 10.61 35.6303 10.71C35.6798 10.7195 35.7307 10.7195 35.7803 10.71C35.8868 10.7091 35.9904 10.6749 36.0765 10.6121C36.1626 10.5493 36.2269 10.4612 36.2603 10.36C36.2981 10.2327 36.2848 10.0956 36.2232 9.97799C36.1616 9.86033 36.0565 9.77136 35.9303 9.73L34.9303 9.44C34.8004 9.40967 34.6638 9.43142 34.5498 9.50058C34.4358 9.56974 34.3534 9.68082 34.3203 9.81C34.2984 9.87167 34.289 9.9371 34.2928 10.0024C34.2966 10.0678 34.3134 10.1317 34.3423 10.1904C34.3712 10.2491 34.4116 10.3015 34.4611 10.3443C34.5105 10.3872 34.568 10.4197 34.6303 10.44Z" fill="#FCBE50"/>
<path d="M38.3401 21.67C38.2517 21.5708 38.1279 21.51 37.9953 21.5007C37.8627 21.4913 37.7317 21.5341 37.6301 21.62L28.7001 29.27L25.0001 24.37C24.9607 24.3175 24.9114 24.2732 24.8549 24.2397C24.7984 24.2063 24.7359 24.1843 24.6709 24.175C24.6059 24.1657 24.5397 24.1693 24.4761 24.1856C24.4124 24.2019 24.3527 24.2306 24.3001 24.27C24.1962 24.3511 24.1278 24.4693 24.1091 24.5998C24.0905 24.7304 24.1231 24.863 24.2001 24.97L28.2001 30.3L28.3101 30.38H28.3701C28.4395 30.3937 28.5108 30.3937 28.5801 30.38C28.6799 30.376 28.7767 30.3448 28.8601 30.29H29.0001L38.3301 22.29C38.3997 22.2021 38.4384 22.0937 38.4402 21.9817C38.442 21.8696 38.4068 21.7601 38.3401 21.67Z" fill="#FCBE50"/>
</svg>
