<svg width="64" height="57" viewBox="0 0 64 57" fill="none" xmlns="http://www.w3.org/2000/svg">
<path d="M23.5 16H18.5C18.3674 16 18.2402 16.0527 18.1464 16.1464C18.0527 16.2402 18 16.3674 18 16.5V35.5C18 35.6326 18.0527 35.7598 18.1464 35.8536C18.2402 35.9473 18.3674 36 18.5 36H23.5C23.6326 36 23.7598 35.9473 23.8536 35.8536C23.9473 35.7598 24 35.6326 24 35.5V16.5C24 16.3674 23.9473 16.2402 23.8536 16.1464C23.7598 16.0527 23.6326 16 23.5 16ZM23 35H19V17H23V35Z" fill="#FCBE50"/>
<path d="M46.5002 16H34.5002L35.6602 10.19C35.8089 9.45625 35.717 8.69413 35.3981 8.01677C35.0792 7.33942 34.5504 6.78295 33.8902 6.42999L33.2102 6.05999C33.0931 5.99866 32.9567 5.98524 32.8298 6.02256C32.7029 6.05987 32.5955 6.145 32.5302 6.25999L27.0302 16.26C26.9904 16.3337 26.9698 16.4162 26.9702 16.5V33.5C26.9702 33.8308 27.0358 34.1584 27.1633 34.4637C27.2909 34.769 27.4777 35.0459 27.713 35.2785C27.9484 35.511 28.2275 35.6945 28.5343 35.8184C28.8411 35.9422 29.1694 36.004 29.5002 36H41.7902C43.0034 36.0029 44.1931 35.6651 45.2238 35.0251C46.2544 34.3851 47.0848 33.4686 47.6202 32.38L51.0002 24.7C51.0152 24.6342 51.0152 24.5658 51.0002 24.5V20.5C50.9976 19.3073 50.5226 18.1643 49.6793 17.3209C48.8359 16.4776 47.6929 16.0026 46.5002 16ZM50.0002 24.4L46.7102 32C46.2496 32.9076 45.5454 33.669 44.6764 34.1989C43.8074 34.7288 42.808 35.0062 41.7902 35H29.5002C29.1024 35 28.7209 34.842 28.4396 34.5607C28.1583 34.2793 28.0002 33.8978 28.0002 33.5V16.63L33.2002 7.17999L33.4402 7.30999C33.9121 7.56321 34.2902 7.96127 34.5188 8.44555C34.7475 8.92982 34.8146 9.47472 34.7102 9.99999L33.4302 16.4C33.4165 16.4731 33.4183 16.5483 33.4355 16.6206C33.4527 16.693 33.485 16.7609 33.5302 16.82C33.5791 16.8756 33.639 16.9203 33.7062 16.9513C33.7733 16.9823 33.8462 16.9989 33.9202 17H46.5002C47.4285 17 48.3187 17.3687 48.9751 18.0251C49.6315 18.6815 50.0002 19.5717 50.0002 20.5V24.4Z" fill="#FCBE50"/>
<path d="M53.54 0H10.46C7.68665 0.00264759 5.02764 1.10553 3.06659 3.06659C1.10553 5.02764 0.00264759 7.68665 0 10.46V34.54C0.00264759 37.3134 1.10553 39.9724 3.06659 41.9334C5.02764 43.8945 7.68665 44.9974 10.46 45H22.26L31.61 56.81C31.6569 56.8684 31.7162 56.9155 31.7837 56.9479C31.8512 56.9803 31.9251 56.9971 32 56.9971C32.0749 56.9971 32.1488 56.9803 32.2163 56.9479C32.2838 56.9155 32.3431 56.8684 32.39 56.81L41.74 45H53.54C56.3134 44.9974 58.9724 43.8945 60.9334 41.9334C62.8945 39.9724 63.9974 37.3134 64 34.54V10.46C63.9974 7.68665 62.8945 5.02764 60.9334 3.06659C58.9724 1.10553 56.3134 0.00264759 53.54 0ZM63 34.54C62.9947 37.0473 61.9963 39.4504 60.2234 41.2234C58.4504 42.9963 56.0473 43.9947 53.54 44H41.54C41.4648 43.9996 41.3905 44.0165 41.3228 44.0495C41.2552 44.0824 41.1961 44.1305 41.15 44.19L32 55.69L22.89 44.19C22.8439 44.1305 22.7848 44.0824 22.7172 44.0495C22.6495 44.0165 22.5752 43.9996 22.5 44H10.5C9.25507 44.0026 8.02181 43.76 6.87064 43.286C5.71946 42.8121 4.67292 42.116 3.79076 41.2375C2.90861 40.3591 2.20811 39.3155 1.72927 38.1663C1.25043 37.0172 1.00262 35.7849 1 34.54V10.46C1.00528 7.95267 2.00366 5.54956 3.77661 3.77661C5.54956 2.00366 7.95267 1.00528 10.46 1H53.54C56.0473 1.00528 58.4504 2.00366 60.2234 3.77661C61.9963 5.54956 62.9947 7.95267 63 10.46V34.54Z" fill="#FCBE50"/>
</svg>
